<svg width="2000" height="2000" viewBox="0 0 2000 2000" fill="none" xmlns="http://www.w3.org/2000/svg">
<rect width="2000" height="2000" fill="white"/>
<path d="M924.096 885.498C914.058 1004.61 808.658 1094.24 688.678 1085.68C568.698 1077.12 479.573 973.625 489.611 854.509C499.649 735.394 605.05 645.768 725.029 654.325C845.009 662.882 934.135 766.382 924.096 885.498Z" fill="#703750"/>
<path d="M1251.21 893.864C1242.56 996.551 1138.28 1072.86 1018.3 1064.3C898.323 1055.74 808.075 965.562 816.729 862.876C825.382 760.19 929.66 683.884 1049.64 692.441C1169.62 700.998 1259.87 791.178 1251.21 893.864Z" fill="#8A4765"/>
<path d="M1573.32 961.729C1564.66 1064.41 1460.39 1140.72 1340.41 1132.16C1220.43 1123.61 1130.18 1033.43 1138.83 930.741C1147.49 828.054 1251.76 751.748 1371.74 760.305C1491.72 768.862 1581.97 859.043 1573.32 961.729Z" fill="#703750"/>
<path d="M1444.64 1191.97C1435.99 1294.66 1331.71 1370.96 1211.73 1362.41C1091.75 1353.85 1001.5 1263.67 1010.15 1160.98C1018.81 1058.3 1123.09 981.991 1243.07 990.548C1363.05 999.105 1453.29 1089.29 1444.64 1191.97Z" fill="#8A4765"/>
<path d="M1097.47 1421.59C1088.81 1524.28 984.535 1600.59 864.555 1592.03C744.575 1583.47 654.328 1493.29 662.981 1390.61C671.635 1287.92 775.913 1211.61 895.893 1220.17C1015.87 1228.73 1106.12 1318.91 1097.47 1421.59Z" fill="#8A4765"/>
<path d="M1314.71 1437.09C1306.06 1539.77 1201.78 1616.08 1081.8 1607.52C961.818 1598.97 871.57 1508.79 880.224 1406.1C888.878 1303.41 993.156 1227.11 1113.14 1235.67C1233.12 1244.22 1323.36 1334.4 1314.71 1437.09Z" fill="#703750"/>
<path d="M1181.02 1726.83C1172.36 1829.52 1068.09 1905.82 948.107 1897.26C828.127 1888.71 737.879 1798.53 746.533 1695.84C755.186 1593.15 859.464 1516.85 979.444 1525.41C1099.42 1533.96 1189.67 1624.14 1181.02 1726.83Z" fill="#8A4765"/>
<path d="M1123.79 1109.23C1114.44 1220.13 1009.6 1303.1 889.625 1294.54C769.645 1285.99 679.959 1189.15 689.305 1078.24C698.651 967.344 803.49 884.378 923.47 892.935C1043.45 901.492 1133.14 998.332 1123.79 1109.23Z" fill="#703750"/>
<path d="M1359.86 324.656C1198.07 469.33 1239.69 403.239 1167.6 494.158C1055.44 635.587 1039.42 779.381 1039.42 685.768C1039.42 592.155 807.108 405.722 1167.6 155.155C1528.08 -95.4125 1434.52 241.107 1359.86 324.656Z" fill="#002A22"/>
</svg>
