<svg width="1400" height="1400" viewBox="0 0 1400 1400" fill="none" xmlns="http://www.w3.org/2000/svg">
<g clip-path="url(#clip0_5_323)">
<path fill-rule="evenodd" clip-rule="evenodd" d="M2.84562 529.552C4.61753 527.945 6.9692 526.965 9.55069 526.963L1390.42 526C1393.79 525.998 1396.78 527.666 1398.59 530.223C1401.88 531.973 1404 534.754 1404 537.885V963.692C1404 967.263 1401.24 970.378 1397.14 972.029C1395.37 973.635 1393.02 974.614 1390.44 974.614H9.56453C6.98271 974.614 4.62943 973.635 2.85522 972.029C-1.23943 970.378 -4 967.263 -4 963.692V537.885C-4 534.317 -1.24374 531.204 2.84562 529.552Z" fill="#9E5E37"/>
<path d="M-4 529H1404" stroke="black" stroke-width="20"/>
<path d="M1404 972L-4.00001 972" stroke="black" stroke-width="20"/>
</g>
<defs>
<clipPath id="clip0_5_323">
<rect width="1400" height="1400" fill="white"/>
</clipPath>
</defs>
</svg>
