<?xml version="1.0" encoding="utf-8"?>
<!-- Generator: Adobe Illustrator 27.10.0, SVG Export Plug-In . SVG Version: 6.00 Build 0)  -->
<svg version="1.1" id="Capa_1" xmlns="http://www.w3.org/2000/svg" xmlns:xlink="http://www.w3.org/1999/xlink" x="0px" y="0px"
	 viewBox="0 0 1400 1400" style="enable-background:new 0 0 1400 1400;" xml:space="preserve">
<style type="text/css">
	.st0{fill-rule:evenodd;clip-rule:evenodd;fill:#9E5E37;}
	.st1{fill:none;stroke:#000000;stroke-width:20;}
</style>
<g>
	<path class="st0" d="M479.24,1397.15c-1.61-1.77-2.59-4.12-2.59-6.71L475.69,9.58c0-3.37,1.67-6.36,4.22-8.17
		c1.75-3.29,4.53-5.41,7.66-5.41h425.81c3.57,0,6.69,2.76,8.34,6.86c1.61,1.77,2.59,4.12,2.59,6.7v1380.88
		c0,2.58-0.98,4.94-2.59,6.71c-1.65,4.09-4.77,6.86-8.34,6.86h-425.8C484.01,1404,480.89,1401.24,479.24,1397.15z"/>
	<path class="st1" d="M478.69,1404V-4"/>
	<path class="st1" d="M921.69-4v1408"/>
</g>
</svg>
