<svg version="1.1" id="Capa_1" xmlns="http://www.w3.org/2000/svg" x="0" y="0" viewBox="0 0 775 775" style="enable-background:new 0 0 775 775" xml:space="preserve"><style>.st0{fill:#7e5b4c}.st1{fill:#2a1108}.st2{fill:#3d1f12}.st3{fill:#1b0b05}.st4{fill:#96694e}</style><path class="st0" d="M214.2 413.9h80v80h-80z"/><path class="st1" d="M187.5 387.2h26.7v133.3h-26.7z"/><path class="st2" d="M294.2 387.2h26.7v133.3h-26.7z"/><path class="st3" d="M214.2 493.9h80l26.7 26.7H187.5l26.7-26.7z"/><path class="st4" d="M187.5 387.2h133.3l-26.7 26.7h-80l-26.6-26.7z"/><path class="st0" d="M347.5 413.9h80v80h-80z"/><path class="st1" d="M320.9 387.2h26.7v133.3h-26.7z"/><path class="st2" d="M427.5 387.2h26.7v133.3h-26.7z"/><path class="st3" d="M347.5 493.9h80l26.7 26.7H320.9l26.6-26.7z"/><path class="st4" d="M320.9 387.2h133.3l-26.7 26.7h-80l-26.6-26.7z"/><path class="st0" d="M480.9 413.9h80v80h-80z"/><path class="st1" d="M454.2 387.2h26.7v133.3h-26.7z"/><path class="st2" d="M560.9 387.2h26.7v133.3h-26.7z"/><path class="st3" d="M480.9 493.9h80l26.7 26.7H454.2l26.7-26.7z"/><path class="st4" d="M454.2 387.2h133.3l-26.7 26.7h-80l-26.6-26.7z"/><path class="st0" d="M214.2 280.5h80v80h-80z"/><path class="st1" d="M187.5 253.9h26.7v133.3h-26.7z"/><path class="st2" d="M294.2 253.9h26.7v133.3h-26.7z"/><path class="st3" d="M214.2 360.5h80l26.7 26.7H187.5l26.7-26.7z"/><path class="st4" d="M187.5 253.9h133.3l-26.7 26.7h-80l-26.6-26.7z"/><path class="st0" d="M347.5 280.5h80v80h-80z"/><path class="st1" d="M320.9 253.9h26.7v133.3h-26.7z"/><path class="st2" d="M427.5 253.9h26.7v133.3h-26.7z"/><path class="st3" d="M347.5 360.5h80l26.7 26.7H320.9l26.6-26.7z"/><path class="st4" d="M320.9 253.9h133.3l-26.7 26.7h-80l-26.6-26.7z"/><path class="st0" d="M480.9 280.5h80v80h-80z"/><path class="st1" d="M454.2 253.9h26.7v133.3h-26.7z"/><path class="st2" d="M560.9 253.9h26.7v133.3h-26.7z"/><path class="st3" d="M480.9 360.5h80l26.7 26.7H454.2l26.7-26.7z"/><path class="st4" d="M454.2 253.9h133.3l-26.7 26.7h-80l-26.6-26.7z"/><path class="st0" d="M214.2 147.2h80v80h-80z"/><path class="st1" d="M187.5 120.5h26.7v133.3h-26.7z"/><path class="st2" d="M294.2 120.5h26.7v133.3h-26.7z"/><path class="st3" d="M214.2 227.2h80l26.7 26.7H187.5l26.7-26.7z"/><path class="st4" d="M187.5 120.5h133.3l-26.7 26.7h-80l-26.6-26.7z"/><path class="st0" d="M347.5 147.2h80v80h-80z"/><path class="st1" d="M320.9 120.5h26.7v133.3h-26.7z"/><path class="st2" d="M427.5 120.5h26.7v133.3h-26.7z"/><path class="st3" d="M347.5 227.2h80l26.7 26.7H320.9l26.6-26.7z"/><path class="st4" d="M320.9 120.5h133.3l-26.7 26.7h-80l-26.6-26.7z"/><path class="st0" d="M480.9 147.2h80v80h-80z"/><path class="st1" d="M454.2 120.5h26.7v133.3h-26.7z"/><path class="st2" d="M560.9 120.5h26.7v133.3h-26.7z"/><path class="st3" d="M480.9 227.2h80l26.7 26.7H454.2l26.7-26.7z"/><path class="st4" d="M454.2 120.5h133.3l-26.7 26.7h-80l-26.6-26.7z"/><path class="st0" d="M214.2 413.9h80v80h-80z"/><path class="st1" d="M187.5 387.2h26.7v133.3h-26.7z"/><path class="st2" d="M294.2 387.2h26.7v133.3h-26.7z"/><path class="st3" d="M214.2 493.9h80l26.7 26.7H187.5l26.7-26.7z"/><path class="st4" d="M187.5 387.2h133.3l-26.7 26.7h-80l-26.6-26.7z"/><path class="st0" d="M347.5 413.9h80v80h-80z"/><path class="st1" d="M320.9 387.2h26.7v133.3h-26.7z"/><path class="st2" d="M427.5 387.2h26.7v133.3h-26.7z"/><path class="st3" d="M347.5 493.9h80l26.7 26.7H320.9l26.6-26.7z"/><path class="st4" d="M320.9 387.2h133.3l-26.7 26.7h-80l-26.6-26.7z"/><path class="st0" d="M480.9 413.9h80v80h-80z"/><path class="st1" d="M454.2 387.2h26.7v133.3h-26.7z"/><path class="st2" d="M560.9 387.2h26.7v133.3h-26.7z"/><path class="st3" d="M480.9 493.9h80l26.7 26.7H454.2l26.7-26.7z"/><path class="st4" d="M454.2 387.2h133.3l-26.7 26.7h-80l-26.6-26.7z"/><path class="st0" d="M214.2 280.5h80v80h-80z"/><path class="st1" d="M187.5 253.9h26.7v133.3h-26.7z"/><path class="st2" d="M294.2 253.9h26.7v133.3h-26.7z"/><path class="st3" d="M214.2 360.5h80l26.7 26.7H187.5l26.7-26.7z"/><path class="st4" d="M187.5 253.9h133.3l-26.7 26.7h-80l-26.6-26.7z"/><path class="st0" d="M347.5 280.5h80v80h-80z"/><path class="st1" d="M320.9 253.9h26.7v133.3h-26.7z"/><path class="st2" d="M427.5 253.9h26.7v133.3h-26.7z"/><path class="st3" d="M347.5 360.5h80l26.7 26.7H320.9l26.6-26.7z"/><path class="st4" d="M320.9 253.9h133.3l-26.7 26.7h-80l-26.6-26.7z"/><path class="st0" d="M480.9 280.5h80v80h-80z"/><path class="st1" d="M454.2 253.9h26.7v133.3h-26.7z"/><path class="st2" d="M560.9 253.9h26.7v133.3h-26.7z"/><path class="st3" d="M480.9 360.5h80l26.7 26.7H454.2l26.7-26.7z"/><path class="st4" d="M454.2 253.9h133.3l-26.7 26.7h-80l-26.6-26.7z"/><path class="st0" d="M214.2 147.2h80v80h-80z"/><path class="st1" d="M187.5 120.5h26.7v133.3h-26.7z"/><path class="st2" d="M294.2 120.5h26.7v133.3h-26.7z"/><path class="st3" d="M214.2 227.2h80l26.7 26.7H187.5l26.7-26.7z"/><path class="st4" d="M187.5 120.5h133.3l-26.7 26.7h-80l-26.6-26.7z"/><path class="st0" d="M347.5 147.2h80v80h-80z"/><path class="st1" d="M320.9 120.5h26.7v133.3h-26.7z"/><path class="st2" d="M427.5 120.5h26.7v133.3h-26.7z"/><path class="st3" d="M347.5 227.2h80l26.7 26.7H320.9l26.6-26.7z"/><path class="st4" d="M320.9 120.5h133.3l-26.7 26.7h-80l-26.6-26.7z"/><path class="st0" d="M480.9 147.2h80v80h-80z"/><path class="st1" d="M454.2 120.5h26.7v133.3h-26.7z"/><path class="st2" d="M560.9 120.5h26.7v133.3h-26.7z"/><path class="st3" d="M480.9 227.2h80l26.7 26.7H454.2l26.7-26.7z"/><path class="st4" d="M454.2 120.5h133.3l-26.7 26.7h-80l-26.6-26.7z"/><path class="st0" d="M214.2 547.2h80v80h-80z"/><path class="st1" d="M187.5 520.5h26.7v133.3h-26.7z"/><path class="st2" d="M294.2 520.5h26.7v133.3h-26.7z"/><path class="st3" d="M214.2 627.2h80l26.7 26.7H187.5l26.7-26.7z"/><path class="st4" d="M187.5 520.5h133.3l-26.7 26.7h-80l-26.6-26.7z"/><path class="st0" d="M347.5 547.2h80v80h-80z"/><path class="st1" d="M320.9 520.5h26.7v133.3h-26.7z"/><path class="st2" d="M427.5 520.5h26.7v133.3h-26.7z"/><path class="st3" d="M347.5 627.2h80l26.7 26.7H320.9l26.6-26.7z"/><path class="st4" d="M320.9 520.5h133.3l-26.7 26.7h-80l-26.6-26.7z"/><path class="st0" d="M480.9 547.2h80v80h-80z"/><path class="st1" d="M454.2 520.5h26.7v133.3h-26.7z"/><path class="st2" d="M560.9 520.5h26.7v133.3h-26.7z"/><path class="st3" d="M480.9 627.2h80l26.7 26.7H454.2l26.7-26.7z"/><path class="st4" d="M454.2 520.5h133.3l-26.7 26.7h-80l-26.6-26.7z"/></svg>