<svg width="2000" height="2000" viewBox="0 0 2000 2000" fill="none" xmlns="http://www.w3.org/2000/svg">
<rect x="566.667" y="1066.33" width="200" height="200" fill="#7E5B4C"/>
<rect x="500" y="999.667" width="66.6667" height="333.333" fill="#2A1108"/>
<rect x="766.667" y="999.667" width="66.6667" height="333.333" fill="#3D1F12"/>
<path d="M566.667 1266.33H766.667L833.333 1333H500L566.667 1266.33Z" fill="#1B0B05"/>
<path d="M500 999.667H833.333L766.667 1066.33H566.667L500 999.667Z" fill="#96694E"/>
<rect x="900" y="1066.33" width="200" height="200" fill="#7E5B4C"/>
<rect x="833.333" y="999.667" width="66.6667" height="333.333" fill="#2A1108"/>
<rect x="1100" y="999.667" width="66.6667" height="333.333" fill="#3D1F12"/>
<path d="M900 1266.33H1100L1166.67 1333H833.333L900 1266.33Z" fill="#1B0B05"/>
<path d="M833.333 999.667H1166.67L1100 1066.33H900L833.333 999.667Z" fill="#96694E"/>
<rect x="1233.33" y="1066.33" width="200" height="200" fill="#7E5B4C"/>
<rect x="1166.67" y="999.667" width="66.6667" height="333.333" fill="#2A1108"/>
<rect x="1433.33" y="999.667" width="66.6667" height="333.333" fill="#3D1F12"/>
<path d="M1233.33 1266.33H1433.33L1500 1333H1166.67L1233.33 1266.33Z" fill="#1B0B05"/>
<path d="M1166.67 999.667H1500L1433.33 1066.33H1233.33L1166.67 999.667Z" fill="#96694E"/>
<rect x="566.667" y="733" width="200" height="200" fill="#7E5B4C"/>
<rect x="500" y="666.333" width="66.6667" height="333.333" fill="#2A1108"/>
<rect x="766.667" y="666.333" width="66.6667" height="333.333" fill="#3D1F12"/>
<path d="M566.667 933H766.667L833.333 999.667H500L566.667 933Z" fill="#1B0B05"/>
<path d="M500 666.333H833.333L766.667 733H566.667L500 666.333Z" fill="#96694E"/>
<rect x="900" y="733" width="200" height="200" fill="#7E5B4C"/>
<rect x="833.333" y="666.333" width="66.6667" height="333.333" fill="#2A1108"/>
<rect x="1100" y="666.333" width="66.6667" height="333.333" fill="#3D1F12"/>
<path d="M900 933H1100L1166.67 999.667H833.333L900 933Z" fill="#1B0B05"/>
<path d="M833.333 666.333H1166.67L1100 733H900L833.333 666.333Z" fill="#96694E"/>
<rect x="1233.33" y="733" width="200" height="200" fill="#7E5B4C"/>
<rect x="1166.67" y="666.333" width="66.6667" height="333.333" fill="#2A1108"/>
<rect x="1433.33" y="666.333" width="66.6667" height="333.333" fill="#3D1F12"/>
<path d="M1233.33 933H1433.33L1500 999.667H1166.67L1233.33 933Z" fill="#1B0B05"/>
<path d="M1166.67 666.333H1500L1433.33 733H1233.33L1166.67 666.333Z" fill="#96694E"/>
<rect x="566.667" y="399.667" width="200" height="200" fill="#7E5B4C"/>
<rect x="500" y="333" width="66.6667" height="333.333" fill="#2A1108"/>
<rect x="766.667" y="333" width="66.6667" height="333.333" fill="#3D1F12"/>
<path d="M566.667 599.667H766.667L833.333 666.333H500L566.667 599.667Z" fill="#1B0B05"/>
<path d="M500 333H833.333L766.667 399.667H566.667L500 333Z" fill="#96694E"/>
<rect x="900" y="399.667" width="200" height="200" fill="#7E5B4C"/>
<rect x="833.333" y="333" width="66.6667" height="333.333" fill="#2A1108"/>
<rect x="1100" y="333" width="66.6667" height="333.333" fill="#3D1F12"/>
<path d="M900 599.667H1100L1166.67 666.333H833.333L900 599.667Z" fill="#1B0B05"/>
<path d="M833.333 333H1166.67L1100 399.667H900L833.333 333Z" fill="#96694E"/>
<rect x="1233.33" y="399.667" width="200" height="200" fill="#7E5B4C"/>
<rect x="1166.67" y="333" width="66.6667" height="333.333" fill="#2A1108"/>
<rect x="1433.33" y="333" width="66.6667" height="333.333" fill="#3D1F12"/>
<path d="M1233.33 599.667H1433.33L1500 666.333H1166.67L1233.33 599.667Z" fill="#1B0B05"/>
<path d="M1166.67 333H1500L1433.33 399.667H1233.33L1166.67 333Z" fill="#96694E"/>
<rect x="566.667" y="1066.33" width="200" height="200" fill="#7E5B4C"/>
<rect x="500" y="999.667" width="66.6667" height="333.333" fill="#2A1108"/>
<rect x="766.667" y="999.667" width="66.6667" height="333.333" fill="#3D1F12"/>
<path d="M566.667 1266.33H766.667L833.333 1333H500L566.667 1266.33Z" fill="#1B0B05"/>
<path d="M500 999.667H833.333L766.667 1066.33H566.667L500 999.667Z" fill="#96694E"/>
<rect x="900" y="1066.33" width="200" height="200" fill="#7E5B4C"/>
<rect x="833.333" y="999.667" width="66.6667" height="333.333" fill="#2A1108"/>
<rect x="1100" y="999.667" width="66.6667" height="333.333" fill="#3D1F12"/>
<path d="M900 1266.33H1100L1166.67 1333H833.333L900 1266.33Z" fill="#1B0B05"/>
<path d="M833.333 999.667H1166.67L1100 1066.33H900L833.333 999.667Z" fill="#96694E"/>
<rect x="1233.33" y="1066.33" width="200" height="200" fill="#7E5B4C"/>
<rect x="1166.67" y="999.667" width="66.6667" height="333.333" fill="#2A1108"/>
<rect x="1433.33" y="999.667" width="66.6667" height="333.333" fill="#3D1F12"/>
<path d="M1233.33 1266.33H1433.33L1500 1333H1166.67L1233.33 1266.33Z" fill="#1B0B05"/>
<path d="M1166.67 999.667H1500L1433.33 1066.33H1233.33L1166.67 999.667Z" fill="#96694E"/>
<rect x="566.667" y="733" width="200" height="200" fill="#7E5B4C"/>
<rect x="500" y="666.333" width="66.6667" height="333.333" fill="#2A1108"/>
<rect x="766.667" y="666.333" width="66.6667" height="333.333" fill="#3D1F12"/>
<path d="M566.667 933H766.667L833.333 999.667H500L566.667 933Z" fill="#1B0B05"/>
<path d="M500 666.333H833.333L766.667 733H566.667L500 666.333Z" fill="#96694E"/>
<rect x="900" y="733" width="200" height="200" fill="#7E5B4C"/>
<rect x="833.333" y="666.333" width="66.6667" height="333.333" fill="#2A1108"/>
<rect x="1100" y="666.333" width="66.6667" height="333.333" fill="#3D1F12"/>
<path d="M900 933H1100L1166.67 999.667H833.333L900 933Z" fill="#1B0B05"/>
<path d="M833.333 666.333H1166.67L1100 733H900L833.333 666.333Z" fill="#96694E"/>
<rect x="1233.33" y="733" width="200" height="200" fill="#7E5B4C"/>
<rect x="1166.67" y="666.333" width="66.6667" height="333.333" fill="#2A1108"/>
<rect x="1433.33" y="666.333" width="66.6667" height="333.333" fill="#3D1F12"/>
<path d="M1233.33 933H1433.33L1500 999.667H1166.67L1233.33 933Z" fill="#1B0B05"/>
<path d="M1166.67 666.333H1500L1433.33 733H1233.33L1166.67 666.333Z" fill="#96694E"/>
<rect x="566.667" y="399.667" width="200" height="200" fill="#7E5B4C"/>
<rect x="500" y="333" width="66.6667" height="333.333" fill="#2A1108"/>
<rect x="766.667" y="333" width="66.6667" height="333.333" fill="#3D1F12"/>
<path d="M566.667 599.667H766.667L833.333 666.333H500L566.667 599.667Z" fill="#1B0B05"/>
<path d="M500 333H833.333L766.667 399.667H566.667L500 333Z" fill="#96694E"/>
<rect x="900" y="399.667" width="200" height="200" fill="#7E5B4C"/>
<rect x="833.333" y="333" width="66.6667" height="333.333" fill="#2A1108"/>
<rect x="1100" y="333" width="66.6667" height="333.333" fill="#3D1F12"/>
<path d="M900 599.667H1100L1166.67 666.333H833.333L900 599.667Z" fill="#1B0B05"/>
<path d="M833.333 333H1166.67L1100 399.667H900L833.333 333Z" fill="#96694E"/>
<rect x="1233.33" y="399.667" width="200" height="200" fill="#7E5B4C"/>
<rect x="1166.67" y="333" width="66.6667" height="333.333" fill="#2A1108"/>
<rect x="1433.33" y="333" width="66.6667" height="333.333" fill="#3D1F12"/>
<path d="M1233.33 599.667H1433.33L1500 666.333H1166.67L1233.33 599.667Z" fill="#1B0B05"/>
<path d="M1166.67 333H1500L1433.33 399.667H1233.33L1166.67 333Z" fill="#96694E"/>
<rect x="566.667" y="1399.67" width="200" height="200" fill="#7E5B4C"/>
<rect x="500" y="1333" width="66.6667" height="333.333" fill="#2A1108"/>
<rect x="766.667" y="1333" width="66.6667" height="333.333" fill="#3D1F12"/>
<path d="M566.667 1599.67H766.667L833.333 1666.33H500L566.667 1599.67Z" fill="#1B0B05"/>
<path d="M500 1333H833.333L766.667 1399.67H566.667L500 1333Z" fill="#96694E"/>
<rect x="900" y="1399.67" width="200" height="200" fill="#7E5B4C"/>
<rect x="833.333" y="1333" width="66.6667" height="333.333" fill="#2A1108"/>
<rect x="1100" y="1333" width="66.6667" height="333.333" fill="#3D1F12"/>
<path d="M900 1599.67H1100L1166.67 1666.33H833.333L900 1599.67Z" fill="#1B0B05"/>
<path d="M833.333 1333H1166.67L1100 1399.67H900L833.333 1333Z" fill="#96694E"/>
<rect x="1233.33" y="1399.67" width="200" height="200" fill="#7E5B4C"/>
<rect x="1166.67" y="1333" width="66.6667" height="333.333" fill="#2A1108"/>
<rect x="1433.33" y="1333" width="66.6667" height="333.333" fill="#3D1F12"/>
<path d="M1233.33 1599.67H1433.33L1500 1666.33H1166.67L1233.33 1599.67Z" fill="#1B0B05"/>
<path d="M1166.67 1333H1500L1433.33 1399.67H1233.33L1166.67 1333Z" fill="#96694E"/>
</svg>
