<?xml version="1.0" encoding="utf-8"?>
<!-- Generator: Adobe Illustrator 27.10.0, SVG Export Plug-In . SVG Version: 6.00 Build 0)  -->
<svg version="1.1" id="Capa_1" xmlns="http://www.w3.org/2000/svg" xmlns:xlink="http://www.w3.org/1999/xlink" x="0px" y="0px"
	 viewBox="0 0 775 775" style="enable-background:new 0 0 775 775;" xml:space="preserve">
<style type="text/css">
	.st0{fill:#96694E;}
</style>
<path class="st0" d="M587.6,120.5h-0.1h-26.6h-80h-26.7h-26.7h-79.9h-26.7h-0.1h-26.6h-80h-26.7v133.3h0.1l-0.1,0.1v0v133.3v133.3
	v133.3h0.1l-0.1,0.1h133.4l-0.1-0.1h0.1h0.1l-0.1,0.1h133.3l-0.1-0.1h0.1h0.1l-0.1,0.1h133.4l-0.1-0.1h0.1V520.5V387.2V253.9
	l-0.1-0.1h0.1V120.5z M560.9,147.1v0.1h-0.1L560.9,147.1z M294.2,280.5L294.2,280.5L294.2,280.5L294.2,280.5z M294.2,413.9
	L294.2,413.9L294.2,413.9L294.2,413.9z M294.2,547.1v0.1h-0.1L294.2,547.1z M560.9,547.1v0.1h-0.1L560.9,547.1z M560.8,413.9
	L560.8,413.9L560.8,413.9L560.8,413.9z M560.9,280.5L560.9,280.5L560.9,280.5L560.9,280.5z M454.3,253.8L454.3,253.8h-0.2H454.3
	L454.3,253.8z M321,253.8L321,253.8h-0.2H321L321,253.8z M294.2,147.1v0.1h-0.1L294.2,147.1z"/>
</svg>
