<?xml version="1.0" encoding="utf-8"?>
<!-- Generator: Adobe Illustrator 27.10.0, SVG Export Plug-In . SVG Version: 6.00 Build 0)  -->
<svg version="1.1" id="Capa_1" xmlns="http://www.w3.org/2000/svg" xmlns:xlink="http://www.w3.org/1999/xlink" x="0px" y="0px"
	 viewBox="0 0 1400 1400" style="enable-background:new 0 0 1400 1400;" xml:space="preserve">
<style type="text/css">
	.st0{fill:#9E5E37;}
	.st1{fill:none;stroke:#000000;stroke-width:20;}
	.st2{fill-rule:evenodd;clip-rule:evenodd;fill:#9E5E37;}
</style>
<g>
	<g>
		<path class="st0" d="M912.21,23.91c0,0,26.99,273.06,128,364.5c95.5,86.45,370,97,370,97l-5.5,427c0,0-518.33,69.73-748-175
			c-222.2-236.77-167-713.5-167-713.5H912.21z"/>
		<path class="st1" d="M921.21,48.91c0,0-9.75,203.34,119,341c94,100.5,328.5,88,328.5,88"/>
		<path class="st1" d="M1370.21,920.91c0,0-587,22.5-749.5-170s-142-709.5-142-709.5"/>
	</g>
</g>
<g>
	<path class="st2" d="M1399.59,920.76c-0.05,1.61-0.12,2.59-0.19,2.59l-38.81,0.96c-0.09,0-0.18-1.67-0.23-4.22
		c-0.09-1.75-0.15-4.53-0.15-7.66V486.62c0-3.57,0.08-6.69,0.19-8.34c0.05-1.61,0.12-2.59,0.19-2.59h38.81
		c0.07,0,0.14,0.98,0.19,2.59c0.11,1.65,0.19,4.77,0.19,8.34v425.8C1399.79,915.99,1399.71,919.11,1399.59,920.76z"/>
	<path class="st1" d="M1399.79,921.31h-39.57"/>
	<path class="st1" d="M1360.21,478.31h39.57"/>
</g>
<g>
	<g>
		<path class="st2" d="M479.03,48.68c-1.61-0.06-2.59-0.14-2.59-0.23l-0.96-47.97c0-0.12,1.67-0.22,4.22-0.28
			c1.75-0.11,4.53-0.19,7.66-0.19h425.81c3.57,0,6.69,0.1,8.34,0.24c1.61,0.06,2.59,0.14,2.59,0.23v47.97
			c0,0.09-0.98,0.17-2.59,0.23c-1.65,0.14-4.77,0.24-8.34,0.24h-425.8C483.8,48.91,480.69,48.82,479.03,48.68z"/>
		<path class="st1" d="M478.48,48.91V0"/>
		<path class="st1" d="M921.48,0v48.91"/>
	</g>
</g>
</svg>
