<?xml version="1.0" encoding="utf-8"?>
<!-- Generator: Adobe Illustrator 27.10.0, SVG Export Plug-In . SVG Version: 6.00 Build 0)  -->
<svg version="1.1" id="Capa_1" xmlns="http://www.w3.org/2000/svg" xmlns:xlink="http://www.w3.org/1999/xlink" x="0px" y="0px"
	 viewBox="0 0 1400 1400" style="enable-background:new 0 0 1400 1400;" xml:space="preserve">
<style type="text/css">
	.st0{fill:#9E5E37;}
	.st1{fill:none;stroke:#000000;stroke-width:20;}
	.st2{fill-rule:evenodd;clip-rule:evenodd;fill:#9E5E37;}
</style>
<g>
	<g>
		<path class="st0" d="M1376.09,912.43c0,0-273.06,26.99-364.5,128c-86.45,95.5-97,370-97,370l-427-5.5c0,0-69.73-518.33,175-748
			c236.77-222.19,713.5-167,713.5-167V912.43z"/>
		<path class="st1" d="M1351.09,921.43c0,0-203.34-9.75-341,119c-100.5,94-88,328.5-88,328.5"/>
		<path class="st1" d="M479.09,1370.43c0,0-22.5-587,170-749.5s709.5-142,709.5-142"/>
	</g>
</g>
<g>
	<path class="st2" d="M479.24,1399.81c-1.61-0.05-2.59-0.12-2.59-0.19l-0.96-38.81c0-0.09,1.67-0.18,4.22-0.23
		c1.75-0.09,4.53-0.15,7.66-0.15h425.81c3.57,0,6.69,0.08,8.34,0.19c1.61,0.05,2.59,0.12,2.59,0.19v38.81
		c0,0.07-0.98,0.14-2.59,0.19c-1.65,0.11-4.77,0.19-8.34,0.19h-425.8C484.01,1400,480.89,1399.92,479.24,1399.81z"/>
	<path class="st1" d="M478.69,1400v-39.57"/>
	<path class="st1" d="M921.69,1360.43V1400"/>
</g>
<g>
	<g>
		<path class="st2" d="M1351.32,479.24c0.06-1.61,0.14-2.59,0.23-2.59l47.97-0.96c0.12,0,0.22,1.67,0.28,4.22
			c0.11,1.75,0.19,4.53,0.19,7.66v425.81c0,3.57-0.1,6.69-0.24,8.34c-0.06,1.61-0.14,2.59-0.23,2.59h-47.97
			c-0.09,0-0.17-0.98-0.23-2.59c-0.14-1.65-0.24-4.77-0.24-8.34v-425.8C1351.09,484.01,1351.18,480.9,1351.32,479.24z"/>
		<path class="st1" d="M1351.09,478.69H1400"/>
		<path class="st1" d="M1400,921.69h-48.91"/>
	</g>
</g>
</svg>
