<?xml version="1.0" encoding="utf-8"?>
<!-- Generator: Adobe Illustrator 27.10.0, SVG Export Plug-In . SVG Version: 6.00 Build 0)  -->
<svg version="1.1" id="Capa_1" xmlns="http://www.w3.org/2000/svg" xmlns:xlink="http://www.w3.org/1999/xlink" x="0px" y="0px"
	 viewBox="0 0 1400 1400" style="enable-background:new 0 0 1400 1400;" xml:space="preserve">
<style type="text/css">
	.st0{fill:#9E5E37;}
	.st1{fill:none;stroke:#000000;stroke-width:20;}
	.st2{fill-rule:evenodd;clip-rule:evenodd;fill:#9E5E37;}
</style>
<g>
	<g>
		<path class="st0" d="M487.57,1376.09c0,0-26.99-273.06-128-364.5c-95.5-86.45-370-97-370-97l5.5-427c0,0,518.33-69.73,748,175
			c222.2,236.77,167,713.5,167,713.5L487.57,1376.09z"/>
		<path class="st1" d="M478.57,1351.09c0,0,9.75-203.34-119-341c-94-100.5-328.5-88-328.5-88"/>
		<path class="st1" d="M29.57,479.09c0,0,587-22.5,749.5,170s142,709.5,142,709.5"/>
	</g>
</g>
<g>
	<path class="st2" d="M0.19,479.24c0.05-1.61,0.12-2.59,0.19-2.59l38.81-0.96c0.09,0,0.18,1.67,0.23,4.22
		c0.09,1.75,0.15,4.53,0.15,7.66l0,425.81c0,3.57-0.08,6.69-0.19,8.34c-0.05,1.61-0.12,2.59-0.19,2.59H0.38
		c-0.07,0-0.14-0.98-0.19-2.59C0.08,920.07,0,916.95,0,913.38l0-425.8C0,484.01,0.08,480.89,0.19,479.24z"/>
	<path class="st1" d="M0,478.69l39.57,0"/>
	<path class="st1" d="M39.57,921.69H0"/>
</g>
<g>
	<g>
		<path class="st2" d="M920.76,1351.32c1.61,0.06,2.59,0.14,2.59,0.23l0.96,47.97c0,0.12-1.67,0.22-4.22,0.28
			c-1.75,0.11-4.53,0.19-7.66,0.19l-425.81,0c-3.57,0-6.69-0.1-8.34-0.24c-1.61-0.06-2.59-0.14-2.59-0.23l0-47.97
			c0-0.09,0.98-0.17,2.59-0.23c1.65-0.14,4.77-0.24,8.34-0.24l425.8,0C915.99,1351.09,919.1,1351.18,920.76,1351.32z"/>
		<path class="st1" d="M921.31,1351.09V1400"/>
		<path class="st1" d="M478.31,1400l0-48.91"/>
	</g>
</g>
</svg>
