<?xml version="1.0" encoding="utf-8"?>
<!-- Generator: Adobe Illustrator 27.10.0, SVG Export Plug-In . SVG Version: 6.00 Build 0)  -->
<svg version="1.1" id="Capa_1" xmlns="http://www.w3.org/2000/svg" xmlns:xlink="http://www.w3.org/1999/xlink" x="0px" y="0px"
	 viewBox="0 0 1400 1400" style="enable-background:new 0 0 1400 1400;" xml:space="preserve">
<style type="text/css">
	.st0{fill:#9E5E37;}
	.st1{fill:none;stroke:#000000;stroke-width:20;}
	.st2{fill-rule:evenodd;clip-rule:evenodd;fill:#9E5E37;}
</style>
<g>
	<g>
		<path class="st0" d="M23.91,487.57c0,0,273.06-26.99,364.5-128c86.45-95.5,97-370,97-370l427,5.5c0,0,69.73,518.33-175,748
			c-236.77,222.2-713.5,167-713.5,167L23.91,487.57z"/>
		<path class="st1" d="M48.91,478.57c0,0,203.34,9.75,341-119c100.5-94,88-328.5,88-328.5"/>
		<path class="st1" d="M920.91,29.57c0,0,22.5,587-170,749.5s-709.5,142-709.5,142"/>
	</g>
</g>
<g>
	<path class="st2" d="M920.76,0.19c1.61,0.05,2.59,0.12,2.59,0.19l0.96,38.81c0,0.09-1.67,0.18-4.22,0.23
		c-1.75,0.09-4.53,0.15-7.66,0.15l-425.81,0c-3.57,0-6.69-0.08-8.34-0.19c-1.61-0.05-2.59-0.12-2.59-0.19V0.38
		c0-0.07,0.98-0.14,2.59-0.19c1.65-0.11,4.77-0.19,8.34-0.19l425.8,0C915.99,0,919.11,0.08,920.76,0.19z"/>
	<path class="st1" d="M921.31,0v39.57"/>
	<path class="st1" d="M478.31,39.57V0"/>
</g>
<g>
	<g>
		<path class="st2" d="M48.68,920.76c-0.06,1.61-0.14,2.59-0.23,2.59l-47.97,0.96c-0.12,0-0.22-1.67-0.28-4.22
			C0.07,918.34,0,915.56,0,912.43l0-425.81c0-3.57,0.1-6.69,0.24-8.34c0.06-1.61,0.14-2.59,0.23-2.59l47.97,0
			c0.09,0,0.17,0.98,0.23,2.59c0.14,1.65,0.24,4.77,0.24,8.34l0,425.8C48.91,915.99,48.82,919.1,48.68,920.76z"/>
		<path class="st1" d="M48.91,921.31H0"/>
		<path class="st1" d="M0,478.31l48.91,0"/>
	</g>
</g>
</svg>
