<svg width="1400" height="1400" viewBox="0 0 1400 1400" fill="none" xmlns="http://www.w3.org/2000/svg">
<g clip-path="url(#clip0_5_363)">
<path d="M1426 944C1426 944 1152.94 970.988 1061.5 1072C975.053 1167.5 964.5 1442 964.5 1442L537.5 1436.5C537.5 1436.5 467.77 918.168 712.5 688.5C949.266 466.305 1426 521.5 1426 521.5L1426 944Z" fill="#9E5E37"/>
<path d="M1401 953C1401 953 1197.66 943.248 1060 1072C959.501 1166 972.001 1400.5 972.001 1400.5" stroke="black" stroke-width="20"/>
<path d="M529 1402C529 1402 506.5 815 699 652.5C891.5 490 1408.5 510.5 1408.5 510.5" stroke="black" stroke-width="20"/>
</g>
<defs>
<clipPath id="clip0_5_363">
<rect width="1400" height="1400" fill="white" transform="matrix(0 -1 1 0 0 1400)"/>
</clipPath>
</defs>
</svg>
