<?xml version="1.0" encoding="UTF-8"?>
<svg id="Capa_1" data-name="Capa 1" xmlns="http://www.w3.org/2000/svg" viewBox="0 0 254.89 254.89">
  <defs>
    <style>
      .cls-1 {
        fill: #fff;
        stroke: #000;
        stroke-miterlimit: 10;
        stroke-width: 6px;
      }

      .cls-2 {
        stroke-width: 0px;
      }
    </style>
  </defs>
  <rect class="cls-1" x="3" y="3" width="248.89" height="248.89" rx="30" ry="30"/>
  <g>
    <path class="cls-2" d="m154.02,177.36c.04-12.97,10.52-23.35,23.56-23.33,13.02.02,23.4,10.5,23.3,23.54-.1,13.08-10.43,23.31-23.54,23.31-13.01,0-23.36-10.44-23.32-23.53Zm40.16,8.75c-7.07-.94-8.32.46-7.31,7.43,2.54-2.58,4.48-4.55,7.31-7.43Z"/>
    <path class="cls-2" d="m100.87,77.47c-.01,13.03-10.47,23.26-23.68,23.18-12.89-.08-23.1-10.29-23.18-23.19-.08-13.07,10.28-23.46,23.41-23.45,13.1,0,23.46,10.37,23.45,23.46Zm-6.76,9.98c-.67-.96-1.34-1.92-2.01-2.89-1.65.56-3.83.66-4.82,1.8-1.11,1.28-1.16,3.48-1.66,5.29l2.46,1.65c2.01-1.95,4.03-3.9,6.04-5.85Z"/>
  </g>
</svg>