<?xml version="1.0" encoding="UTF-8"?>
<svg id="Capa_1" data-name="Capa 1" xmlns="http://www.w3.org/2000/svg" viewBox="0 0 254.89 254.89">
  <defs>
    <style>
      .cls-1 {
        fill: #fff;
        stroke: #000;
        stroke-miterlimit: 10;
        stroke-width: 6px;
      }

      .cls-2 {
        stroke-width: 0px;
      }
    </style>
  </defs>
  <rect class="cls-1" x="3" y="3" width="248.89" height="248.89" rx="30" ry="30"/>
  <g>
    <path class="cls-2" d="m200.87,77.86c-.09,12.71-10.64,23.11-23.33,23.01-13.36-.1-23.74-10.63-23.52-23.86.21-12.97,10.8-23.18,23.88-23.03,12.94.15,23.07,10.69,22.98,23.88Zm-14.41,14.17c4.03-.6,5.74-2.72,6.05-5.97.03-.32-1.9-1.34-2.66-1.13-3.33.93-4.06,3.39-3.39,7.1Z"/>
    <path class="cls-2" d="m77.8,154.03c13,.14,23.14,10.61,23.05,23.8-.08,12.91-10.81,23.3-23.8,23.07-13.08-.24-23.16-10.65-23.04-23.82.11-12.98,10.66-23.19,23.79-23.05Zm15.37,32.62c-.38-.59-.76-1.17-1.14-1.76-1.62.55-3.79.65-4.73,1.78-1.09,1.32-1.11,3.53-1.59,5.35.63.32,1.27.63,1.9.95,1.85-2.11,3.7-4.21,5.55-6.32Z"/>
    <path class="cls-2" d="m150.63,127.12c.08,13.16-10.24,23.55-23.38,23.53-12.86-.02-23.37-10.31-23.5-23.02-.13-13.1,10.18-23.65,23.23-23.78,13.16-.12,23.57,10.12,23.66,23.27Zm-13.55,16.42c2.51-2.79,4.39-4.89,6.76-7.53-6.55-1.35-8.19.47-6.76,7.53Z"/>
    <path class="cls-2" d="m100.84,77.13c.09,13.13-10.13,23.61-23.13,23.72-13.14.11-23.55-10.05-23.71-23.14-.15-13.07,10.11-23.6,23.12-23.71,13.12-.11,23.62,10.14,23.71,23.13Zm-14.07,16.29c2.56-2.67,4.55-4.76,6.94-7.25-6.39-2.04-8.4.07-6.94,7.25Z"/>
    <path class="cls-2" d="m177.58,154.01c12.98.04,23.41,10.58,23.31,23.56-.1,13.03-10.51,23.36-23.55,23.34-12.93-.01-23.33-10.54-23.31-23.58.02-12.98,10.51-23.37,23.55-23.33Zm16.13,32.1c-6.3-1.52-8.17.59-6.44,7.24,2.34-2.63,4.19-4.72,6.44-7.24Z"/>
  </g>
</svg>