<?xml version="1.0" encoding="UTF-8"?>
<svg id="Capa_1" data-name="Capa 1" xmlns="http://www.w3.org/2000/svg" viewBox="0 0 254.89 254.89">
  <defs>
    <style>
      .cls-1 {
        fill: #fff;
        stroke: #000;
        stroke-miterlimit: 10;
        stroke-width: 6px;
      }

      .cls-2 {
        stroke-width: 0px;
      }
    </style>
  </defs>
  <rect class="cls-1" x="3" y="3" width="248.89" height="248.89" rx="30" ry="30"/>
  <g>
    <path class="cls-2" d="m77.52,54c13.04.08,23.24,10.51,23.18,23.68-.06,12.97-10.66,23.32-23.7,23.16-13.04-.16-23.34-10.69-23.19-23.69.15-13.06,10.58-23.23,23.72-23.15Zm8.91,37.56c.55.37,1.1.73,1.65,1.1l4.6-6.54c-.92-.44-1.97-1.43-2.73-1.24-3.58.91-4.33,3.47-3.52,6.68Z"/>
    <path class="cls-2" d="m53.83,177.09c.21-13.21,10.95-23.43,24.29-23.09,12.71.33,22.8,10.97,22.55,23.79-.26,13.12-10.82,23.39-23.76,23.1-13.15-.29-23.28-10.75-23.08-23.8Zm40.3,8.94c-6.9-1.29-8.54.58-7.18,7.38,2.45-2.52,4.41-4.54,7.18-7.38Z"/>
    <path class="cls-2" d="m177.57,100.84c-13.06-.11-23.4-10.52-23.38-23.55.02-12.88,10.62-23.33,23.62-23.29,13.07.03,23.38,10.45,23.29,23.53-.09,13.12-10.49,23.43-23.53,23.31Zm8.97-9.21c.57.35,1.14.69,1.72,1.04,1.47-2.11,2.94-4.23,4.41-6.34-1.09-.44-2.4-1.51-3.23-1.22-3.19,1.12-3.99,3.54-2.9,6.53Z"/>
    <path class="cls-2" d="m177.72,200.87c-12.98,0-23.49-10.44-23.54-23.4-.05-12.87,10.59-23.52,23.45-23.48,13.14.05,23.42,10.31,23.44,23.41.02,13.13-10.26,23.46-23.35,23.47Zm8.71-9.12c.57.39,1.14.78,1.72,1.17,1.53-2.15,3.06-4.31,4.58-6.46-1.09-.42-2.35-1.42-3.23-1.15-3.3,1-3.77,3.55-3.07,6.44Z"/>
  </g>
</svg>