<?xml version="1.0" encoding="UTF-8"?>
<svg id="Capa_1" data-name="Capa 1" xmlns="http://www.w3.org/2000/svg" viewBox="0 0 254.89 254.89">
  <defs>
    <style>
      .cls-1 {
        fill: #fff;
        stroke: #000;
        stroke-miterlimit: 10;
        stroke-width: 6px;
      }

      .cls-2 {
        stroke-width: 0px;
      }
    </style>
  </defs>
  <rect class="cls-1" x="3" y="3" width="248.89" height="248.89" rx="30" ry="30"/>
  <g>
    <path class="cls-2" d="m77.12,212.81c-13.2-.25-23.36-10.6-23.22-23.63.14-13.21,10.9-23.53,24.17-23.18,12.75.33,22.86,10.85,22.72,23.65-.14,13.03-10.75,23.41-23.67,23.16Zm10.34-7.04c2.11-3.13,3.56-5.29,5.02-7.45-1.09-.36-2.42-1.29-3.24-.97-3.07,1.22-3.86,3.56-1.78,8.42Z"/>
    <path class="cls-2" d="m201,65.87c-.09,12.94-10.76,23.32-23.77,23.11-12.8-.2-23.08-10.56-23.12-23.31-.04-13.27,10.5-23.72,23.81-23.59,13,.12,23.16,10.6,23.07,23.79Zm-14.72,14.12c.56.38,1.13.75,1.69,1.13,1.6-2.17,3.2-4.34,4.81-6.51-1.05-.52-2.28-1.69-3.11-1.46-3.6,1-3.99,3.77-3.38,6.85Z"/>
    <path class="cls-2" d="m53.89,65.82c-.1-13.29,10.34-23.78,23.66-23.75,12.7.02,23.04,10.33,23.24,23.16.2,12.94-10.24,23.65-23.15,23.76-13.05.11-23.66-10.24-23.75-23.17Zm31.82,14.06l2.15.99c1.78-2.08,3.55-4.17,5.33-6.25-.28-.49-.56-.98-.83-1.48-1.58.29-3.82.05-4.59.99-1.21,1.49-1.43,3.79-2.07,5.75Z"/>
    <path class="cls-2" d="m177.39,165.99c13.12-.08,23.56,10.19,23.61,23.23.05,13.12-10.18,23.51-23.24,23.61-13.01.09-23.67-10.37-23.68-23.23-.01-13.08,10.31-23.52,23.31-23.6Zm9.66,38.32c3.48-1.09,5.67-2.93,5.56-6.97-5.89.02-7.16,1.69-5.56,6.97Z"/>
    <path class="cls-2" d="m77.48,103.96c13,.03,23.4,10.53,23.3,23.54-.1,13.09-10.5,23.36-23.56,23.28-13.08-.08-23.36-10.46-23.32-23.53.04-12.96,10.52-23.32,23.58-23.29Zm16.09,32.32c-6.34-1.52-8.22.61-6.41,7.21,2.32-2.61,4.16-4.69,6.41-7.21Z"/>
    <path class="cls-2" d="m177.62,150.78c-13.14-.01-23.52-10.39-23.49-23.51.02-13.02,10.56-23.4,23.67-23.31,13.06.09,23.26,10.53,23.2,23.75-.05,12.76-10.51,23.07-23.38,23.06Zm15.66-14.03c-.38-.59-.76-1.17-1.14-1.76-1.7.66-3.93.88-4.96,2.11-1.01,1.2-.79,3.43-1.1,5.21.63.22,1.25.45,1.88.67,1.77-2.08,3.55-4.15,5.32-6.23Z"/>
  </g>
</svg>