<?xml version="1.0" encoding="UTF-8"?>
<svg id="Capa_1" data-name="Capa 1" xmlns="http://www.w3.org/2000/svg" viewBox="0 0 254.89 254.89">
  <defs>
    <style>
      .cls-1 {
        fill: #fff;
        stroke: #000;
        stroke-miterlimit: 10;
        stroke-width: 6px;
      }

      .cls-2 {
        stroke-width: 0px;
      }
    </style>
  </defs>
  <rect class="cls-1" x="3" y="3" width="248.89" height="248.89" rx="30" ry="30"/>
  <g>
    <path class="cls-2" d="m150.96,127.57c-.01,13.11-10.47,23.56-23.51,23.48-13.03-.08-23.43-10.61-23.36-23.66.07-13.11,10.54-23.52,23.55-23.43,13.21.09,23.33,10.34,23.31,23.62Zm-14.46,14.26c.57.35,1.13.71,1.7,1.06,1.41-2.25,2.82-4.49,4.23-6.74-1.01-.32-2.19-1.15-2.99-.88-3.26,1.1-3.99,3.52-2.94,6.56Z"/>
    <path class="cls-2" d="m200.99,177.63c-.03,13.02-10.52,23.38-23.56,23.27-13.09-.11-23.39-10.54-23.29-23.57.11-13.06,10.49-23.31,23.59-23.3,12.96.01,23.29,10.5,23.26,23.6Zm-7.7,9.25c-.39-.59-.77-1.18-1.16-1.77-1.6.55-3.75.65-4.67,1.77-1.08,1.31-1.1,3.51-1.58,5.32.62.3,1.23.6,1.85.9,1.86-2.07,3.71-4.14,5.57-6.21Z"/>
    <path class="cls-2" d="m77.01,100.67c-12.83-.1-23.13-10.49-23.12-23.28.02-13.03,10.48-23.42,23.55-23.39,13.1.03,23.46,10.49,23.32,23.57-.13,13.13-10.5,23.22-23.76,23.11Zm8.76-9.21c.75.37,1.5.75,2.26,1.12,1.72-2.07,3.44-4.14,5.15-6.21-.33-.51-.65-1.01-.98-1.52-1.54.39-3.64.3-4.49,1.29-1.15,1.34-1.34,3.51-1.94,5.32Z"/>
  </g>
</svg>