<svg width="1391" height="1279" viewBox="0 0 1391 1279" fill="none" xmlns="http://www.w3.org/2000/svg">
<path d="M541 469.5H10.5V910L512.5 916.5C512.5 916.5 550 1279 769.5 1233C916 1202.3 807.5 878.5 807.5 878.5C807.5 878.5 911.482 809.018 960.5 747.5C1027.19 663.8 1078 443.5 1078 443.5C1078 443.5 1292.5 416 1305.5 398.5C1356.52 362.358 1374 205 1374 205L1101.5 190.5C1101.5 190.5 934.525 169.849 861 250.5C810.453 305.945 769.5 407.5 769.5 407.5C769.5 407.5 728.255 500.593 674 514.5C620.885 528.114 541 469.5 541 469.5Z" fill="#9E5E37" stroke="#9E5E37" stroke-width="20" stroke-linecap="round"/>
<path d="M483.397 914H222.897C222.897 914 138.397 1295.5 371.897 1267.5C605.398 1239.5 483.397 914 483.397 914Z" fill="#3D1F12" stroke="#3D1F12" stroke-width="20" stroke-linecap="round"/>
<path d="M816.587 65.2736C816.587 65.2736 578.041 -7.27405 487.587 84.2736C362.741 210.63 486.962 504.691 664.587 503.274C845.638 501.829 816.587 65.2736 816.587 65.2736Z" fill="#3D1F12" stroke="#3D1F12" stroke-width="20" stroke-linecap="round"/>
<path d="M13 912L514.997 912.314" stroke="black" stroke-width="20" stroke-linecap="round"/>
<path d="M13 468L514.997 468.314" stroke="black" stroke-width="20" stroke-linecap="round"/>
<path d="M233.409 915.024C234.114 1125.12 188.337 1268.65 376.693 1268.5C565.049 1268.35 506.453 1068.38 506.5 912" stroke="black" stroke-width="20"/>
<path d="M526.951 922.514C526.407 917.018 521.51 913.004 516.014 913.549C510.518 914.093 506.504 918.99 507.049 924.486L526.951 922.514ZM738.5 1238.5L740.488 1248.3L738.5 1238.5ZM815.802 873.022C814.71 867.609 809.436 864.106 804.022 865.198C798.608 866.29 795.105 871.564 796.197 876.978L815.802 873.022ZM632.843 475.175L633.297 465.185L633.297 465.185L632.843 475.175ZM808.834 36.9732L818.832 36.7739L818.675 28.8985L810.982 27.2066L808.834 36.9732ZM470.843 48.1749L476.718 56.2667L470.843 48.1749ZM452.887 273.675L462.55 271.1L462.55 271.1L452.887 273.675ZM1094.19 180.173C1088.69 180.662 1084.63 185.518 1085.12 191.019C1085.61 196.521 1090.46 200.583 1095.97 200.094L1094.19 180.173ZM1379.17 213.958C1384.67 214.462 1389.53 210.411 1390.04 204.911C1390.54 199.411 1386.49 194.545 1380.99 194.042L1379.17 213.958ZM1390.04 204.935C1390.55 199.436 1386.51 194.561 1381.01 194.045C1375.51 193.529 1370.64 197.568 1370.12 203.067L1390.04 204.935ZM1074.92 438.391C1069.43 438.986 1065.46 443.92 1066.06 449.411C1066.65 454.901 1071.59 458.87 1077.08 458.274L1074.92 438.391ZM1370.48 282.56C1376 282.571 1380.49 278.103 1380.5 272.58C1380.51 267.058 1376.04 262.571 1370.52 262.56L1370.48 282.56ZM1086.46 451.944C1086.98 446.446 1082.94 441.567 1077.44 441.046C1071.95 440.525 1067.07 444.56 1066.55 450.058L1086.46 451.944ZM801.977 869.346C796.921 871.569 794.624 877.469 796.846 882.525C799.069 887.581 804.969 889.878 810.025 887.655L801.977 869.346ZM517 923.5C507.049 924.486 507.049 924.49 507.05 924.495C507.05 924.499 507.051 924.506 507.051 924.513C507.053 924.527 507.055 924.547 507.057 924.571C507.062 924.621 507.07 924.692 507.079 924.784C507.098 924.968 507.126 925.235 507.164 925.583C507.239 926.279 507.352 927.298 507.506 928.617C507.815 931.255 508.29 935.094 508.961 939.954C510.301 949.67 512.422 963.476 515.555 979.913C521.812 1012.74 532.148 1056.29 548.466 1098.78C564.724 1141.11 587.25 1183.28 618.346 1212.53C649.85 1242.16 690.209 1258.5 740.488 1248.3L736.512 1228.7C693.526 1237.42 659.564 1223.84 632.049 1197.96C604.128 1171.7 582.936 1132.75 567.136 1091.61C551.395 1050.62 541.331 1008.32 535.202 976.168C532.142 960.117 530.074 946.653 528.773 937.221C528.123 932.506 527.665 928.802 527.37 926.29C527.223 925.034 527.117 924.076 527.048 923.439C527.014 923.121 526.989 922.882 526.973 922.727C526.965 922.65 526.959 922.593 526.956 922.557C526.954 922.539 526.953 922.527 526.952 922.519C526.951 922.516 526.951 922.514 526.951 922.513C526.951 922.513 526.951 922.514 517 923.5ZM796.197 876.978C803.993 915.616 815.45 955.712 825.038 993.599C834.721 1031.86 842.562 1068.07 843.805 1100.43C845.047 1132.73 839.661 1160.03 824.022 1181.39C808.457 1202.64 781.576 1219.56 736.512 1228.7L740.488 1248.3C788.69 1238.52 820.745 1219.71 840.157 1193.2C859.494 1166.8 865.124 1134.34 863.791 1099.66C862.459 1065.03 854.133 1027.05 844.427 988.692C834.626 949.965 823.471 911.031 815.802 873.022L796.197 876.978ZM632.388 485.165C683.558 487.493 720.591 457.966 746.847 415.516C772.974 373.275 789.475 316.815 799.999 261.085C810.557 205.174 815.256 149.117 817.323 107.117C818.358 86.0965 818.736 68.5502 818.855 56.2438C818.914 50.0897 818.909 45.2434 818.888 41.9255C818.878 40.2664 818.864 38.9893 818.853 38.1216C818.847 37.6877 818.842 37.3562 818.838 37.1304C818.836 37.0175 818.835 36.9311 818.834 36.8715C818.833 36.8418 818.833 36.8187 818.832 36.8024C818.832 36.7943 818.832 36.7871 818.832 36.7831C818.832 36.7776 818.832 36.7739 808.834 36.9732C798.836 37.1724 798.836 37.1721 798.836 37.1735C798.836 37.1762 798.836 37.1793 798.836 37.1847C798.836 37.1956 798.836 37.2132 798.837 37.2375C798.838 37.2861 798.839 37.3615 798.841 37.4633C798.844 37.6668 798.849 37.9758 798.854 38.3867C798.865 39.2085 798.879 40.4382 798.889 42.0482C798.908 45.2683 798.914 50.0091 798.855 56.0508C798.739 68.1359 798.367 85.4156 797.348 106.134C795.306 147.612 790.674 202.682 780.346 257.374C769.984 312.247 754.043 365.862 729.838 404.995C705.762 443.92 674.573 467.064 633.297 465.185L632.388 485.165ZM476.718 56.2667C513.526 29.5397 561.684 19.4355 618.362 20.0242C675.026 20.6127 739.06 31.8671 806.686 46.7398L810.982 27.2066C743.116 12.281 677.404 0.636304 618.57 0.0252519C559.751 -0.585652 506.659 9.81013 464.967 40.0831L476.718 56.2667ZM464.967 40.0831C453.181 48.6409 444.707 62.1785 438.824 78.1128C432.907 94.1409 429.317 113.375 427.818 134.404C424.818 176.47 430.096 226.989 443.224 276.25L462.55 271.1C449.902 223.642 444.948 175.358 447.767 135.827C449.177 116.058 452.508 98.7954 457.586 85.0396C462.7 71.19 469.296 61.6563 476.718 56.2667L464.967 40.0831ZM443.224 276.25C456.914 327.616 479.334 378.342 510.554 416.978C541.83 455.683 582.526 482.895 632.388 485.165L633.297 465.185C590.844 463.253 555.011 440.174 526.111 404.408C497.155 368.575 475.756 320.651 462.55 271.1L443.224 276.25ZM917 152C917 164.595 904.865 177 887 177V197C913.318 197 937 178.065 937 152H917ZM887 177C869.135 177 857 164.595 857 152H837C837 178.065 860.682 197 887 197V177ZM857 152C857 139.405 869.135 127 887 127V107C860.682 107 837 125.935 837 152H857ZM887 127C904.865 127 917 139.405 917 152H937C937 125.935 913.318 107 887 107V127ZM1066 152C1066 164.595 1053.86 177 1036 177V197C1062.32 197 1086 178.065 1086 152H1066ZM1036 177C1018.14 177 1006 164.595 1006 152H986C986 178.065 1009.68 197 1036 197V177ZM1006 152C1006 139.405 1018.14 127 1036 127V107C1009.68 107 986 125.935 986 152H1006ZM1036 127C1053.86 127 1066 139.405 1066 152H1086C1086 125.935 1062.32 107 1036 107V127ZM1095.97 200.094C1170.27 193.483 1239.09 198.618 1296.2 204.741L1298.34 184.855C1240.75 178.681 1170.42 173.39 1094.19 180.173L1095.97 200.094ZM1296.2 204.741C1327.51 208.097 1356.01 211.839 1379.17 213.958L1380.99 194.042C1357.9 191.929 1330.46 188.299 1298.34 184.855L1296.2 204.741ZM1370.12 203.067C1367.71 228.757 1365.14 251.295 1362.13 271.129L1381.9 274.129C1384.99 253.779 1387.61 230.83 1390.04 204.935L1370.12 203.067ZM1362.13 271.129C1356.15 310.549 1348.54 338.598 1337.6 359.166C1326.86 379.335 1312.75 392.605 1292.85 402.228C1272.51 412.057 1245.9 418.197 1209.97 423.323C1174.04 428.448 1130.03 432.416 1074.92 438.391L1077.08 458.274C1131.63 452.36 1176.42 448.31 1212.79 443.123C1249.15 437.937 1278.31 431.47 1301.55 420.235C1325.22 408.794 1342.49 392.541 1355.25 368.564C1367.8 344.985 1375.82 314.265 1381.9 274.129L1362.13 271.129ZM1297.27 194.715C1287.27 194.72 1287.27 194.72 1287.27 194.72C1287.27 194.72 1287.27 194.72 1287.27 194.721C1287.27 194.721 1287.27 194.721 1287.27 194.721C1287.27 194.721 1287.27 194.721 1287.27 194.722C1287.27 194.722 1287.27 194.723 1287.27 194.723C1287.27 194.724 1287.27 194.725 1287.27 194.726C1287.27 194.728 1287.27 194.73 1287.27 194.733C1287.27 194.737 1287.27 194.742 1287.27 194.748C1287.27 194.759 1287.27 194.772 1287.27 194.786C1287.27 194.816 1287.27 194.852 1287.27 194.895L1307.27 194.7C1307.27 194.689 1307.27 194.683 1307.27 194.685C1307.27 194.685 1307.27 194.688 1307.27 194.692C1307.27 194.694 1307.27 194.696 1307.27 194.699C1307.27 194.701 1307.27 194.702 1307.27 194.704C1307.27 194.705 1307.27 194.706 1307.27 194.707C1307.27 194.707 1307.27 194.707 1307.27 194.708C1307.27 194.708 1307.27 194.708 1307.27 194.709C1307.27 194.709 1307.27 194.709 1307.27 194.709C1307.27 194.709 1307.27 194.709 1307.27 194.709C1307.27 194.709 1307.27 194.709 1297.27 194.715ZM1287.27 194.896C1287.29 196.84 1287.69 217.422 1298.25 238.221C1309.16 259.719 1330.84 281.041 1371.63 282.621L1372.4 262.636C1339.89 261.377 1324.21 245.179 1316.08 229.168C1307.6 212.458 1307.28 195.545 1307.27 194.7L1287.27 194.896ZM1371.63 282.621C1371.71 282.625 1371.75 282.626 1371.76 282.627C1371.77 282.627 1371.75 282.626 1371.72 282.625C1371.7 282.624 1371.67 282.622 1371.62 282.618C1371.59 282.617 1371.46 282.608 1371.28 282.59C1371.23 282.585 1371.16 282.577 1371.07 282.566C1370.98 282.556 1370.83 282.536 1370.65 282.505C1370.56 282.49 1370.36 282.453 1370.25 282.43C1370.1 282.397 1369.74 282.309 1369.53 282.25C1369.21 282.153 1368.37 281.839 1367.86 281.604C1366.9 281.064 1364.29 278.637 1363.06 276.484C1362.3 272.482 1364.54 266.326 1366.41 264.561C1367.36 263.946 1368.91 263.233 1369.46 263.054C1369.78 262.963 1370.33 262.837 1370.55 262.796C1370.7 262.769 1370.97 262.73 1371.09 262.715C1371.33 262.686 1371.52 262.672 1371.61 262.665C1371.72 262.658 1371.81 262.654 1371.87 262.651C1372.06 262.643 1372.21 262.643 1372.24 262.642C1372.29 262.642 1372.33 262.642 1372.35 262.643C1372.4 262.643 1372.43 262.644 1372.39 262.643C1372.25 262.64 1371.92 262.631 1371.57 262.619C1371.4 262.613 1371.24 262.608 1371.11 262.602C1370.95 262.596 1370.89 262.593 1370.9 262.593C1370.9 262.594 1370.93 262.595 1370.98 262.599C1371.01 262.601 1371.12 262.609 1371.28 262.626C1371.36 262.634 1371.53 262.653 1371.74 262.686C1371.85 262.703 1372.04 262.733 1372.26 262.781C1372.38 262.805 1372.54 262.84 1372.72 262.888C1372.9 262.934 1373.16 263.008 1373.47 263.117C1373.61 263.164 1373.9 263.276 1374.06 263.341C1374.25 263.424 1374.68 263.623 1374.91 263.741C1375.19 263.898 1375.82 264.291 1376.16 264.532C1376.59 264.868 1377.51 265.738 1377.98 266.286C1378.55 267.058 1379.54 268.988 1379.91 270.148C1380.15 271.524 1380.05 274.305 1379.71 275.657C1379.28 276.77 1378.18 278.598 1377.58 279.321C1377.08 279.825 1376.13 280.622 1375.69 280.928C1375.34 281.144 1374.7 281.495 1374.42 281.634C1374.19 281.738 1373.76 281.911 1373.57 281.982C1373.13 282.138 1372.77 282.233 1372.54 282.287C1372.31 282.344 1372.11 282.383 1371.96 282.409C1371.82 282.435 1371.69 282.454 1371.59 282.468C1371.4 282.494 1371.25 282.51 1371.15 282.519C1371.05 282.529 1370.97 282.535 1370.91 282.539C1370.79 282.548 1370.69 282.552 1370.64 282.554C1370.54 282.558 1370.47 282.559 1370.45 282.559C1370.41 282.56 1370.41 282.56 1370.48 282.56L1370.52 262.56C1370.41 262.56 1370.27 262.56 1370.14 262.562C1370.07 262.563 1369.96 262.565 1369.83 262.57C1369.77 262.573 1369.66 262.578 1369.53 262.587C1369.44 262.593 1369.17 262.612 1368.82 262.661C1368.66 262.683 1368.31 262.736 1367.86 262.842C1367.64 262.896 1367.28 262.992 1366.84 263.148C1366.65 263.219 1366.22 263.392 1365.99 263.496C1365.7 263.635 1365.07 263.986 1364.72 264.203C1364.28 264.508 1363.33 265.305 1362.83 265.81C1362.23 266.533 1361.13 268.362 1360.69 269.475C1360.36 270.826 1360.26 273.607 1360.5 274.983C1360.86 276.144 1361.86 278.074 1362.42 278.846C1362.9 279.394 1363.82 280.264 1364.25 280.6C1364.59 280.842 1365.22 281.235 1365.5 281.392C1366.12 281.723 1366.65 281.918 1366.93 282.017C1367.25 282.126 1367.51 282.2 1367.69 282.246C1367.88 282.294 1368.03 282.329 1368.15 282.354C1368.38 282.402 1368.57 282.433 1368.68 282.45C1368.9 282.485 1369.08 282.505 1369.16 282.513C1369.34 282.532 1369.49 282.543 1369.55 282.548C1369.63 282.553 1369.7 282.557 1369.75 282.56C1370.07 282.579 1370.56 282.596 1370.91 282.608C1371.29 282.621 1371.7 282.633 1371.94 282.638C1372 282.639 1372.09 282.641 1372.19 282.642C1372.22 282.642 1372.27 282.643 1372.33 282.642C1372.36 282.642 1372.52 282.642 1372.72 282.633C1372.78 282.631 1372.87 282.626 1372.98 282.619C1373.07 282.612 1373.26 282.598 1373.5 282.569C1373.62 282.554 1373.89 282.515 1374.04 282.488C1374.26 282.447 1374.81 282.321 1375.14 282.23C1375.68 282.051 1377.23 281.338 1378.19 280.723C1380.05 278.958 1382.29 272.802 1381.53 268.8C1380.3 266.647 1377.69 264.22 1376.73 263.679C1376.22 263.445 1375.39 263.131 1375.07 263.033C1374.86 262.975 1374.49 262.886 1374.34 262.853C1374.23 262.831 1374.03 262.794 1373.94 262.779C1373.62 262.724 1373.36 262.698 1373.3 262.692C1373.12 262.674 1372.98 262.665 1372.95 262.663C1372.89 262.659 1372.85 262.656 1372.82 262.655C1372.76 262.652 1372.7 262.649 1372.67 262.647C1372.59 262.644 1372.5 262.64 1372.4 262.636L1371.63 282.621ZM1076.5 451.001C1066.55 450.058 1066.55 450.056 1066.55 450.055C1066.55 450.056 1066.55 450.057 1066.55 450.059C1066.55 450.064 1066.54 450.074 1066.54 450.089C1066.54 450.119 1066.53 450.168 1066.53 450.236C1066.51 450.373 1066.49 450.585 1066.46 450.872C1066.4 451.446 1066.31 452.317 1066.17 453.469C1065.9 455.772 1065.46 459.197 1064.82 463.612C1063.55 472.445 1061.45 485.233 1058.19 500.929C1051.67 532.342 1040.51 575.297 1021.97 621.462C984.807 714 918.563 818.096 801.977 869.346L810.025 887.655C933.438 833.405 1002.44 723.751 1040.53 628.915C1059.62 581.393 1071.08 537.253 1077.78 504.995C1081.13 488.855 1083.29 475.663 1084.62 466.474C1085.28 461.879 1085.74 458.283 1086.03 455.818C1086.18 454.585 1086.28 453.635 1086.35 452.984C1086.38 452.659 1086.41 452.408 1086.43 452.234C1086.44 452.147 1086.44 452.079 1086.45 452.031C1086.45 452.007 1086.45 451.987 1086.45 451.973C1086.45 451.966 1086.46 451.958 1086.46 451.955C1086.46 451.949 1086.46 451.944 1076.5 451.001Z" fill="black"/>
<ellipse cx="1037" cy="150" rx="33" ry="32" fill="black"/>
<ellipse cx="885" cy="155" rx="33" ry="32" fill="black"/>
</svg>
