<?xml version="1.0" encoding="utf-8"?>
<!-- Generator: Adobe Illustrator 27.10.0, SVG Export Plug-In . SVG Version: 6.00 Build 0)  -->
<svg version="1.1" id="Capa_1" xmlns="http://www.w3.org/2000/svg" xmlns:xlink="http://www.w3.org/1999/xlink" x="0px" y="0px"
	 viewBox="0 0 1400 1400" style="enable-background:new 0 0 1400 1400;" xml:space="preserve">
<style type="text/css">
	.st0{fill:#9E5E37;stroke:#9E5E37;stroke-width:20;stroke-linecap:round;}
	.st1{fill:#3D1F12;stroke:#3D1F12;stroke-width:20;stroke-linecap:round;}
	.st2{fill:none;stroke:#000000;stroke-width:20;stroke-linecap:square;}
	.st3{fill:none;stroke:#000000;stroke-width:20;}
</style>
<path class="st0" d="M736.5,575.5c-54.26-13.91-95.5-107-95.5-107s-40.95-101.55-91.5-157c-73.53-80.65-240.5-60-240.5-60L36.5,266
	c0,0,17.48,157.36,68.5,193.5c13,17.5,227.5,45,227.5,45s50.81,220.3,117.5,304c49.02,61.52,153,131,153,131s-108.5,323.8,38,354.5
	c219.5,46,257-316.5,257-316.5l502-6.5V530.5H869.5C869.5,530.5,789.61,589.11,736.5,575.5z"/>
<path class="st1" d="M1038.6,1328.5c233.5,28,149-353.5,149-353.5H927.1C927.1,975,805.1,1300.5,1038.6,1328.5z"/>
<path class="st1" d="M745.91,564.27c177.62,1.42,301.85-292.64,177-419c-90.45-91.55-329-19-329-19S564.86,562.83,745.91,564.27z"/>
<path class="st2" d="M895.5,973.31L1400,972"/>
<path class="st2" d="M895.5,529.31L1400,529"/>
<path class="st3" d="M904,973c0.05,156.38-58.55,356.35,129.81,356.5s142.58-143.38,143.28-353.48"/>
<path d="M903.45,985.49c0.54-5.5-3.47-10.39-8.96-10.94c-5.5-0.54-10.39,3.47-10.94,8.96L903.45,985.49z M670.01,1309.3l1.99-9.8
	L670.01,1309.3z M614.3,937.98c1.09-5.41-2.41-10.69-7.82-11.78s-10.69,2.41-11.78,7.82L614.3,937.98z M777.2,526.18L777.2,526.18
	l0.45,9.99L777.2,526.18z M599.52,88.21l-7.69,1.69l-0.16,7.88l10,0.2L599.52,88.21z M933.78,117.27l5.88-8.09L933.78,117.27z
	 M947.95,332.1L947.95,332.1l9.66,2.57L947.95,332.1z M314.53,261.09c5.51,0.49,10.36-3.57,10.85-9.07
	c0.49-5.5-3.57-10.36-9.07-10.85L314.53,261.09z M29.51,255.04c-5.5,0.5-9.55,5.37-9.05,10.87c0.51,5.5,5.37,9.55,10.87,9.05
	L29.51,255.04z M40.38,264.07c-0.52-5.5-5.39-9.54-10.89-9.02c-5.5,0.52-9.54,5.39-9.03,10.89L40.38,264.07z M333.42,519.27
	c5.49,0.6,10.43-3.37,11.02-8.86c0.6-5.49-3.37-10.43-8.86-11.02L333.42,519.27z M39.98,323.56c-5.52,0.01-9.99,4.5-9.98,10.02
	c0.01,5.52,4.5,9.99,10.02,9.98L39.98,323.56z M343.95,511.06c-0.52-5.5-5.4-9.53-10.89-9.01c-5.5,0.52-9.54,5.4-9.02,10.9
	L343.95,511.06z M600.47,948.66c5.06,2.22,10.96-0.07,13.18-5.13c2.22-5.06-0.08-10.96-5.13-13.18L600.47,948.66z M883.55,983.51
	C883.55,983.51,883.55,983.52,883.55,983.51c0,0.01,0,0.03-0.01,0.04c0,0.04-0.01,0.09-0.02,0.17c-0.02,0.16-0.04,0.39-0.07,0.71
	c-0.07,0.64-0.18,1.59-0.32,2.85c-0.29,2.51-0.75,6.22-1.4,10.93c-1.3,9.43-3.37,22.9-6.43,38.95
	c-6.13,32.15-16.19,74.45-31.93,115.44c-15.8,41.14-36.99,80.09-64.91,106.35c-27.52,25.88-61.48,39.46-104.46,30.74l-3.98,19.6
	c50.28,10.2,90.64-6.14,122.14-35.77c31.1-29.25,53.62-71.42,69.88-113.75c16.32-42.49,26.65-86.04,32.91-118.87
	c3.13-16.43,5.25-30.24,6.59-39.96c0.67-4.86,1.15-8.7,1.45-11.33c0.15-1.32,0.27-2.34,0.34-3.03c0.04-0.35,0.07-0.61,0.08-0.8
	c0.01-0.09,0.02-0.16,0.02-0.21c0-0.02,0-0.04,0.01-0.06c0-0.01,0-0.01,0-0.02c0-0.01,0-0.01-9.95-0.99S883.55,983.51,883.55,983.51
	z M594.7,934.02c-7.67,38.01-18.82,76.95-28.62,115.67c-9.71,38.36-18.03,76.34-19.36,110.97c-1.33,34.68,4.3,67.14,23.63,93.54
	c19.41,26.51,51.47,45.32,99.67,55.1l3.98-19.6c-45.06-9.14-71.94-26.06-87.51-47.31c-15.64-21.36-21.03-48.66-19.78-80.96
	c1.24-32.36,9.08-68.57,18.77-106.83c9.59-37.89,21.05-77.98,28.84-116.62L594.7,934.02z M777.2,526.18
	c-41.28,1.88-72.47-21.26-96.54-60.19c-24.21-39.13-40.15-92.75-50.51-147.62c-10.33-54.69-14.96-109.76-17-151.24
	c-1.02-20.72-1.39-38-1.51-50.08c-0.06-6.04-0.05-10.78-0.03-14c0.01-1.61,0.02-2.84,0.03-3.66c0.01-0.41,0.01-0.72,0.01-0.92
	c0-0.1,0-0.18,0-0.23c0-0.02,0-0.04,0-0.05c0-0.01,0-0.01,0-0.01c0,0,0,0-10-0.2c-10-0.2-10-0.2-10-0.19c0,0,0,0.01,0,0.02
	c0,0.02,0,0.04,0,0.07c0,0.06,0,0.15,0,0.26c0,0.23-0.01,0.56-0.02,0.99c-0.01,0.87-0.02,2.14-0.03,3.8
	c-0.02,3.32-0.03,8.16,0.03,14.32c0.12,12.31,0.5,29.85,1.53,50.87c2.07,42,6.77,98.06,17.32,153.97
	c10.52,55.73,27.03,112.19,53.15,154.43c26.26,42.45,63.29,71.98,114.46,69.65L777.2,526.18z M945.53,101.08
	c-41.69-30.27-94.78-40.67-153.6-40.06c-58.83,0.61-124.55,12.26-192.41,27.18l4.3,19.53c67.63-14.87,131.66-26.13,188.32-26.72
	c56.68-0.59,104.84,9.52,141.64,36.24L945.53,101.08z M933.78,117.27c7.42,5.39,14.02,14.92,19.13,28.77
	c5.08,13.76,8.41,31.02,9.82,50.79c2.82,39.53-2.14,87.82-14.78,135.27l19.33,5.15c13.13-49.26,18.41-99.78,15.41-141.85
	c-1.5-21.03-5.09-40.26-11.01-56.29c-5.88-15.94-14.36-29.47-26.14-38.03L933.78,117.27z M947.95,332.1
	c-13.21,49.55-34.6,97.48-63.56,133.31c-28.9,35.77-64.73,58.85-107.19,60.78l0.91,19.98c49.86-2.27,90.56-29.48,121.83-68.19
	c31.22-38.64,53.64-89.36,67.33-140.73L947.95,332.1z M473.5,213c0,26.07,23.68,45,50,45v-20c-17.86,0-30-12.4-30-25H473.5z
	 M523.5,258c26.32,0,50-18.93,50-45h-20c0,12.6-12.14,25-30,25V258z M573.5,213c0-26.07-23.68-45-50-45v20c17.86,0,30,12.4,30,25
	H573.5z M523.5,168c-26.32,0-50,18.93-50,45h20c0-12.6,12.14-25,30-25V168z M324.5,213c0,26.07,23.68,45,50,45v-20
	c-17.86,0-30-12.4-30-25H324.5z M374.5,258c26.32,0,50-18.93,50-45h-20c0,12.6-12.14,25-30,25V258z M424.5,213
	c0-26.07-23.68-45-50-45v20c17.86,0,30,12.4,30,25H424.5z M374.5,168c-26.32,0-50,18.93-50,45h20c0-12.6,12.14-25,30-25V168z
	 M316.31,241.17c-76.23-6.78-146.56-1.49-204.15,4.68l2.14,19.89c57.11-6.12,125.93-11.26,200.23-4.65L316.31,241.17z
	 M112.16,245.85c-32.12,3.44-59.56,7.07-82.65,9.19l1.82,19.92c23.16-2.12,51.66-5.86,82.97-9.22L112.16,245.85z M20.46,265.93
	c2.43,25.89,5.05,48.84,8.14,69.19l19.77-3c-3.01-19.83-5.58-42.37-7.99-68.06L20.46,265.93z M28.6,335.13
	c6.08,40.14,14.1,70.86,26.65,94.43c12.76,23.98,30.03,40.23,53.7,51.67c23.24,11.24,52.4,17.7,88.76,22.89
	c36.37,5.19,81.16,9.24,135.71,15.15l2.16-19.88c-55.11-5.98-99.12-9.94-135.05-15.07c-35.93-5.13-62.54-11.27-82.88-21.1
	c-19.9-9.62-34.01-22.89-44.75-43.06c-10.94-20.57-18.55-48.62-24.53-88.04L28.6,335.13z M103.23,255.71L103.23,255.71
	L103.23,255.71C103.23,255.71,103.23,255.71,103.23,255.71C103.23,255.71,103.23,255.71,103.23,255.71
	C103.23,255.71,103.23,255.71,103.23,255.71C103.23,255.7,103.23,255.7,103.23,255.71c0-0.01,0-0.01,0-0.02c0,0,0-0.01,0-0.01
	C103.23,255.68,103.23,255.69,103.23,255.71l20,0.19c0-0.04,0-0.08,0-0.11c0-0.01,0-0.03,0-0.04c0-0.01,0-0.01,0-0.01
	c0,0,0-0.01,0-0.01c0,0,0,0,0,0v0c0,0,0,0,0,0l0,0c0,0,0,0,0,0s0,0-10-0.01C103.23,255.71,103.23,255.71,103.23,255.71z
	 M103.23,255.7c-0.01,0.85-0.33,17.76-8.81,34.47c-8.13,16.01-23.81,32.21-56.32,33.47l0.77,19.99c40.79-1.58,62.47-22.9,73.38-44.4
	c10.56-20.8,10.96-41.38,10.98-43.33L103.23,255.7z M38.1,323.64c-0.1,0-0.19,0.01-0.27,0.01c-0.03,0-0.09,0.01-0.15,0.01
	c-0.03,0-0.07,0-0.13,0.01c-0.03,0-0.17,0.01-0.35,0.03c-0.06,0.01-0.32,0.03-0.64,0.09c-0.09,0.02-0.29,0.05-0.4,0.07
	c-0.15,0.03-0.52,0.12-0.73,0.18c-0.32,0.1-1.15,0.41-1.66,0.65c-0.96,0.54-3.57,2.97-4.8,5.12c-0.76,4,1.48,10.16,3.34,11.92
	c0.96,0.62,2.51,1.33,3.05,1.51c0.33,0.09,0.88,0.22,1.1,0.26c0.15,0.03,0.42,0.07,0.54,0.08c0.24,0.03,0.43,0.04,0.52,0.05
	c0.11,0.01,0.2,0.01,0.26,0.01c0.2,0.01,0.36,0.01,0.39,0.01c0.06,0,0.11,0,0.14,0c0.1,0,0.19,0,0.25,0
	c0.24-0.01,0.65-0.02,1.03-0.03c0.35-0.01,0.84-0.03,1.16-0.05c0.05,0,0.12-0.01,0.2-0.01c0.06-0.01,0.21-0.02,0.39-0.04
	c0.08-0.01,0.26-0.03,0.48-0.06c0.11-0.02,0.3-0.05,0.53-0.1c0.12-0.02,0.27-0.06,0.46-0.11c0.18-0.05,0.44-0.12,0.76-0.23
	c0.28-0.1,0.81-0.29,1.43-0.62c0.28-0.16,0.91-0.55,1.25-0.79c0.43-0.34,1.35-1.21,1.83-1.75c0.56-0.77,1.56-2.7,1.92-3.86
	c0.24-1.38,0.14-4.16-0.19-5.51c-0.44-1.11-1.54-2.94-2.14-3.67c-0.5-0.51-1.45-1.3-1.89-1.61c-0.35-0.22-0.98-0.57-1.27-0.71
	c-0.23-0.1-0.66-0.28-0.85-0.35c-0.44-0.16-0.8-0.25-1.02-0.31c-0.45-0.11-0.8-0.16-0.96-0.18c-0.35-0.05-0.62-0.07-0.71-0.07
	c-0.13-0.01-0.24-0.01-0.3-0.02c-0.13-0.01-0.24-0.01-0.31-0.01c-0.13,0-0.27,0-0.38,0l0.04,20c0.07,0,0.07,0,0.03,0
	c-0.02,0-0.09,0-0.19-0.01c-0.05,0-0.15-0.01-0.27-0.01c-0.06,0-0.14-0.01-0.24-0.02c-0.1-0.01-0.25-0.03-0.44-0.05
	c-0.1-0.01-0.23-0.03-0.37-0.06c-0.15-0.03-0.35-0.07-0.58-0.12c-0.23-0.05-0.59-0.15-1.03-0.3c-0.19-0.07-0.62-0.24-0.85-0.35
	c-0.28-0.14-0.92-0.49-1.27-0.71c-0.44-0.31-1.39-1.1-1.89-1.61c-0.6-0.72-1.7-2.55-2.13-3.66c-0.34-1.35-0.44-4.13-0.2-5.51
	c0.37-1.16,1.36-3.09,1.93-3.86c0.47-0.55,1.39-1.42,1.82-1.75c0.34-0.24,0.97-0.63,1.25-0.79c0.23-0.12,0.66-0.32,0.85-0.4
	c0.16-0.07,0.45-0.18,0.59-0.22c0.31-0.11,0.57-0.18,0.75-0.23c0.18-0.05,0.34-0.08,0.46-0.11c0.22-0.05,0.41-0.08,0.52-0.1
	c0.21-0.03,0.38-0.05,0.46-0.06c0.16-0.02,0.27-0.02,0.3-0.03c0.05,0,0.08-0.01,0.08-0.01c0.01,0-0.05,0-0.21,0.01
	c-0.13,0.01-0.29,0.01-0.46,0.02c-0.35,0.01-0.68,0.02-0.82,0.02c-0.04,0-0.01,0,0.04,0c0.02,0,0.06,0,0.11,0
	c0.03,0,0.18,0,0.37,0.01c0.06,0,0.15,0.01,0.26,0.01c0.09,0.01,0.28,0.02,0.52,0.05c0.12,0.02,0.39,0.05,0.54,0.08
	c0.22,0.04,0.77,0.17,1.09,0.26c0.55,0.18,2.1,0.89,3.05,1.51c1.87,1.76,4.11,7.92,3.35,11.92c-1.23,2.15-3.84,4.58-4.8,5.12
	c-0.51,0.23-1.35,0.55-1.67,0.65c-0.21,0.06-0.57,0.15-0.72,0.18c-0.11,0.02-0.31,0.06-0.4,0.08c-0.18,0.03-0.33,0.05-0.42,0.06
	c-0.09,0.01-0.16,0.02-0.21,0.02c-0.18,0.02-0.31,0.03-0.34,0.03c-0.05,0-0.08,0.01-0.1,0.01c-0.03,0-0.05,0-0.04,0
	c0.01,0,0.05,0,0.13-0.01L38.1,323.64z M324.04,512.96c0,0,0.01,0.01,0.01,0.02c0,0.01,0,0.03,0,0.06c0.01,0.05,0.01,0.12,0.02,0.2
	c0.02,0.17,0.05,0.42,0.08,0.75c0.07,0.65,0.17,1.6,0.32,2.83c0.29,2.47,0.75,6.06,1.41,10.66c1.33,9.19,3.49,22.38,6.84,38.52
	c6.7,32.26,18.16,76.4,37.25,123.92c38.09,94.84,107.09,204.49,230.51,258.74l8.05-18.31C491.94,879.1,425.69,775,388.53,682.46
	c-18.54-46.16-29.7-89.12-36.22-120.53c-3.26-15.7-5.36-28.48-6.63-37.32c-0.64-4.41-1.08-7.84-1.35-10.14
	c-0.14-1.15-0.23-2.02-0.29-2.6c-0.03-0.29-0.05-0.5-0.07-0.64c0-0.07-0.01-0.12-0.01-0.15c0-0.01-0.01-0.02-0.01-0.03c0,0,0,0,0,0
	c0,0,0,0-9.95,0.95C324.04,512.94,324.04,512.95,324.04,512.96z"/>
<ellipse cx="373.5" cy="211" rx="33" ry="32"/>
<ellipse cx="525.5" cy="216" rx="33" ry="32"/>
</svg>
