<?xml version="1.0" encoding="utf-8"?>
<!-- Generator: Adobe Illustrator 27.10.0, SVG Export Plug-In . SVG Version: 6.00 Build 0)  -->
<svg version="1.1" id="Capa_1" xmlns="http://www.w3.org/2000/svg" xmlns:xlink="http://www.w3.org/1999/xlink" x="0px" y="0px"
	 viewBox="0 0 1400 1400" style="enable-background:new 0 0 1400 1400;" xml:space="preserve">
<style type="text/css">
	.st0{fill:#9E5E37;stroke:#9E5E37;stroke-width:20;stroke-linecap:round;}
	.st1{fill:#3D1F12;stroke:#3D1F12;stroke-width:20;stroke-linecap:round;}
	.st2{fill:none;stroke:#000000;stroke-width:20;stroke-linecap:square;}
	.st3{fill:none;stroke:#000000;stroke-width:20;}
</style>
<path class="st0" d="M869.5,530.5V0H429l-6.5,502c0,0-362.5,37.5-316.5,257c30.7,146.5,354.5,38,354.5,38s69.48,103.98,131,153
	c83.7,66.69,304,117.5,304,117.5s27.5,214.5,45,227.5c36.14,51.02,193.5,68.5,193.5,68.5l14.5-272.5c0,0,20.65-166.97-60-240.5
	c-55.45-50.55-157-91.5-157-91.5s-93.09-41.24-107-95.5C810.89,610.39,869.5,530.5,869.5,530.5z"/>
<path class="st1" d="M425,472.9V212.4c0,0-381.5-84.5-353.5,149S425,472.9,425,472.9z"/>
<path class="st1" d="M1273.73,806.09c0,0,72.55-238.55-19-329c-126.36-124.85-420.42-0.62-419,177
	C837.17,835.14,1273.73,806.09,1273.73,806.09z"/>
<path class="st2" d="M428,0l-1.31,504.5"/>
<path class="st2" d="M871,0l-0.31,504.5"/>
<path class="st3" d="M423.98,222.91c-210.1,0.71-353.63-45.07-353.48,143.28S270.62,495.95,427,496"/>
<path d="M416.49,516.45c5.5-0.54,9.51-5.44,8.96-10.94c-0.54-5.5-5.44-9.51-10.94-8.96L416.49,516.45z M100.5,728l-9.8,1.99
	L100.5,728z M465.98,805.3c5.41-1.09,8.92-6.37,7.82-11.78s-6.37-8.92-11.78-7.82L465.98,805.3z M863.83,622.34l9.99,0.45l0,0
	L863.83,622.34z M1302.03,798.33l0.2,10l7.88-0.16l1.69-7.69L1302.03,798.33z M1290.82,460.34l-8.09,5.88L1290.82,460.34z
	 M1065.33,442.39l2.57,9.66l0,0L1065.33,442.39z M1158.83,1083.69c-0.49-5.5-5.35-9.56-10.85-9.07c-5.5,0.49-9.56,5.34-9.07,10.85
	L1158.83,1083.69z M1125.04,1368.67c-0.5,5.5,3.55,10.36,9.05,10.87c5.5,0.5,10.37-3.55,10.87-9.05L1125.04,1368.67z
	 M1134.07,1379.54c5.5,0.51,10.37-3.53,10.89-9.03c0.52-5.5-3.52-10.37-9.02-10.89L1134.07,1379.54z M900.61,1064.42
	c-0.6-5.49-5.53-9.46-11.02-8.86c-5.49,0.59-9.46,5.53-8.86,11.02L900.61,1064.42z M1056.44,1359.98
	c-0.01,5.52,4.46,10.01,9.98,10.02s10.01-4.46,10.02-9.98L1056.44,1359.98z M887.06,1075.96c5.5,0.52,10.38-3.52,10.9-9.02
	c0.52-5.49-3.51-10.37-9.01-10.89L887.06,1075.96z M469.65,791.48c-2.22-5.06-8.12-7.35-13.18-5.13s-7.35,8.12-5.13,13.18
	L469.65,791.48z M415.5,506.5c-0.99-9.95-0.99-9.95-0.99-9.95s-0.01,0-0.02,0s-0.03,0-0.06,0.01c-0.05,0.01-0.12,0.01-0.21,0.02
	c-0.18,0.02-0.45,0.05-0.8,0.08c-0.7,0.08-1.71,0.19-3.03,0.34c-2.64,0.31-6.48,0.78-11.33,1.45c-9.72,1.34-23.53,3.46-39.96,6.59
	c-32.83,6.26-76.38,16.59-118.87,32.91c-42.33,16.26-84.5,38.78-113.75,69.88c-29.63,31.5-45.97,71.86-35.77,122.14l19.6-3.98
	c-8.72-42.99,4.86-76.95,30.74-104.46c26.26-27.92,65.21-49.11,106.35-64.91c40.99-15.74,83.29-25.8,115.44-31.93
	c16.05-3.06,29.52-5.13,38.95-6.43c4.72-0.65,8.42-1.11,10.93-1.4c1.26-0.15,2.21-0.25,2.85-0.32c0.32-0.03,0.56-0.06,0.71-0.07
	c0.08-0.01,0.13-0.01,0.17-0.02c0.02,0,0.03,0,0.04,0h0.01C416.49,516.45,416.49,516.45,415.5,506.5z M462.02,785.7
	c-38.64,7.8-78.73,19.25-116.62,28.84c-38.26,9.68-74.47,17.52-106.83,18.77c-32.3,1.24-59.6-4.14-80.96-19.78
	c-21.25-15.57-38.17-42.45-47.31-87.51L90.7,730c9.78,48.2,28.59,80.26,55.1,99.67c26.4,19.34,58.86,24.97,93.54,23.63
	c34.63-1.33,72.61-9.66,110.97-19.36c38.72-9.8,77.66-20.96,115.67-28.62L462.02,785.7z M853.84,621.89
	c-2.33,51.17,27.2,88.2,69.65,114.46c42.24,26.13,98.7,42.63,154.43,53.15c55.91,10.56,111.97,15.26,153.97,17.32
	c21.02,1.03,38.57,1.41,50.87,1.53c6.15,0.06,11,0.05,14.32,0.03c1.66-0.01,2.94-0.02,3.8-0.03c0.43-0.01,0.77-0.01,0.99-0.02
	c0.11,0,0.2,0,0.26,0c0.03,0,0.05,0,0.07,0c0.01,0,0.02,0,0.02,0c0.01,0,0.01,0-0.19-10c-0.2-10-0.2-10-0.2-10h-0.01
	c-0.01,0-0.03,0-0.05,0c-0.05,0-0.12,0-0.23,0c-0.2,0-0.51,0.01-0.92,0.01c-0.82,0.01-2.05,0.03-3.66,0.03
	c-3.22,0.02-7.96,0.03-14-0.03c-12.08-0.12-29.36-0.49-50.08-1.51c-41.48-2.04-96.55-6.67-151.24-17
	c-54.87-10.36-108.49-26.3-147.62-50.51c-38.93-24.08-62.07-55.27-60.19-96.54L853.84,621.89z M1282.73,466.22
	c26.73,36.81,36.83,84.97,36.24,141.64c-0.59,56.66-11.84,120.7-26.72,188.32l19.53,4.3c14.94-67.86,26.58-133.58,27.19-192.41
	c0.61-58.82-9.78-111.91-40.06-153.6L1282.73,466.22z M1298.92,454.47c-8.56-11.79-22.1-20.26-38.03-26.14
	c-16.03-5.92-35.26-9.51-56.29-11.01c-42.07-3-92.59,2.28-141.85,15.41l5.15,19.33c47.46-12.65,95.74-17.6,135.27-14.78
	c19.77,1.41,37.03,4.74,50.79,9.82c13.85,5.11,23.38,11.71,28.77,19.13L1298.92,454.47z M1062.75,432.72
	c-51.37,13.69-102.09,36.11-140.73,67.33c-38.7,31.28-65.92,71.97-68.19,121.83l19.98,0.91c1.93-42.45,25.01-78.29,60.78-107.19
	c35.83-28.96,83.76-50.36,133.31-63.56L1062.75,432.72z M1187,906.5c-12.6,0-25-12.14-25-30h-20c0,26.32,18.93,50,45,50V906.5z
	 M1162,876.5c0-17.86,12.4-30,25-30v-20c-26.07,0-45,23.68-45,50H1162z M1187,846.5c12.6,0,25,12.14,25,30h20
	c0-26.32-18.93-50-45-50V846.5z M1212,876.5c0,17.86-12.4,30-25,30v20c26.07,0,45-23.68,45-50H1212z M1187,1055.5
	c-12.6,0-25-12.14-25-30h-20c0,26.32,18.93,50,45,50V1055.5z M1162,1025.5c0-17.86,12.4-30,25-30v-20c-26.07,0-45,23.68-45,50H1162z
	 M1187,995.5c12.6,0,25,12.14,25,30h20c0-26.32-18.93-50-45-50V995.5z M1212,1025.5c0,17.86-12.4,30-25,30v20
	c26.07,0,45-23.68,45-50H1212z M1138.91,1085.47c6.61,74.3,1.48,143.12-4.65,200.23l19.89,2.14c6.17-57.59,11.46-127.92,4.68-204.15
	L1138.91,1085.47z M1134.26,1285.7c-3.36,31.31-7.1,59.81-9.22,82.97l19.92,1.82c2.11-23.09,5.74-50.53,9.19-82.65L1134.26,1285.7z
	 M1135.93,1359.62c-25.69-2.41-48.23-4.98-68.06-7.99l-3,19.77c20.35,3.09,43.3,5.71,69.19,8.14L1135.93,1359.62z M1067.87,1351.63
	c-39.42-5.98-67.47-13.59-88.04-24.53c-20.17-10.74-33.44-24.85-43.06-44.75c-9.83-20.34-15.97-46.95-21.1-82.88
	c-5.12-35.93-9.09-79.94-15.07-135.05l-19.88,2.16c5.91,54.55,9.96,99.34,15.15,135.71c5.19,36.36,11.65,65.52,22.89,88.76
	c11.44,23.67,27.69,40.94,51.67,53.7c23.58,12.55,54.3,20.57,94.43,26.65L1067.87,1351.63z M1144.29,1286.77
	c-0.01-10-0.01-10-0.01-10l0,0l0,0l0,0l0,0l0,0c0,0,0,0-0.01,0h-0.01c-0.01,0-0.02,0-0.04,0c-0.03,0-0.07,0-0.11,0l0.2,20
	c0.01,0,0.02,0,0.01,0c0,0,0,0-0.01,0c0,0,0,0-0.01,0l0,0l0,0l0,0l0,0l0,0l0,0C1144.29,1296.77,1144.29,1296.77,1144.29,1286.77z
	 M1144.1,1276.77c-1.94,0.02-22.53,0.42-43.33,10.98c-21.5,10.91-42.82,32.59-44.4,73.38l19.99,0.77
	c1.26-32.51,17.46-48.19,33.47-56.32c16.71-8.48,33.62-8.8,34.47-8.81L1144.1,1276.77z M1056.38,1361.13c0,0.08-0.01,0.12-0.01,0.13
	s0-0.01,0-0.04c0-0.02,0-0.05,0.01-0.1c0-0.03,0.01-0.16,0.03-0.34c0.01-0.05,0.01-0.12,0.02-0.21s0.03-0.24,0.06-0.42
	c0.02-0.09,0.05-0.29,0.08-0.4c0.03-0.15,0.12-0.51,0.18-0.72c0.1-0.32,0.41-1.16,0.65-1.67c0.54-0.96,2.97-3.57,5.12-4.8
	c4-0.76,10.16,1.48,11.92,3.35c0.61,0.95,1.33,2.5,1.51,3.05c0.09,0.32,0.22,0.87,0.26,1.09c0.03,0.15,0.07,0.42,0.08,0.54
	c0.03,0.24,0.04,0.43,0.05,0.52c0.01,0.11,0.01,0.2,0.01,0.26c0.01,0.19,0.01,0.34,0.01,0.37c0,0.05,0,0.09,0,0.11
	c0,0.05,0,0.08,0,0.04c0-0.14,0.01-0.47,0.02-0.82c0.01-0.17,0.01-0.33,0.02-0.46c0.01-0.16,0.01-0.22,0.01-0.21
	c0,0,0,0.03-0.01,0.08c0,0.03-0.01,0.14-0.03,0.3c-0.01,0.08-0.03,0.25-0.06,0.46c-0.02,0.11-0.05,0.3-0.1,0.52
	c-0.02,0.12-0.06,0.28-0.11,0.46c-0.05,0.18-0.12,0.44-0.23,0.75c-0.05,0.14-0.16,0.43-0.22,0.59c-0.08,0.19-0.28,0.62-0.4,0.85
	c-0.16,0.28-0.55,0.91-0.79,1.25c-0.34,0.43-1.21,1.35-1.75,1.82c-0.77,0.57-2.7,1.56-3.86,1.93c-1.38,0.24-4.16,0.14-5.51-0.2
	c-1.11-0.43-2.94-1.53-3.66-2.13c-0.5-0.5-1.3-1.45-1.61-1.89c-0.22-0.35-0.57-0.99-0.71-1.27c-0.1-0.23-0.28-0.66-0.35-0.85
	c-0.16-0.44-0.25-0.8-0.3-1.03c-0.06-0.23-0.1-0.43-0.12-0.58c-0.03-0.14-0.05-0.27-0.06-0.37c-0.03-0.19-0.04-0.34-0.05-0.44
	s-0.02-0.18-0.02-0.24c-0.01-0.12-0.01-0.22-0.01-0.27c0-0.1-0.01-0.17-0.01-0.19c0-0.04,0-0.04,0,0.03l20,0.04
	c0-0.11,0-0.25,0-0.38c0-0.07,0-0.18-0.01-0.31c0-0.06-0.01-0.17-0.02-0.3c-0.01-0.09-0.02-0.36-0.07-0.71
	c-0.02-0.16-0.07-0.51-0.18-0.96c-0.05-0.22-0.15-0.58-0.31-1.02c-0.07-0.19-0.24-0.62-0.35-0.85c-0.14-0.29-0.49-0.92-0.71-1.27
	c-0.3-0.44-1.1-1.39-1.61-1.89c-0.72-0.6-2.55-1.7-3.67-2.14c-1.35-0.33-4.13-0.43-5.51-0.19c-1.16,0.36-3.09,1.36-3.86,1.92
	c-0.55,0.48-1.42,1.4-1.75,1.83c-0.24,0.34-0.63,0.97-0.79,1.25c-0.33,0.62-0.53,1.15-0.62,1.43c-0.11,0.32-0.18,0.58-0.23,0.76
	c-0.05,0.19-0.08,0.34-0.11,0.46c-0.05,0.23-0.08,0.42-0.1,0.53c-0.03,0.22-0.05,0.4-0.06,0.48c-0.02,0.18-0.03,0.33-0.04,0.39
	c-0.01,0.08-0.01,0.15-0.01,0.2c-0.02,0.32-0.04,0.81-0.05,1.16c-0.01,0.38-0.02,0.79-0.03,1.03c0,0.06,0,0.15,0,0.25
	c0,0.03,0,0.08,0,0.14c0,0.03,0,0.19,0.01,0.39c0,0.06,0.01,0.15,0.01,0.26c0.01,0.09,0.02,0.28,0.05,0.52
	c0.02,0.12,0.05,0.39,0.08,0.54c0.04,0.22,0.17,0.77,0.26,1.1c0.18,0.54,0.89,2.09,1.51,3.05c1.76,1.86,7.92,4.1,11.92,3.34
	c2.15-1.23,4.58-3.84,5.12-4.8c0.23-0.51,0.55-1.34,0.65-1.66c0.06-0.21,0.15-0.58,0.18-0.73c0.02-0.11,0.06-0.31,0.07-0.4
	c0.05-0.32,0.08-0.58,0.09-0.64c0.02-0.18,0.03-0.32,0.03-0.35c0-0.06,0.01-0.1,0.01-0.13c0-0.06,0.01-0.12,0.01-0.15
	c0-0.08,0.01-0.17,0.01-0.27L1056.38,1361.13z M888,1066c0.94-9.95,0.94-9.95,0.95-9.95l0,0c-0.01,0-0.02-0.01-0.03-0.01
	c-0.03,0-0.08-0.01-0.15-0.01c-0.14-0.02-0.35-0.04-0.64-0.07c-0.57-0.06-1.45-0.15-2.6-0.29c-2.3-0.27-5.73-0.71-10.14-1.35
	c-8.83-1.27-21.62-3.37-37.32-6.63c-31.41-6.52-74.37-17.68-120.53-36.22C625,974.31,520.9,908.06,469.65,791.48l-18.31,8.05
	c54.25,123.41,163.9,192.41,258.74,230.51c47.52,19.09,91.66,30.55,123.92,37.25c16.14,3.35,29.33,5.51,38.52,6.84
	c4.59,0.66,8.19,1.12,10.66,1.41c1.23,0.15,2.18,0.25,2.83,0.32c0.33,0.03,0.58,0.06,0.75,0.08c0.09,0.01,0.16,0.01,0.2,0.02
	c0.02,0,0.04,0,0.06,0c0.01,0,0.02,0.01,0.02,0.01C887.05,1075.96,887.06,1075.96,888,1066z"/>
<ellipse cx="1189" cy="1026.5" rx="32" ry="33"/>
<ellipse cx="1184" cy="874.5" rx="32" ry="33"/>
</svg>
