<svg width="1411" height="1400" viewBox="0 0 1411 1400" fill="none" xmlns="http://www.w3.org/2000/svg">
<path d="M541.5 530.5H11V971L513 977.5C513 977.5 550.5 1340 770 1294C916.5 1263.3 808 939.5 808 939.5C808 939.5 911.982 870.018 961 808.5C1027.69 724.8 1078.5 504.5 1078.5 504.5C1078.5 504.5 1293 477 1306 459.5C1357.02 423.358 1374.5 266 1374.5 266L1102 251.5C1102 251.5 935.025 230.849 861.5 311.5C810.953 366.945 770 468.5 770 468.5C770 468.5 728.755 561.593 674.5 575.5C621.385 589.114 541.5 530.5 541.5 530.5Z" fill="#9E5E37" stroke="#9E5E37" stroke-width="20" stroke-linecap="round"/>
<path d="M483.897 975H223.397C223.397 975 138.897 1356.5 372.397 1328.5C605.898 1300.5 483.897 975 483.897 975Z" fill="#3D1F12" stroke="#3D1F12" stroke-width="20" stroke-linecap="round"/>
<path d="M817.087 126.274C817.087 126.274 578.541 53.7259 488.087 145.274C363.241 271.63 487.462 565.691 665.087 564.274C846.138 562.829 817.087 126.274 817.087 126.274Z" fill="#3D1F12" stroke="#3D1F12" stroke-width="20" stroke-linecap="round"/>
<path d="M11 972L515.498 973.314" stroke="black" stroke-width="20" stroke-linecap="square"/>
<path d="M11 529L515.497 529.314" stroke="black" stroke-width="20" stroke-linecap="square"/>
<path d="M233.909 976.024C234.614 1186.12 188.837 1329.65 377.193 1329.5C565.549 1329.35 506.953 1129.38 507 973" stroke="black" stroke-width="20"/>
<path d="M527.451 983.514C526.907 978.018 522.01 974.004 516.514 974.549C511.018 975.093 507.004 979.99 507.549 985.486L527.451 983.514ZM739 1299.5L740.988 1309.3L739 1299.5ZM816.302 934.022C815.21 928.609 809.936 925.106 804.522 926.198C799.108 927.29 795.605 932.564 796.697 937.978L816.302 934.022ZM633.343 536.175L633.797 526.185L633.797 526.185L633.343 536.175ZM809.334 97.9732L819.332 97.7739L819.175 89.8985L811.482 88.2066L809.334 97.9732ZM471.343 109.175L477.218 117.267L471.343 109.175ZM453.387 334.675L463.05 332.1L463.05 332.1L453.387 334.675ZM1094.69 241.173C1089.19 241.662 1085.13 246.518 1085.62 252.019C1086.11 257.521 1090.96 261.583 1096.47 261.094L1094.69 241.173ZM1379.67 274.958C1385.17 275.462 1390.03 271.411 1390.54 265.911C1391.04 260.411 1386.99 255.545 1381.49 255.042L1379.67 274.958ZM1390.54 265.935C1391.05 260.436 1387.01 255.561 1381.51 255.045C1376.01 254.529 1371.14 258.568 1370.62 264.067L1390.54 265.935ZM1075.42 499.391C1069.93 499.986 1065.96 504.92 1066.56 510.411C1067.15 515.901 1072.09 519.87 1077.58 519.274L1075.42 499.391ZM1370.98 343.56C1376.5 343.571 1380.99 339.103 1381 333.58C1381.01 328.058 1376.54 323.571 1371.02 323.56L1370.98 343.56ZM1086.96 512.944C1087.48 507.446 1083.44 502.567 1077.94 502.046C1072.45 501.525 1067.57 505.56 1067.05 511.058L1086.96 512.944ZM802.477 930.346C797.421 932.569 795.124 938.469 797.346 943.525C799.569 948.581 805.469 950.878 810.525 948.655L802.477 930.346ZM517.5 984.5C507.549 985.486 507.549 985.49 507.55 985.495C507.55 985.499 507.551 985.506 507.551 985.513C507.553 985.527 507.555 985.547 507.557 985.571C507.562 985.621 507.57 985.692 507.579 985.784C507.598 985.968 507.626 986.235 507.664 986.583C507.739 987.279 507.852 988.298 508.006 989.617C508.315 992.255 508.79 996.094 509.461 1000.95C510.801 1010.67 512.922 1024.48 516.055 1040.91C522.312 1073.74 532.648 1117.29 548.966 1159.78C565.224 1202.11 587.75 1244.28 618.846 1273.53C650.35 1303.16 690.709 1319.5 740.988 1309.3L737.012 1289.7C694.026 1298.42 660.064 1284.84 632.549 1258.96C604.628 1232.7 583.436 1193.75 567.636 1152.61C551.895 1111.62 541.831 1069.32 535.702 1037.17C532.642 1021.12 530.574 1007.65 529.273 998.221C528.623 993.506 528.165 989.802 527.87 987.29C527.723 986.034 527.617 985.076 527.548 984.439C527.514 984.121 527.489 983.882 527.473 983.727C527.465 983.65 527.459 983.593 527.456 983.557C527.454 983.539 527.453 983.527 527.452 983.519C527.451 983.516 527.451 983.514 527.451 983.513C527.451 983.513 527.451 983.514 517.5 984.5ZM796.697 937.978C804.493 976.616 815.95 1016.71 825.538 1054.6C835.221 1092.86 843.062 1129.07 844.305 1161.43C845.547 1193.73 840.161 1221.03 824.522 1242.39C808.957 1263.64 782.076 1280.56 737.012 1289.7L740.988 1309.3C789.19 1299.52 821.245 1280.71 840.657 1254.2C859.994 1227.8 865.624 1195.34 864.291 1160.66C862.959 1126.03 854.633 1088.05 844.927 1049.69C835.126 1010.97 823.971 972.031 816.302 934.022L796.697 937.978ZM632.888 546.165C684.058 548.493 721.091 518.966 747.347 476.516C773.474 434.275 789.975 377.815 800.499 322.085C811.057 266.174 815.756 210.117 817.823 168.117C818.858 147.097 819.236 129.55 819.355 117.244C819.414 111.09 819.409 106.243 819.388 102.925C819.378 101.266 819.364 99.9893 819.353 99.1216C819.347 98.6877 819.342 98.3562 819.338 98.1304C819.336 98.0175 819.335 97.9311 819.334 97.8715C819.333 97.8418 819.333 97.8187 819.332 97.8024C819.332 97.7943 819.332 97.7871 819.332 97.7831C819.332 97.7776 819.332 97.7739 809.334 97.9732C799.336 98.1724 799.336 98.1721 799.336 98.1735C799.336 98.1762 799.336 98.1793 799.336 98.1847C799.336 98.1956 799.336 98.2132 799.337 98.2375C799.338 98.2861 799.339 98.3615 799.341 98.4633C799.344 98.6668 799.349 98.9758 799.354 99.3867C799.365 100.209 799.379 101.438 799.389 103.048C799.408 106.268 799.414 111.009 799.355 117.051C799.239 129.136 798.867 146.416 797.848 167.134C795.806 208.612 791.174 263.682 780.846 318.374C770.484 373.247 754.543 426.862 730.338 465.995C706.262 504.92 675.073 528.064 633.797 526.185L632.888 546.165ZM477.218 117.267C514.026 90.5397 562.184 80.4355 618.862 81.0242C675.526 81.6127 739.56 92.8671 807.186 107.74L811.482 88.2066C743.616 73.281 677.904 61.6363 619.07 61.0253C560.251 60.4143 507.159 70.8101 465.467 101.083L477.218 117.267ZM465.467 101.083C453.681 109.641 445.207 123.178 439.324 139.113C433.407 155.141 429.817 174.375 428.318 195.404C425.318 237.47 430.596 287.989 443.724 337.25L463.05 332.1C450.402 284.642 445.448 236.358 448.267 196.827C449.677 177.058 453.008 159.795 458.086 146.04C463.2 132.19 469.796 122.656 477.218 117.267L465.467 101.083ZM443.724 337.25C457.414 388.616 479.834 439.342 511.054 477.978C542.33 516.683 583.026 543.895 632.888 546.165L633.797 526.185C591.344 524.253 555.511 501.174 526.611 465.408C497.655 429.575 476.256 381.651 463.05 332.1L443.724 337.25ZM917.5 213C917.5 225.595 905.365 238 887.5 238V258C913.818 258 937.5 239.065 937.5 213H917.5ZM887.5 238C869.635 238 857.5 225.595 857.5 213H837.5C837.5 239.065 861.182 258 887.5 258V238ZM857.5 213C857.5 200.405 869.635 188 887.5 188V168C861.182 168 837.5 186.935 837.5 213H857.5ZM887.5 188C905.365 188 917.5 200.405 917.5 213H937.5C937.5 186.935 913.818 168 887.5 168V188ZM1066.5 213C1066.5 225.595 1054.36 238 1036.5 238V258C1062.82 258 1086.5 239.065 1086.5 213H1066.5ZM1036.5 238C1018.64 238 1006.5 225.595 1006.5 213H986.5C986.5 239.065 1010.18 258 1036.5 258V238ZM1006.5 213C1006.5 200.405 1018.64 188 1036.5 188V168C1010.18 168 986.5 186.935 986.5 213H1006.5ZM1036.5 188C1054.36 188 1066.5 200.405 1066.5 213H1086.5C1086.5 186.935 1062.82 168 1036.5 168V188ZM1096.47 261.094C1170.77 254.483 1239.59 259.618 1296.7 265.741L1298.84 245.855C1241.25 239.681 1170.92 234.39 1094.69 241.173L1096.47 261.094ZM1296.7 265.741C1328.01 269.097 1356.51 272.839 1379.67 274.958L1381.49 255.042C1358.4 252.929 1330.96 249.299 1298.84 245.855L1296.7 265.741ZM1370.62 264.067C1368.21 289.757 1365.64 312.295 1362.63 332.129L1382.4 335.129C1385.49 314.779 1388.11 291.83 1390.54 265.935L1370.62 264.067ZM1362.63 332.129C1356.65 371.549 1349.04 399.598 1338.1 420.166C1327.36 440.335 1313.25 453.605 1293.35 463.228C1273.01 473.057 1246.4 479.197 1210.47 484.323C1174.54 489.448 1130.53 493.416 1075.42 499.391L1077.58 519.274C1132.13 513.36 1176.92 509.31 1213.29 504.123C1249.65 498.937 1278.81 492.47 1302.05 481.235C1325.72 469.794 1342.99 453.541 1355.75 429.564C1368.3 405.985 1376.32 375.265 1382.4 335.129L1362.63 332.129ZM1297.77 255.715C1287.77 255.72 1287.77 255.72 1287.77 255.72C1287.77 255.72 1287.77 255.72 1287.77 255.721C1287.77 255.721 1287.77 255.721 1287.77 255.721C1287.77 255.721 1287.77 255.721 1287.77 255.722C1287.77 255.722 1287.77 255.723 1287.77 255.723C1287.77 255.724 1287.77 255.725 1287.77 255.726C1287.77 255.728 1287.77 255.73 1287.77 255.733C1287.77 255.737 1287.77 255.742 1287.77 255.748C1287.77 255.759 1287.77 255.772 1287.77 255.786C1287.77 255.816 1287.77 255.852 1287.77 255.895L1307.77 255.7C1307.77 255.689 1307.77 255.683 1307.77 255.685C1307.77 255.685 1307.77 255.688 1307.77 255.692C1307.77 255.694 1307.77 255.696 1307.77 255.699C1307.77 255.701 1307.77 255.702 1307.77 255.704C1307.77 255.705 1307.77 255.706 1307.77 255.707C1307.77 255.707 1307.77 255.707 1307.77 255.708C1307.77 255.708 1307.77 255.708 1307.77 255.709C1307.77 255.709 1307.77 255.709 1307.77 255.709C1307.77 255.709 1307.77 255.709 1307.77 255.709C1307.77 255.709 1307.77 255.709 1297.77 255.715ZM1287.77 255.896C1287.79 257.84 1288.19 278.422 1298.75 299.221C1309.66 320.719 1331.34 342.041 1372.13 343.621L1372.9 323.636C1340.39 322.377 1324.71 306.179 1316.58 290.168C1308.1 273.458 1307.78 256.545 1307.77 255.7L1287.77 255.896ZM1372.13 343.621C1372.21 343.625 1372.25 343.626 1372.26 343.627C1372.27 343.627 1372.25 343.626 1372.22 343.625C1372.2 343.624 1372.17 343.622 1372.12 343.618C1372.09 343.617 1371.96 343.608 1371.78 343.59C1371.73 343.585 1371.66 343.577 1371.57 343.566C1371.48 343.556 1371.33 343.536 1371.15 343.505C1371.06 343.49 1370.86 343.453 1370.75 343.43C1370.6 343.397 1370.24 343.309 1370.03 343.25C1369.71 343.153 1368.87 342.839 1368.36 342.604C1367.4 342.064 1364.79 339.637 1363.56 337.484C1362.8 333.482 1365.04 327.326 1366.91 325.561C1367.86 324.946 1369.41 324.233 1369.96 324.054C1370.28 323.963 1370.83 323.837 1371.05 323.796C1371.2 323.769 1371.47 323.73 1371.59 323.715C1371.83 323.686 1372.02 323.672 1372.11 323.665C1372.22 323.658 1372.31 323.654 1372.37 323.651C1372.56 323.643 1372.71 323.643 1372.74 323.642C1372.79 323.642 1372.83 323.642 1372.85 323.643C1372.9 323.643 1372.93 323.644 1372.89 323.643C1372.75 323.64 1372.42 323.631 1372.07 323.619C1371.9 323.613 1371.74 323.608 1371.61 323.602C1371.45 323.596 1371.39 323.593 1371.4 323.593C1371.4 323.594 1371.43 323.595 1371.48 323.599C1371.51 323.601 1371.62 323.609 1371.78 323.626C1371.86 323.634 1372.03 323.653 1372.24 323.686C1372.35 323.703 1372.54 323.733 1372.76 323.781C1372.88 323.805 1373.04 323.84 1373.22 323.888C1373.4 323.934 1373.66 324.008 1373.97 324.117C1374.11 324.164 1374.4 324.276 1374.56 324.341C1374.75 324.424 1375.18 324.623 1375.41 324.741C1375.69 324.898 1376.32 325.291 1376.66 325.532C1377.09 325.868 1378.01 326.738 1378.48 327.286C1379.05 328.058 1380.04 329.988 1380.41 331.148C1380.65 332.524 1380.55 335.305 1380.21 336.657C1379.78 337.77 1378.68 339.598 1378.08 340.321C1377.58 340.825 1376.63 341.622 1376.19 341.928C1375.84 342.144 1375.2 342.495 1374.92 342.634C1374.69 342.738 1374.26 342.911 1374.07 342.982C1373.63 343.138 1373.27 343.233 1373.04 343.287C1372.81 343.344 1372.61 343.383 1372.46 343.409C1372.32 343.435 1372.19 343.454 1372.09 343.468C1371.9 343.494 1371.75 343.51 1371.65 343.519C1371.55 343.529 1371.47 343.535 1371.41 343.539C1371.29 343.548 1371.19 343.552 1371.14 343.554C1371.04 343.558 1370.97 343.559 1370.95 343.559C1370.91 343.56 1370.91 343.56 1370.98 343.56L1371.02 323.56C1370.91 323.56 1370.77 323.56 1370.64 323.562C1370.57 323.563 1370.46 323.565 1370.33 323.57C1370.27 323.573 1370.16 323.578 1370.03 323.587C1369.94 323.593 1369.67 323.612 1369.32 323.661C1369.16 323.683 1368.81 323.736 1368.36 323.842C1368.14 323.896 1367.78 323.992 1367.34 324.148C1367.15 324.219 1366.72 324.392 1366.49 324.496C1366.2 324.635 1365.57 324.986 1365.22 325.203C1364.78 325.508 1363.83 326.305 1363.33 326.81C1362.73 327.533 1361.63 329.362 1361.19 330.475C1360.86 331.826 1360.76 334.607 1361 335.983C1361.36 337.144 1362.36 339.074 1362.92 339.846C1363.4 340.394 1364.32 341.264 1364.75 341.6C1365.09 341.842 1365.72 342.235 1366 342.392C1366.62 342.723 1367.15 342.918 1367.43 343.017C1367.75 343.126 1368.01 343.2 1368.19 343.246C1368.38 343.294 1368.53 343.329 1368.65 343.354C1368.88 343.402 1369.07 343.433 1369.18 343.45C1369.4 343.485 1369.58 343.505 1369.66 343.513C1369.84 343.532 1369.99 343.543 1370.05 343.548C1370.13 343.553 1370.2 343.557 1370.25 343.56C1370.57 343.579 1371.06 343.596 1371.41 343.608C1371.79 343.621 1372.2 343.633 1372.44 343.638C1372.5 343.639 1372.59 343.641 1372.69 343.642C1372.72 343.642 1372.77 343.643 1372.83 343.642C1372.86 343.642 1373.02 343.642 1373.22 343.633C1373.28 343.631 1373.37 343.626 1373.48 343.619C1373.57 343.612 1373.76 343.598 1374 343.569C1374.12 343.554 1374.39 343.515 1374.54 343.488C1374.76 343.447 1375.31 343.321 1375.64 343.23C1376.18 343.051 1377.73 342.338 1378.69 341.723C1380.55 339.958 1382.79 333.802 1382.03 329.8C1380.8 327.647 1378.19 325.22 1377.23 324.679C1376.72 324.445 1375.89 324.131 1375.57 324.033C1375.36 323.975 1374.99 323.886 1374.84 323.853C1374.73 323.831 1374.53 323.794 1374.44 323.779C1374.12 323.724 1373.86 323.698 1373.8 323.692C1373.62 323.674 1373.48 323.665 1373.45 323.663C1373.39 323.659 1373.35 323.656 1373.32 323.655C1373.26 323.652 1373.2 323.649 1373.17 323.647C1373.09 323.644 1373 323.64 1372.9 323.636L1372.13 343.621ZM1077 512.001C1067.05 511.058 1067.05 511.056 1067.05 511.055C1067.05 511.056 1067.05 511.057 1067.05 511.059C1067.05 511.064 1067.04 511.074 1067.04 511.089C1067.04 511.119 1067.03 511.168 1067.03 511.236C1067.01 511.373 1066.99 511.585 1066.96 511.872C1066.9 512.446 1066.81 513.317 1066.67 514.469C1066.4 516.772 1065.96 520.197 1065.32 524.612C1064.05 533.445 1061.95 546.233 1058.69 561.929C1052.17 593.342 1041.01 636.297 1022.47 682.462C985.307 775 919.063 879.096 802.477 930.346L810.525 948.655C933.938 894.405 1002.94 784.751 1041.03 689.915C1060.12 642.393 1071.58 598.253 1078.28 565.995C1081.63 549.855 1083.79 536.663 1085.12 527.474C1085.78 522.879 1086.24 519.283 1086.53 516.818C1086.68 515.585 1086.78 514.635 1086.85 513.984C1086.88 513.659 1086.91 513.408 1086.93 513.234C1086.94 513.147 1086.94 513.079 1086.95 513.031C1086.95 513.007 1086.95 512.987 1086.95 512.973C1086.95 512.966 1086.96 512.958 1086.96 512.955C1086.96 512.949 1086.96 512.944 1077 512.001Z" fill="black"/>
<ellipse cx="1037.5" cy="211" rx="33" ry="32" fill="black"/>
<ellipse cx="885.5" cy="216" rx="33" ry="32" fill="black"/>
</svg>
