<?xml version="1.0" encoding="utf-8"?>
<!-- Generator: Adobe Illustrator 27.10.0, SVG Export Plug-In . SVG Version: 6.00 Build 0)  -->
<svg version="1.1" id="Capa_1" xmlns="http://www.w3.org/2000/svg" xmlns:xlink="http://www.w3.org/1999/xlink" x="0px" y="0px"
	 viewBox="0 0 1400 1400" style="enable-background:new 0 0 1400 1400;" xml:space="preserve">
<style type="text/css">
	.st0{fill:#9E5E37;stroke:#9E5E37;stroke-width:20;stroke-linecap:round;}
	.st1{fill:#3D1F12;stroke:#3D1F12;stroke-width:20;stroke-linecap:round;}
	.st2{fill:none;stroke:#000000;stroke-width:20;stroke-linecap:square;}
	.st3{fill:none;stroke:#000000;stroke-width:20;}
</style>
<path class="st0" d="M530.5,869.5l0,530.5l440.5,0l6.5-502c0,0,362.5-37.5,316.5-257c-30.7-146.5-354.5-38-354.5-38
	s-69.48-103.98-131-153c-83.7-66.69-304-117.5-304-117.5S477,118,459.5,105C423.36,53.98,266,36.5,266,36.5L251.5,309
	c0,0-20.65,166.97,60,240.5c55.45,50.55,157,91.5,157,91.5s93.09,41.24,107,95.5C589.11,789.61,530.5,869.5,530.5,869.5z"/>
<path class="st1" d="M975,927.1l0,260.5c0,0,381.5,84.5,353.5-149S975,927.1,975,927.1z"/>
<path class="st1" d="M126.27,593.91c0,0-72.55,238.55,19,329c126.36,124.85,420.42,0.62,419-177
	C562.83,564.86,126.27,593.91,126.27,593.91z"/>
<path class="st2" d="M972,1400l1.31-504.5"/>
<path class="st2" d="M529,1400l0.31-504.5"/>
<path class="st3" d="M976.02,1177.09c210.1-0.71,353.63,45.07,353.48-143.28C1329.35,845.46,1129.38,904.05,973,904"/>
<path d="M983.51,883.55c-5.5,0.54-9.51,5.44-8.96,10.94c0.54,5.5,5.44,9.51,10.94,8.96L983.51,883.55z M1299.5,672l9.8-1.99
	L1299.5,672z M934.02,594.7c-5.41,1.09-8.92,6.37-7.82,11.78c1.1,5.41,6.37,8.92,11.78,7.82L934.02,594.7z M536.17,777.66
	l-9.99-0.45l0,0L536.17,777.66z M97.97,601.67l-0.2-10l-7.88,0.16l-1.69,7.69L97.97,601.67z M109.18,939.66l8.09-5.88L109.18,939.66
	z M334.67,957.61l-2.57-9.66l0,0L334.67,957.61z M241.17,316.31c0.49,5.5,5.35,9.56,10.85,9.07c5.5-0.49,9.56-5.34,9.07-10.85
	L241.17,316.31z M274.96,31.33c0.5-5.5-3.55-10.36-9.05-10.87c-5.5-0.5-10.37,3.55-10.87,9.05L274.96,31.33z M265.93,20.46
	c-5.5-0.51-10.37,3.53-10.89,9.03s3.52,10.37,9.02,10.89L265.93,20.46z M499.39,335.58c0.6,5.49,5.53,9.46,11.02,8.86
	c5.49-0.59,9.46-5.53,8.86-11.02L499.39,335.58z M343.56,40.02c0.01-5.52-4.46-10.01-9.98-10.02c-5.52-0.01-10.01,4.46-10.02,9.98
	L343.56,40.02z M512.94,324.04c-5.5-0.52-10.38,3.52-10.9,9.02c-0.52,5.49,3.51,10.37,9.01,10.89L512.94,324.04z M930.35,608.52
	c2.22,5.06,8.12,7.35,13.18,5.13s7.35-8.12,5.13-13.18L930.35,608.52z M984.5,893.5c0.99,9.95,0.99,9.95,0.99,9.95s0.01,0,0.02,0
	s0.03,0,0.06-0.01c0.05-0.01,0.12-0.01,0.21-0.02c0.18-0.02,0.45-0.05,0.8-0.08c0.7-0.08,1.71-0.19,3.03-0.34
	c2.64-0.31,6.48-0.78,11.33-1.45c9.72-1.34,23.53-3.46,39.96-6.59c32.83-6.26,76.38-16.59,118.87-32.91
	c42.33-16.26,84.5-38.78,113.75-69.88c29.63-31.5,45.97-71.86,35.77-122.14l-19.6,3.98c8.72,42.99-4.86,76.95-30.74,104.46
	c-26.26,27.92-65.21,49.11-106.35,64.91c-40.99,15.74-83.29,25.8-115.44,31.93c-16.05,3.06-29.52,5.13-38.95,6.43
	c-4.72,0.65-8.42,1.11-10.93,1.4c-1.26,0.15-2.21,0.25-2.85,0.32c-0.32,0.03-0.56,0.06-0.71,0.07c-0.08,0.01-0.13,0.01-0.17,0.02
	c-0.02,0-0.03,0-0.04,0h-0.01C983.51,883.55,983.51,883.55,984.5,893.5z M937.98,614.3c38.64-7.8,78.73-19.25,116.62-28.84
	c38.26-9.68,74.47-17.52,106.83-18.77c32.3-1.24,59.6,4.14,80.96,19.78c21.25,15.57,38.17,42.45,47.31,87.51l19.6-3.98
	c-9.78-48.2-28.59-80.26-55.1-99.67c-26.4-19.34-58.86-24.97-93.54-23.63c-34.63,1.33-72.61,9.66-110.97,19.36
	c-38.72,9.8-77.66,20.96-115.67,28.62L937.98,614.3z M546.16,778.11c2.33-51.17-27.2-88.2-69.65-114.46
	c-42.24-26.13-98.7-42.63-154.43-53.15c-55.91-10.56-111.97-15.26-153.97-17.32c-21.02-1.03-38.57-1.41-50.87-1.53
	c-6.15-0.06-11-0.05-14.32-0.03c-1.66,0.01-2.94,0.02-3.8,0.03c-0.43,0.01-0.77,0.01-0.99,0.02c-0.11,0-0.2,0-0.26,0
	c-0.03,0-0.05,0-0.07,0c-0.01,0-0.02,0-0.02,0c-0.01,0-0.01,0,0.19,10s0.2,10,0.2,10h0.01c0.01,0,0.03,0,0.05,0
	c0.05,0,0.12,0,0.23,0c0.2,0,0.51-0.01,0.92-0.01c0.82-0.01,2.05-0.03,3.66-0.03c3.22-0.02,7.96-0.03,14,0.03
	c12.08,0.12,29.36,0.49,50.08,1.51c41.48,2.04,96.55,6.67,151.24,17c54.87,10.36,108.49,26.3,147.62,50.51
	c38.93,24.08,62.07,55.27,60.19,96.54L546.16,778.11z M117.27,933.78c-26.73-36.81-36.83-84.97-36.24-141.64
	c0.59-56.66,11.84-120.7,26.72-188.32l-19.53-4.3C73.28,667.38,61.64,733.1,61.03,791.93c-0.61,58.82,9.78,111.91,40.06,153.6
	L117.27,933.78z M101.08,945.53c8.56,11.79,22.1,20.26,38.03,26.14c16.03,5.92,35.26,9.51,56.29,11.01
	c42.07,3,92.59-2.28,141.85-15.41l-5.15-19.33c-47.46,12.65-95.74,17.6-135.27,14.78c-19.77-1.41-37.03-4.74-50.79-9.82
	c-13.85-5.11-23.38-11.71-28.77-19.13L101.08,945.53z M337.25,967.28c51.37-13.69,102.09-36.11,140.73-67.33
	c38.7-31.28,65.92-71.97,68.19-121.83l-19.98-0.91c-1.93,42.45-25.01,78.29-60.78,107.19c-35.83,28.96-83.76,50.36-133.31,63.56
	L337.25,967.28z M213,493.5c12.6,0,25,12.14,25,30h20c0-26.32-18.93-50-45-50L213,493.5z M238,523.5c0,17.86-12.4,30-25,30v20
	c26.07,0,45-23.68,45-50H238z M213,553.5c-12.6,0-25-12.14-25-30h-20c0,26.32,18.93,50,45,50V553.5z M188,523.5
	c0-17.86,12.4-30,25-30l0-20c-26.07,0-45,23.68-45,50H188z M213,344.5c12.6,0,25,12.14,25,30h20c0-26.32-18.93-50-45-50V344.5z
	 M238,374.5c0,17.86-12.4,30-25,30v20c26.07,0,45-23.68,45-50H238z M213,404.5c-12.6,0-25-12.14-25-30l-20,0c0,26.32,18.93,50,45,50
	V404.5z M188,374.5c0-17.86,12.4-30,25-30v-20c-26.07,0-45,23.68-45,50L188,374.5z M261.09,314.53
	c-6.61-74.3-1.48-143.12,4.65-200.23l-19.89-2.14c-6.17,57.59-11.46,127.92-4.68,204.15L261.09,314.53z M265.74,114.3
	c3.36-31.31,7.1-59.81,9.22-82.97l-19.92-1.82c-2.11,23.09-5.74,50.53-9.19,82.65L265.74,114.3z M264.07,40.38
	c25.69,2.41,48.23,4.98,68.06,7.99l3-19.77c-20.35-3.09-43.3-5.71-69.19-8.14L264.07,40.38z M332.13,48.37
	c39.42,5.98,67.47,13.59,88.04,24.53c20.17,10.74,33.44,24.85,43.06,44.75c9.83,20.34,15.97,46.95,21.1,82.88
	c5.12,35.93,9.09,79.94,15.07,135.05l19.88-2.16c-5.91-54.55-9.96-99.34-15.15-135.71c-5.19-36.36-11.65-65.52-22.89-88.76
	c-11.44-23.67-27.69-40.94-51.67-53.7c-23.58-12.55-54.3-20.57-94.43-26.65L332.13,48.37z M255.71,113.23c0.01,10,0.01,10,0.01,10
	l0,0l0,0l0,0l0,0l0,0c0,0,0,0,0.01,0h0.01c0.01,0,0.02,0,0.04,0c0.03,0,0.07,0,0.11,0l-0.2-20c-0.01,0-0.02,0-0.01,0c0,0,0,0,0.01,0
	c0,0,0,0,0.01,0l0,0l0,0l0,0l0,0l0,0l0,0C255.71,103.23,255.71,103.23,255.71,113.23z M255.9,123.23
	c1.94-0.02,22.53-0.42,43.33-10.98c21.5-10.91,42.82-32.59,44.4-73.38l-19.99-0.77c-1.26,32.51-17.46,48.19-33.47,56.32
	c-16.71,8.48-33.62,8.8-34.47,8.81L255.9,123.23z M343.62,38.87c0-0.08,0.01-0.12,0.01-0.13s0,0.01,0,0.04c0,0.02,0,0.05-0.01,0.1
	c0,0.03-0.01,0.16-0.03,0.34c-0.01,0.05-0.01,0.12-0.02,0.21c-0.01,0.09-0.03,0.24-0.06,0.42c-0.02,0.09-0.05,0.29-0.08,0.4
	c-0.03,0.15-0.12,0.51-0.18,0.72c-0.1,0.32-0.41,1.16-0.65,1.67c-0.54,0.96-2.97,3.57-5.12,4.8c-4,0.76-10.16-1.48-11.92-3.35
	c-0.61-0.95-1.33-2.5-1.51-3.05c-0.09-0.32-0.22-0.87-0.26-1.09c-0.03-0.15-0.07-0.42-0.08-0.54c-0.03-0.24-0.04-0.43-0.05-0.52
	c-0.01-0.11-0.01-0.2-0.01-0.26c-0.01-0.19-0.01-0.34-0.01-0.37c0-0.05,0-0.09,0-0.11c0-0.05,0-0.08,0-0.04
	c0,0.14-0.01,0.47-0.02,0.82c-0.01,0.17-0.01,0.33-0.02,0.46c-0.01,0.16-0.01,0.22-0.01,0.21c0,0,0-0.03,0.01-0.08
	c0-0.03,0.01-0.14,0.03-0.3c0.01-0.08,0.03-0.25,0.06-0.46c0.02-0.11,0.05-0.3,0.1-0.52c0.02-0.12,0.06-0.28,0.11-0.46
	c0.05-0.18,0.12-0.44,0.23-0.75c0.05-0.14,0.16-0.43,0.22-0.59c0.08-0.19,0.28-0.62,0.4-0.85c0.16-0.28,0.55-0.91,0.79-1.25
	c0.34-0.43,1.21-1.35,1.75-1.82c0.77-0.57,2.7-1.56,3.86-1.93c1.38-0.24,4.16-0.14,5.51,0.2c1.11,0.43,2.94,1.53,3.66,2.13
	c0.5,0.5,1.3,1.45,1.61,1.89c0.22,0.35,0.57,0.99,0.71,1.27c0.1,0.23,0.28,0.66,0.35,0.85c0.16,0.44,0.25,0.8,0.3,1.03
	c0.06,0.23,0.1,0.43,0.12,0.58c0.03,0.14,0.05,0.27,0.06,0.37c0.03,0.19,0.04,0.34,0.05,0.44c0.01,0.1,0.02,0.18,0.02,0.24
	c0.01,0.12,0.01,0.22,0.01,0.27c0,0.1,0.01,0.17,0.01,0.19c0,0.04,0,0.04,0-0.03l-20-0.04c0,0.11,0,0.25,0,0.38
	c0,0.07,0,0.18,0.01,0.31c0,0.06,0.01,0.17,0.02,0.3c0.01,0.09,0.02,0.36,0.07,0.71c0.02,0.16,0.07,0.51,0.18,0.96
	c0.05,0.22,0.15,0.58,0.31,1.02c0.07,0.19,0.24,0.62,0.35,0.85c0.14,0.29,0.49,0.92,0.71,1.27c0.3,0.44,1.1,1.39,1.61,1.89
	c0.72,0.6,2.55,1.7,3.67,2.14c1.35,0.33,4.13,0.43,5.51,0.19c1.16-0.36,3.09-1.36,3.86-1.92c0.55-0.48,1.42-1.4,1.75-1.83
	c0.24-0.34,0.63-0.97,0.79-1.25c0.33-0.62,0.53-1.15,0.62-1.43c0.11-0.32,0.18-0.58,0.23-0.76c0.05-0.19,0.08-0.34,0.11-0.46
	c0.05-0.23,0.08-0.42,0.1-0.53c0.03-0.22,0.05-0.4,0.06-0.48c0.02-0.18,0.03-0.33,0.04-0.39c0.01-0.08,0.01-0.15,0.01-0.2
	c0.02-0.32,0.04-0.81,0.05-1.16c0.01-0.38,0.02-0.79,0.03-1.03c0-0.06,0-0.15,0-0.25c0-0.03,0-0.08,0-0.14c0-0.03,0-0.19-0.01-0.39
	c0-0.06-0.01-0.15-0.01-0.26c-0.01-0.09-0.02-0.28-0.05-0.52c-0.02-0.12-0.05-0.39-0.08-0.54c-0.04-0.22-0.17-0.77-0.26-1.1
	c-0.18-0.54-0.89-2.09-1.51-3.05c-1.76-1.86-7.92-4.1-11.92-3.34c-2.15,1.23-4.58,3.84-5.12,4.8c-0.23,0.51-0.55,1.34-0.65,1.66
	c-0.06,0.21-0.15,0.58-0.18,0.73c-0.02,0.11-0.06,0.31-0.07,0.4c-0.05,0.32-0.08,0.58-0.09,0.64c-0.02,0.18-0.03,0.32-0.03,0.35
	c0,0.06-0.01,0.1-0.01,0.13c0,0.06-0.01,0.12-0.01,0.15c0,0.08-0.01,0.17-0.01,0.27L343.62,38.87z M512,334
	c-0.94,9.95-0.94,9.95-0.95,9.95l0,0c0.01,0,0.02,0.01,0.03,0.01c0.03,0,0.08,0.01,0.15,0.01c0.14,0.02,0.35,0.04,0.64,0.07
	c0.57,0.06,1.45,0.15,2.6,0.29c2.3,0.27,5.73,0.71,10.14,1.35c8.83,1.27,21.62,3.37,37.32,6.63c31.41,6.52,74.37,17.68,120.53,36.22
	C775,425.69,879.1,491.94,930.35,608.52l18.31-8.05c-54.25-123.41-163.9-192.41-258.74-230.51
	c-47.52-19.09-91.66-30.55-123.92-37.25c-16.14-3.35-29.33-5.51-38.52-6.84c-4.59-0.66-8.19-1.12-10.66-1.41
	c-1.23-0.15-2.18-0.25-2.83-0.32c-0.33-0.03-0.58-0.06-0.75-0.08c-0.09-0.01-0.16-0.01-0.2-0.02c-0.02,0-0.04,0-0.06,0
	c-0.01,0-0.02-0.01-0.02-0.01C512.95,324.04,512.94,324.04,512,334z"/>
<ellipse cx="211" cy="373.5" rx="32" ry="33"/>
<ellipse cx="216" cy="525.5" rx="32" ry="33"/>
</svg>
