<?xml version="1.0" encoding="utf-8"?>
<!-- Generator: Adobe Illustrator 27.10.0, SVG Export Plug-In . SVG Version: 6.00 Build 0)  -->
<svg version="1.1" id="Capa_1" xmlns="http://www.w3.org/2000/svg" xmlns:xlink="http://www.w3.org/1999/xlink" x="0px" y="0px"
	 viewBox="0 0 1400 1400" style="enable-background:new 0 0 1400 1400;" xml:space="preserve">
<style type="text/css">
	.st0{fill:#9E5E37;stroke:#9E5E37;stroke-width:20;stroke-linecap:round;}
	.st1{fill:#3D1F12;stroke:#3D1F12;stroke-width:20;stroke-linecap:round;}
	.st2{fill:none;stroke:#000000;stroke-width:20;stroke-linecap:square;}
	.st3{fill:none;stroke:#000000;stroke-width:20;}
</style>
<path class="st0" d="M530.5,530.5H0V971l502,6.5c0,0,37.5,362.5,257,316.5c146.5-30.7,38-354.5,38-354.5s103.98-69.48,153-131
	c66.69-83.7,117.5-304,117.5-304s214.5-27.5,227.5-45c51.02-36.14,68.5-193.5,68.5-193.5L1091,251.5c0,0-166.97-20.65-240.5,60
	c-50.55,55.45-91.5,157-91.5,157s-41.24,93.09-95.5,107C610.39,589.11,530.5,530.5,530.5,530.5z"/>
<path class="st1" d="M472.9,975H212.4c0,0-84.5,381.5,149,353.5C594.9,1300.5,472.9,975,472.9,975z"/>
<path class="st1" d="M806.09,126.27c0,0-238.55-72.55-329,19c-124.85,126.36-0.62,420.42,177,419
	C835.14,562.83,806.09,126.27,806.09,126.27z"/>
<path class="st2" d="M0,972l504.5,1.31"/>
<path class="st2" d="M0,529l504.5,0.31"/>
<path class="st3" d="M222.91,976.02c0.71,210.1-45.07,353.63,143.28,353.48S495.95,1129.38,496,973"/>
<path d="M516.45,983.51c-0.54-5.5-5.44-9.51-10.94-8.96c-5.5,0.54-9.51,5.44-8.96,10.94L516.45,983.51z M728,1299.5l1.99,9.8
	L728,1299.5z M805.3,934.02c-1.09-5.41-6.37-8.92-11.78-7.82s-8.92,6.37-7.82,11.78L805.3,934.02z M622.34,536.17l0.45-9.99l0,0
	L622.34,536.17z M798.33,97.97l10-0.2l-0.16-7.88l-7.69-1.69L798.33,97.97z M460.34,109.18l5.88,8.09L460.34,109.18z M442.39,334.67
	l9.66-2.57l0,0L442.39,334.67z M1083.69,241.17c-5.5,0.49-9.56,5.35-9.07,10.85c0.49,5.5,5.34,9.56,10.85,9.07L1083.69,241.17z
	 M1368.67,274.96c5.5,0.5,10.36-3.55,10.87-9.05c0.5-5.5-3.55-10.37-9.05-10.87L1368.67,274.96z M1379.54,265.93
	c0.51-5.5-3.53-10.37-9.03-10.89c-5.5-0.52-10.37,3.52-10.89,9.02L1379.54,265.93z M1064.42,499.39c-5.49,0.6-9.46,5.53-8.86,11.02
	c0.59,5.49,5.53,9.46,11.02,8.86L1064.42,499.39z M1359.98,343.56c5.52,0.01,10.01-4.46,10.02-9.98c0.01-5.52-4.46-10.01-9.98-10.02
	L1359.98,343.56z M1075.96,512.94c0.52-5.5-3.52-10.38-9.02-10.9c-5.49-0.52-10.37,3.51-10.89,9.01L1075.96,512.94z M791.48,930.35
	c-5.06,2.22-7.35,8.12-5.13,13.18c2.22,5.06,8.12,7.35,13.18,5.13L791.48,930.35z M506.5,984.5c-9.95,0.99-9.95,0.99-9.95,0.99
	c0,0,0,0.01,0,0.02c0,0.01,0,0.03,0.01,0.06c0.01,0.05,0.01,0.12,0.02,0.21c0.02,0.18,0.05,0.45,0.08,0.8
	c0.08,0.7,0.19,1.71,0.34,3.03c0.31,2.64,0.78,6.48,1.45,11.33c1.34,9.72,3.46,23.53,6.59,39.96
	c6.26,32.83,16.59,76.38,32.91,118.87c16.26,42.33,38.78,84.5,69.88,113.75c31.5,29.63,71.86,45.97,122.14,35.77l-3.98-19.6
	c-42.99,8.72-76.95-4.86-104.46-30.74c-27.92-26.26-49.11-65.21-64.91-106.35c-15.74-40.99-25.8-83.29-31.93-115.44
	c-3.06-16.05-5.13-29.52-6.43-38.95c-0.65-4.72-1.11-8.42-1.4-10.93c-0.15-1.26-0.25-2.21-0.32-2.85c-0.03-0.32-0.06-0.56-0.07-0.71
	c-0.01-0.08-0.01-0.13-0.02-0.17c0-0.02,0-0.03,0-0.04c0,0,0-0.01,0-0.01C516.45,983.51,516.45,983.51,506.5,984.5z M785.7,937.98
	c7.8,38.64,19.25,78.73,28.84,116.62c9.68,38.26,17.52,74.47,18.77,106.83c1.24,32.3-4.14,59.6-19.78,80.96
	c-15.57,21.25-42.45,38.17-87.51,47.31l3.98,19.6c48.2-9.78,80.26-28.59,99.67-55.1c19.34-26.4,24.97-58.86,23.63-93.54
	c-1.33-34.63-9.66-72.61-19.36-110.97c-9.8-38.72-20.96-77.66-28.62-115.67L785.7,937.98z M621.89,546.16
	c51.17,2.33,88.2-27.2,114.46-69.65c26.13-42.24,42.63-98.7,53.15-154.43c10.56-55.91,15.26-111.97,17.32-153.97
	c1.03-21.02,1.41-38.57,1.53-50.87c0.06-6.15,0.05-11,0.03-14.32c-0.01-1.66-0.02-2.94-0.03-3.8c-0.01-0.43-0.01-0.77-0.02-0.99
	c0-0.11,0-0.2,0-0.26c0-0.03,0-0.05,0-0.07c0-0.01,0-0.02,0-0.02c0-0.01,0-0.01-10,0.19c-10,0.2-10,0.2-10,0.2c0,0,0,0.01,0,0.01
	c0,0.01,0,0.03,0,0.05c0,0.05,0,0.12,0,0.23c0,0.2,0.01,0.51,0.01,0.92c0.01,0.82,0.03,2.05,0.03,3.66c0.02,3.22,0.03,7.96-0.03,14
	c-0.12,12.08-0.49,29.36-1.51,50.08c-2.04,41.48-6.67,96.55-17,151.24c-10.36,54.87-26.3,108.49-50.51,147.62
	c-24.08,38.93-55.27,62.07-96.54,60.19L621.89,546.16z M466.22,117.27c36.81-26.73,84.97-36.83,141.64-36.24
	c56.66,0.59,120.7,11.84,188.32,26.72l4.3-19.53C732.62,73.28,666.9,61.64,608.07,61.03c-58.82-0.61-111.91,9.78-153.6,40.06
	L466.22,117.27z M454.47,101.08c-11.79,8.56-20.26,22.1-26.14,38.03c-5.92,16.03-9.51,35.26-11.01,56.29
	c-3,42.07,2.28,92.59,15.41,141.85l19.33-5.15c-12.65-47.46-17.6-95.74-14.78-135.27c1.41-19.77,4.74-37.03,9.82-50.79
	c5.11-13.85,11.71-23.38,19.13-28.77L454.47,101.08z M432.72,337.25c13.69,51.37,36.11,102.09,67.33,140.73
	c31.28,38.7,71.97,65.92,121.83,68.19l0.91-19.98c-42.45-1.93-78.29-25.01-107.19-60.78c-28.96-35.83-50.36-83.76-63.56-133.31
	L432.72,337.25z M906.5,213c0,12.6-12.14,25-30,25v20c26.32,0,50-18.93,50-45H906.5z M876.5,238c-17.86,0-30-12.4-30-25h-20
	c0,26.07,23.68,45,50,45V238z M846.5,213c0-12.6,12.14-25,30-25v-20c-26.32,0-50,18.93-50,45H846.5z M876.5,188
	c17.86,0,30,12.4,30,25h20c0-26.07-23.68-45-50-45V188z M1055.5,213c0,12.6-12.14,25-30,25v20c26.32,0,50-18.93,50-45H1055.5z
	 M1025.5,238c-17.86,0-30-12.4-30-25h-20c0,26.07,23.68,45,50,45V238z M995.5,213c0-12.6,12.14-25,30-25v-20
	c-26.32,0-50,18.93-50,45H995.5z M1025.5,188c17.86,0,30,12.4,30,25h20c0-26.07-23.68-45-50-45V188z M1085.47,261.09
	c74.3-6.61,143.12-1.48,200.23,4.65l2.14-19.89c-57.59-6.17-127.92-11.46-204.15-4.68L1085.47,261.09z M1285.7,265.74
	c31.31,3.36,59.81,7.1,82.97,9.22l1.82-19.92c-23.09-2.11-50.53-5.74-82.65-9.19L1285.7,265.74z M1359.62,264.07
	c-2.41,25.69-4.98,48.23-7.99,68.06l19.77,3c3.09-20.35,5.71-43.3,8.14-69.19L1359.62,264.07z M1351.63,332.13
	c-5.98,39.42-13.59,67.47-24.53,88.04c-10.74,20.17-24.85,33.44-44.75,43.06c-20.34,9.83-46.95,15.97-82.88,21.1
	c-35.93,5.12-79.94,9.09-135.05,15.07l2.16,19.88c54.55-5.91,99.34-9.96,135.71-15.15c36.36-5.19,65.52-11.65,88.76-22.89
	c23.67-11.44,40.94-27.69,53.7-51.67c12.55-23.58,20.57-54.3,26.65-94.43L1351.63,332.13z M1286.77,255.71c-10,0.01-10,0.01-10,0.01
	s0,0,0,0l0,0c0,0,0,0,0,0v0c0,0,0,0,0,0c0,0,0,0,0,0.01c0,0,0,0.01,0,0.01c0,0.01,0,0.02,0,0.04c0,0.03,0,0.07,0,0.11l20-0.2
	c0-0.01,0-0.02,0-0.01c0,0,0,0,0,0.01c0,0,0,0,0,0.01c0,0,0,0,0,0c0,0,0,0,0,0c0,0,0,0,0,0c0,0,0,0,0,0l0,0l0,0
	C1296.77,255.71,1296.77,255.71,1286.77,255.71z M1276.77,255.9c0.02,1.94,0.42,22.53,10.98,43.33
	c10.91,21.5,32.59,42.82,73.38,44.4l0.77-19.99c-32.51-1.26-48.19-17.46-56.32-33.47c-8.48-16.71-8.8-33.62-8.81-34.47
	L1276.77,255.9z M1361.13,343.62c0.08,0,0.12,0.01,0.13,0.01c0.01,0-0.01,0-0.04,0c-0.02,0-0.05,0-0.1-0.01
	c-0.03,0-0.16-0.01-0.34-0.03c-0.05-0.01-0.12-0.01-0.21-0.02c-0.09-0.01-0.24-0.03-0.42-0.06c-0.09-0.02-0.29-0.05-0.4-0.08
	c-0.15-0.03-0.51-0.12-0.72-0.18c-0.32-0.1-1.16-0.41-1.67-0.65c-0.96-0.54-3.57-2.97-4.8-5.12c-0.76-4,1.48-10.16,3.35-11.92
	c0.95-0.61,2.5-1.33,3.05-1.51c0.32-0.09,0.87-0.22,1.09-0.26c0.15-0.03,0.42-0.07,0.54-0.08c0.24-0.03,0.43-0.04,0.52-0.05
	c0.11-0.01,0.2-0.01,0.26-0.01c0.19-0.01,0.34-0.01,0.37-0.01c0.05,0,0.09,0,0.11,0c0.05,0,0.08,0,0.04,0
	c-0.14,0-0.47-0.01-0.82-0.02c-0.17-0.01-0.33-0.01-0.46-0.02c-0.16-0.01-0.22-0.01-0.21-0.01c0,0,0.03,0,0.08,0.01
	c0.03,0,0.14,0.01,0.3,0.03c0.08,0.01,0.25,0.03,0.46,0.06c0.11,0.02,0.3,0.05,0.52,0.1c0.12,0.02,0.28,0.06,0.46,0.11
	c0.18,0.05,0.44,0.12,0.75,0.23c0.14,0.05,0.43,0.16,0.59,0.22c0.19,0.08,0.62,0.28,0.85,0.4c0.28,0.16,0.91,0.55,1.25,0.79
	c0.43,0.34,1.35,1.21,1.82,1.75c0.57,0.77,1.56,2.7,1.93,3.86c0.24,1.38,0.14,4.16-0.2,5.51c-0.43,1.11-1.53,2.94-2.13,3.66
	c-0.5,0.5-1.45,1.3-1.89,1.61c-0.35,0.22-0.99,0.57-1.27,0.71c-0.23,0.1-0.66,0.28-0.85,0.35c-0.44,0.16-0.8,0.25-1.03,0.3
	c-0.23,0.06-0.43,0.1-0.58,0.12c-0.14,0.03-0.27,0.05-0.37,0.06c-0.19,0.03-0.34,0.04-0.44,0.05c-0.1,0.01-0.18,0.02-0.24,0.02
	c-0.12,0.01-0.22,0.01-0.27,0.01c-0.1,0-0.17,0.01-0.19,0.01c-0.04,0-0.04,0,0.03,0l0.04-20c-0.11,0-0.25,0-0.38,0
	c-0.07,0-0.18,0-0.31,0.01c-0.06,0-0.17,0.01-0.3,0.02c-0.09,0.01-0.36,0.02-0.71,0.07c-0.16,0.02-0.51,0.07-0.96,0.18
	c-0.22,0.05-0.58,0.15-1.02,0.31c-0.19,0.07-0.62,0.24-0.85,0.35c-0.29,0.14-0.92,0.49-1.27,0.71c-0.44,0.3-1.39,1.1-1.89,1.61
	c-0.6,0.72-1.7,2.55-2.14,3.67c-0.33,1.35-0.43,4.13-0.19,5.51c0.36,1.16,1.36,3.09,1.92,3.86c0.48,0.55,1.4,1.42,1.83,1.75
	c0.34,0.24,0.97,0.63,1.25,0.79c0.62,0.33,1.15,0.53,1.43,0.62c0.32,0.11,0.58,0.18,0.76,0.23c0.19,0.05,0.34,0.08,0.46,0.11
	c0.23,0.05,0.42,0.08,0.53,0.1c0.22,0.03,0.4,0.05,0.48,0.06c0.18,0.02,0.33,0.03,0.39,0.04c0.08,0.01,0.15,0.01,0.2,0.01
	c0.32,0.02,0.81,0.04,1.16,0.05c0.38,0.01,0.79,0.02,1.03,0.03c0.06,0,0.15,0,0.25,0c0.03,0,0.08,0,0.14,0c0.03,0,0.19,0,0.39-0.01
	c0.06,0,0.15-0.01,0.26-0.01c0.09-0.01,0.28-0.02,0.52-0.05c0.12-0.02,0.39-0.05,0.54-0.08c0.22-0.04,0.77-0.17,1.1-0.26
	c0.54-0.18,2.09-0.89,3.05-1.51c1.86-1.76,4.1-7.92,3.34-11.92c-1.23-2.15-3.84-4.58-4.8-5.12c-0.51-0.23-1.34-0.55-1.66-0.65
	c-0.21-0.06-0.58-0.15-0.73-0.18c-0.11-0.02-0.31-0.06-0.4-0.07c-0.32-0.05-0.58-0.08-0.64-0.09c-0.18-0.02-0.32-0.03-0.35-0.03
	c-0.06,0-0.1-0.01-0.13-0.01c-0.06,0-0.12-0.01-0.15-0.01c-0.08,0-0.17-0.01-0.27-0.01L1361.13,343.62z M1066,512
	c-9.95-0.94-9.95-0.94-9.95-0.95c0,0,0,0,0,0c0,0.01-0.01,0.02-0.01,0.03c0,0.03-0.01,0.08-0.01,0.15
	c-0.02,0.14-0.04,0.35-0.07,0.64c-0.06,0.57-0.15,1.45-0.29,2.6c-0.27,2.3-0.71,5.73-1.35,10.14c-1.27,8.83-3.37,21.62-6.63,37.32
	c-6.52,31.41-17.68,74.37-36.22,120.53C974.31,775,908.06,879.1,791.48,930.35l8.05,18.31c123.41-54.25,192.41-163.9,230.51-258.74
	c19.09-47.52,30.55-91.66,37.25-123.92c3.35-16.14,5.51-29.33,6.84-38.52c0.66-4.59,1.12-8.19,1.41-10.66
	c0.15-1.23,0.25-2.18,0.32-2.83c0.03-0.33,0.06-0.58,0.08-0.75c0.01-0.09,0.01-0.16,0.02-0.2c0-0.02,0-0.04,0-0.06
	c0-0.01,0.01-0.02,0.01-0.02C1075.96,512.95,1075.96,512.94,1066,512z"/>
<ellipse cx="1026.5" cy="211" rx="33" ry="32"/>
<ellipse cx="874.5" cy="216" rx="33" ry="32"/>
</svg>
