<svg width="8889" height="5000" viewBox="0 0 8889 5000" fill="none" xmlns="http://www.w3.org/2000/svg">
<g clip-path="url(#clip0_123_158)">
<rect width="8888.89" height="5000" fill="white"/>
<rect width="8891" height="5000" fill="#9CD08F"/>
<path d="M6646 2172L6768.75 1979L6825.22 2075.5M6881.69 2172L6825.22 2075.5M6825.22 2075.5L6906.24 1989.91L6960.25 2075.5L7024.08 2029.91L7083 2075.5" stroke="black" stroke-width="20"/>
<path d="M2623 643L2711.57 523L2782.34 610.632L2829.66 546.053L2888.7 610.632L2953.61 583L2989 610.632" stroke="black" stroke-width="20"/>
<path d="M2989 3220L3050.52 3133L3078.81 3176.5M3107.11 3220L3078.81 3176.5M3078.81 3176.5L3119.42 3137.92L3146.48 3176.5L3178.47 3155.95L3208 3176.5" stroke="black" stroke-width="20"/>
<path d="M851 2500L982.4 2250L1087.4 2432.57L1157.6 2298.03L1245.2 2432.57L1341.5 2375L1394 2432.57" stroke="black" stroke-width="20"/>
<path d="M3674.9 4647.41C4339.41 4196.48 4208.24 2222.95 5070.73 2069.99C5933.23 1917.02 8069.41 4190.71 7863 5042C6982.56 5042 5608.5 5042 5608.5 5042L4171.5 5042C4171.5 5042 682.119 5397.37 1087 5042C1491.88 4686.63 3057.58 5066.32 3674.9 4647.41Z" fill="#88C083"/>
<path d="M4271 -198C4666.91 500.693 6203.49 161.497 7900.49 1871C9597.5 3580.5 8938.28 1759.5 8938.28 1759.5L8942.28 -0.401373L6372.82 -0.400907C6372.82 -0.400907 7007.67 230.057 6546.32 508.213C6084.97 786.368 3899 -854.5 4271 -198Z" fill="#88C083"/>
<path d="M1788.24 51.9898C1054.45 378.285 834.505 2343.9 -41.4475 2341.91C-917.4 2339.92 -38.7993 1177.23 -38.7993 1177.23L-34.7977 -582.666L4451.24 -572.466C4451.24 -572.466 4911.15 -220.114 4449.8 58.0415C3988.45 336.197 2469.91 -251.13 1788.24 51.9898Z" fill="#88C083"/>
<path d="M6103 4055L6234.4 3805L6339.4 3987.57L6409.6 3853.03L6497.2 3987.57L6593.5 3930L6646 3987.57" stroke="black" stroke-width="20"/>
<path d="M4759 1672L4892.39 1494L4968.61 1605.4L5035.31 1527.3L5102 1605.4" stroke="black" stroke-width="20"/>
<path d="M8028 768L8186.45 523L8360 768" stroke="black" stroke-width="20"/>
<path d="M1592 4187L1726.34 4055L1834 4187" stroke="black" stroke-width="20"/>
<path d="M7471 768L7627.35 531L7710.7 687.6M7794.06 768L7710.7 687.6M7710.7 687.6L7835.82 573.301L7909 687.6" stroke="black" stroke-width="20"/>
</g>
<defs>
<clipPath id="clip0_123_158">
<rect width="8888.89" height="5000" fill="white"/>
</clipPath>
</defs>
</svg>
