<?xml version="1.0" encoding="utf-8"?>
<!-- Generator: Adobe Illustrator 27.10.0, SVG Export Plug-In . SVG Version: 6.00 Build 0)  -->
<svg version="1.1" id="Capa_1" xmlns="http://www.w3.org/2000/svg" xmlns:xlink="http://www.w3.org/1999/xlink" x="0px" y="0px"
	 viewBox="0 0 1000 1000" style="enable-background:new 0 0 1000 1000;" xml:space="preserve">
<style type="text/css">
	.st0{fill:#724444;stroke:#000000;stroke-width:10;}
	.st1{fill:#FDEDE9;stroke:#000000;stroke-width:10;}
	.st2{fill:#1D1F1C;stroke:#000000;stroke-width:10;}
</style>
<g>
	<path class="st0" d="M729.1,101.1C634.9,6.4,504.9-9.6,384.3,47.9c-95.8,45.7-135.9,117.5-157.5,221.3
		c-23.5,112.8-6.4,274.6-6.4,274.6l298,53.2l283.1-63.8c0,0,30-151.9,0-263.9C781.9,195.9,776.1,148.3,729.1,101.1z"/>
	<path class="st1" d="M547.8,659.2l14.8-122.1l-131.4,25.9v96.1h-48.1l83.3,105.5l179.5-94.4L547.8,659.2z"/>
	<path class="st2" d="M217.8,686.8c49.4-46.6,179.1-34.3,179.1-34.3s43,56.1,89.3,64.9c64.5,12.3,156.8-53.2,156.8-53.2
		s94-23,132.9,0c101.7,60.2-27.4,321.3-27.4,321.3H230.4C230.4,985.5,137.4,762.6,217.8,686.8z"/>
	<path class="st1" d="M320.4,400.9c-6.4-82.1-22.3-152.2,38.9-207.3c92.4-83.3,292.3,64.7,292.3,64.7s44.5,22.2,53.6,90.7
		c9.2,68.4-0.9,128.9-40.7,172.1C620.8,568.7,512.9,597,512.9,597s-100.2-14-142.5-61C331.3,492.6,325,459.1,320.4,400.9z"/>
</g>
</svg>
