<svg width="1401" height="1400" viewBox="0 0 1401 1400" fill="none" xmlns="http://www.w3.org/2000/svg">
<path d="M973.958 1095.73C957.823 1095.73 967.512 1075.62 955.264 1069.57C948.142 1066.06 945.443 1043.69 943.571 1036.41C942.242 1031.24 940.694 1025.99 939.417 1021.03C938.656 1018.07 935.517 1012.41 933.493 1009.91C930.826 1006.62 931.686 1007.69 927.647 1006.41C923.748 1005.17 914.357 1000.34 923.416 1000.34C929.464 1000.34 933.479 1001.67 938.725 1003.33C943.59 1004.88 949.774 1008.03 954.572 1008.03C957.268 1008.03 960.969 1008.25 964.542 1008.52M964.542 1008.52C970.504 1008.97 976.112 1009.57 976.112 1009.57H967.727C966.393 1009.57 965.403 1009.15 964.542 1008.52ZM964.542 1008.52C963.366 1007.66 962.431 1006.4 961.188 1005.3C960.67 1004.84 954.12 998.802 955.418 998.802H962.88M962.88 998.802C959.319 998.802 957.041 998.446 953.88 996.494C950.735 994.553 958.237 993.465 960.111 992.99C977.383 988.603 997.675 994.186 1014.81 994.186C1026.31 994.186 1037.47 995.725 1049.43 995.725C1064.07 995.725 1077.84 994.186 1092.35 994.186C1105.22 994.186 1120.66 996.518 1132.59 992.733C1139.11 990.662 1141.9 994.094 1145.66 998.802C1149.79 1003.96 1147.82 1009.95 1150.13 1015.73C1152.13 1020.75 1148.96 1030.84 1152.28 1034.53C1156.74 1039.49 1157.79 1042.76 1158.13 1049.57C1158.75 1061.98 1168.51 1071.74 1169.21 1084.96C1169.47 1089.98 1174.46 1094.59 1174.74 1100.35C1174.95 1104.41 1176.4 1113.03 1178.59 1116.07C1180.78 1119.12 1180.28 1129.42 1180.28 1133.42C1180.28 1138.21 1183.2 1144.36 1184.36 1148.89C1185.82 1154.57 1184.44 1162.89 1184.44 1168.81C1184.44 1175.65 1185.82 1182.35 1185.82 1188.81V1208.81C1185.82 1210.39 1184.26 1216.09 1183.05 1216.93C1180.63 1218.62 1182.11 1222.73 1179.59 1224.97C1176.18 1228 1175.99 1235.86 1172.67 1238.81C1172.1 1239.32 1169.31 1244.03 1169.21 1244.97C1168.84 1248.26 1166.42 1248.45 1165.05 1250.35C1152.24 1268.14 1130.39 1277.28 1109.66 1277.28C1106.03 1277.28 1105.32 1279.46 1102.05 1280.27C1099.17 1280.98 1096.48 1279.45 1094.12 1281.55C1092.03 1283.41 1076.78 1283.32 1073.97 1283.43C1061.78 1283.93 1049.6 1284.97 1037.66 1284.97C1026.62 1284.97 1016.35 1286.34 1007.88 1278.82C1000.52 1272.27 992.973 1265.25 985.728 1258.81C982.628 1256.06 979.27 1249.86 978.189 1245.65C976.732 1239.99 972.376 1235.27 969.804 1230.27C966.734 1224.3 962.786 1218.73 961.419 1211.89C960.56 1207.6 957.086 1198.46 954.572 1194.96C947.663 1185.37 944.684 1170.71 943.494 1158.81C942.672 1150.59 938.309 1143.16 935.493 1135.73C933.265 1129.85 933.139 1123.31 930.724 1117.27C928.076 1110.65 931.9 1102.13 929.339 1095.73C927.593 1091.37 926.877 1081.73 926.877 1077.27C926.877 1066.1 920.368 1051.73 925.493 1040.34M962.88 998.802H1017.42M935.186 1035.73C930.183 1035.11 930.257 1017.35 924.878 1015.64C917.966 1013.45 927.524 994.186 917.185 994.186M933.801 994.186C933.801 979.722 954.831 988.032 962.88 988.032M1135.97 980.339C1144.12 980.339 1142.9 986.724 1142.9 994.186V1052.65C1142.9 1064.88 1146.65 1076.45 1147.05 1088.38C1147.38 1098.27 1152.59 1107.25 1152.59 1117.61C1152.59 1129.16 1156.74 1140.68 1156.74 1152.66C1156.74 1168.92 1159.51 1184.8 1159.51 1201.12C1159.51 1211.83 1143.33 1224.5 1136.66 1230.27C1125.32 1240.07 1115.66 1248.04 1100.66 1248.04C1086.18 1248.04 1071.01 1251.12 1056.35 1251.12C1051.62 1251.12 1042.24 1245.38 1038.27 1242.57C1030.78 1237.27 1025.69 1227.38 1018.27 1222.23C1017.64 1221.8 1016.89 1221.23 1016.12 1220.59M1016.12 1220.59C1014.36 1219.14 1012.48 1217.3 1011.65 1215.74C1009.64 1211.93 1013.64 1215.62 1014.42 1217.27C1014.97 1218.42 1015.54 1219.52 1016.12 1220.59ZM1016.12 1220.59C1017.69 1223.52 1019.33 1226.29 1020.73 1229.58C1022.13 1232.87 1026.2 1236.79 1026.58 1240.35C1026.79 1242.34 1030.59 1249.26 1025.35 1247.36C1019.88 1245.38 1013.38 1240.6 1009.96 1235.39C1003.07 1224.92 993.665 1217.12 989.498 1204.62C986.388 1195.29 981.564 1184.61 976.728 1176.08C972.216 1168.11 969.908 1157.92 965.958 1149.58C957.132 1130.95 956.115 1099.72 958.804 1078.81C959.731 1071.59 965.79 1063.79 967.65 1056.41C969.611 1048.63 972.047 1041.24 974.036 1033.5C975.162 1029.12 981.61 1021.44 985.729 1020.43C999.455 1017.04 1013.51 1009.57 1028.04 1009.57C1041.03 1009.57 1057.47 1006.51 1070.2 1009.66C1073.97 1010.59 1077.48 1013.34 1081.28 1014.27C1083.42 1014.8 1084.93 1016 1086.28 1017.38M1086.28 1017.38C1088 1019.15 1089.48 1021.24 1091.74 1022.65C1100.53 1028.14 1108.32 1034.24 1116.51 1040.37M1086.28 1017.38C1093.96 1018.28 1101.46 1019.91 1108.59 1023.08C1115.56 1026.18 1116.12 1032.19 1116.51 1040.37M1086.28 1017.38C1071.21 1015.62 1055.48 1016.68 1040.73 1014.53C1029.67 1012.92 1014.43 1017.81 1004.42 1023.08C994.865 1028.11 989.472 1039.53 989.191 1051.11C988.68 1072.09 991.763 1094.93 988.883 1115.73C987.079 1128.76 985.311 1147.9 988.883 1160.69C994.36 1180.3 1006.84 1213.87 1027.27 1217.36C1044.23 1220.26 1059.77 1221.89 1077.12 1221.89C1087.02 1221.89 1106.05 1226.33 1114.51 1218.81C1122.85 1211.4 1120.26 1199.81 1122.82 1189.58C1124.96 1180.99 1123.51 1170.64 1123.51 1161.89C1123.51 1153.91 1124.42 1145.12 1122.82 1137.27C1120.46 1125.75 1120.24 1113.89 1116.59 1102.74C1108.75 1078.79 1088.53 1057.28 1067.5 1047.27C1060.58 1043.97 1037.64 1034.63 1030.04 1041.2C1023.96 1046.45 1021.28 1052.75 1019.04 1060.94C1014.2 1078.62 1015.5 1100.18 1015.5 1118.47C1015.5 1141.97 1014.02 1167.14 1023.81 1188.9C1027.84 1197.86 1043.75 1198.81 1051.2 1198.81C1058.78 1198.81 1066.43 1196.96 1072.66 1192.82M1116.51 1040.37C1117.23 1040.9 1117.94 1041.43 1118.66 1041.97C1125.94 1047.36 1131.16 1059.05 1133.2 1068.12C1135.5 1078.31 1133.43 1081.44 1128.28 1071.03C1124.31 1063.01 1117.03 1051.29 1116.59 1041.88C1116.56 1041.37 1116.54 1040.86 1116.51 1040.37ZM1072.66 1192.82C1079.06 1188.57 1083.98 1181.89 1085.81 1172.31C1086.48 1168.82 1087.02 1165.36 1087.44 1161.91M1072.66 1192.82C1069.62 1187.3 1066.75 1181.57 1064.07 1175.73M1072.66 1192.82C1075.19 1197.43 1077.84 1201.89 1080.58 1206.16C1088.15 1217.93 1101.2 1223.21 1101.2 1203.77C1101.2 1198.75 1100.78 1193.95 1099.99 1189.28M1087.44 1161.91C1087.66 1160.04 1087.85 1158.17 1088 1156.31M1087.44 1161.91C1086.96 1160.38 1086.56 1158.88 1086.28 1157.44C1085.32 1152.67 1086.45 1153.7 1088 1156.31M1087.44 1161.91C1090.15 1170.63 1095.56 1180.62 1099.28 1187.96C1099.53 1188.46 1099.77 1188.9 1099.99 1189.28M1088 1156.31C1089.43 1138.47 1087.39 1121.16 1081.97 1103.42C1079.23 1094.45 1066.35 1055.05 1054.58 1072.65C1053.89 1073.68 1053.25 1074.73 1052.65 1075.81M1088 1156.31C1089.68 1159.14 1091.84 1163.82 1092.35 1164.96C1095.93 1172.91 1098.56 1180.87 1099.99 1189.28M1052.65 1075.81C1041.07 1096.53 1045.57 1125.22 1052.58 1146.5C1055.79 1156.24 1059.67 1166.13 1064.07 1175.73M1052.65 1075.81C1053.28 1070.77 1054.78 1066.24 1057.66 1063.51C1059.46 1061.78 1075.62 1059.91 1076.35 1062.74C1078.28 1070.24 1081 1077.59 1082.74 1085.3C1089.44 1115.08 1100.46 1146.29 1102.58 1177.02C1102.9 1181.6 1104.61 1197.28 1099.99 1189.28M1052.65 1075.81C1051.64 1083.93 1052.92 1093.39 1054.43 1098.89C1059.74 1118.28 1069.35 1135.6 1073.51 1155.39C1074.21 1158.75 1078.29 1173.05 1074.43 1174.28C1071.03 1175.36 1068.05 1175.72 1064.07 1175.73M1064.07 1175.73C1063.99 1175.73 1063.9 1175.73 1063.81 1175.73C1053.13 1175.73 1043.01 1172.74 1037.04 1161.89C1032.17 1153.03 1033.5 1142.17 1033.5 1132.23C1033.5 1115.64 1029.6 1196.72 1036.27 1181.89M1126.28 1192.66C1131.84 1195.56 1135.32 1200.76 1140.13 1203.43M1156.71 975.984C1162.32 1006.85 1169.95 1037.06 1177.14 1065.51C1178.99 1072.8 1180.8 1079.98 1182.55 1087.02C1191.18 1121.9 1198.03 1153.33 1199 1180.89C1199.96 1208.2 1195.11 1230.61 1181.25 1248.44C1167.22 1266.48 1142.82 1281.33 1101.83 1290.57C1060.97 1299.78 1031.33 1296.77 1009.04 1285.23C986.841 1273.75 970.611 1253.15 957.76 1224.17C944.837 1195.02 935.644 1158.11 927.275 1115.06C922.719 1091.62 918.52 1067.03 914.1 1041.14C910.33 1019.06 906.399 996.036 901.949 971.991C900.947 966.579 896.187 963.095 891.317 964.207C886.446 965.32 883.31 970.609 884.311 976.02C888.604 999.215 892.528 1022.18 896.323 1044.38C900.824 1070.71 905.142 1095.97 909.674 1119.29C918.103 1162.64 927.662 1201.56 941.607 1233.01C955.623 1264.62 974.376 1289.37 1001.44 1303.37C1028.4 1317.32 1062.3 1319.9 1105.41 1310.18C1148.38 1300.5 1177.19 1284.26 1194.87 1261.51C1212.72 1238.56 1218.06 1210.49 1216.99 1180.11C1215.93 1149.97 1208.52 1116.5 1199.91 1081.72C1198.11 1074.46 1196.26 1067.13 1194.39 1059.74C1187.22 1031.37 1179.82 1002.09 1174.36 972.027C1173.38 966.611 1168.63 963.107 1163.76 964.2C1158.88 965.292 1155.73 970.568 1156.71 975.984Z" stroke="#3D1F12" stroke-width="40" stroke-linecap="square"/>
<path fill-rule="evenodd" clip-rule="evenodd" d="M57.125 247.5C57.0855 247.332 57.1562 247.672 57.125 247.5C56.6249 243 57.8079 237.31 57.4976 238.674C58.221 235.498 60.2941 231.889 64.4893 230.054C68.0196 228.509 71.4118 228.991 73.368 229.452C75.5108 229.957 77.5862 230.841 79.4312 231.765C86.512 235.312 96.7658 242.896 109.102 252.454C114.781 256.854 121.059 261.8 127.919 267.205C151.704 285.943 182.494 310.2 219.602 336.347C315.061 403.611 451 482.376 610.511 507.645L1374.12 525C1379.65 525.065 1400.19 521.466 1400.13 526.988L1400.12 527.053V970.892C1400.12 975.389 1400.43 966.529 1400.12 970.892L1400.12 970.949L1400.12 970.993V971C1400.12 976.523 1395.65 981 1390.12 981C1390.04 981 1389.97 980.999 1389.89 980.997C1389.81 980.996 1389.74 980.993 1389.67 980.99C1389.46 980.98 1389.25 980.964 1389.04 980.942L894.487 980.633C894.88 1007.18 896.767 1035.18 898.686 1063.68L898.686 1063.68L898.687 1063.7L898.687 1063.7L898.688 1063.71L898.688 1063.72L898.69 1063.73C899.365 1073.75 900.044 1083.84 900.664 1093.94C903.247 1136.06 904.777 1178.34 900.174 1215.93C895.576 1253.47 884.72 1287.64 861.423 1312.44C837.846 1337.53 802.919 1351.59 753.378 1351.63C704.767 1351.67 669.541 1342.76 644.718 1324.53C619.643 1306.12 606.719 1279.35 600.333 1247.17C593.997 1215.24 593.893 1176.94 595.206 1134.24C595.587 1121.83 596.089 1109.03 596.607 1095.85L596.607 1095.85L596.607 1095.84V1095.83C597.849 1064.19 599.177 1030.34 599.135 994.287C516.039 923.603 473.798 838.827 451.851 769.586C440.72 734.47 434.792 703.305 431.393 679.924C429.694 668.233 428.626 658.488 427.863 651.221C427.807 650.688 427.653 649.212 427.601 648.712L427.863 651.221C427.711 649.764 427.089 643.836 426.889 642.103C344.192 598.776 252.939 512.748 182.349 432.298C146.325 391.242 115.4 351.316 93.4568 318.728C82.4968 302.451 73.6685 287.844 67.5583 275.74C64.505 269.692 62.0499 264.111 60.3501 259.151C58.9035 254.931 57.3238 251.515 57.125 247.5Z" fill="#9E5E37"/>
<path fill-rule="evenodd" clip-rule="evenodd" d="M67.5113 256.109C67.5425 256.28 67.5779 256.45 67.6174 256.618C67.8162 260.633 68.9036 264.931 70.3501 269.151C72.05 274.111 74.505 279.692 77.5584 285.74C83.6686 297.844 92.4969 312.451 103.457 328.728C125.4 361.316 156.325 401.242 192.349 442.298C262.939 522.748 354.193 608.776 436.889 652.103L436.917 652.338C437.117 654.071 437.335 656.16 437.596 658.661L437.601 658.712C437.684 659.507 437.771 660.342 437.864 661.221C438.627 668.488 439.694 678.233 441.394 689.924C444.793 713.305 450.72 744.47 461.851 779.586C483.798 848.827 526.038 933.603 609.135 1004.29C609.177 1040.34 607.849 1074.2 606.607 1105.84C606.089 1119.03 605.587 1131.83 605.205 1144.24C603.893 1186.94 603.997 1225.24 610.333 1257.17C616.719 1289.35 629.643 1316.12 654.718 1334.53C679.541 1352.76 714.767 1361.67 763.378 1361.63C812.918 1361.59 847.846 1347.53 871.423 1322.44C894.72 1297.64 905.576 1263.47 910.173 1225.93C914.777 1188.34 913.247 1146.06 910.663 1103.94C910.043 1093.82 909.362 1083.72 908.686 1073.68L908.686 1073.68C908.29 1067.8 907.895 1061.93 907.514 1056.1C912.391 1081.78 917.084 1106.42 922.004 1129.2C931.366 1172.54 941.983 1211.44 957.471 1242.88C973.039 1274.48 993.868 1299.23 1023.93 1313.22C1053.88 1327.17 1091.52 1329.75 1139.41 1320.03C1187.14 1310.35 1219.14 1294.11 1238.77 1271.38C1258.59 1248.43 1264.53 1220.37 1263.35 1190C1262.17 1159.87 1253.93 1126.41 1244.37 1091.64C1242.37 1084.39 1240.32 1077.07 1238.25 1069.7L1238.24 1069.67C1230.55 1042.27 1222.62 1014.02 1216.62 985.045L1390.3 981.998L1400.3 981.823L1399.95 961.826L1389.95 962.001L897.952 970.63L895.383 970.675C895.065 970.645 894.742 970.629 894.415 970.629C893.965 970.629 893.522 970.658 893.088 970.716L887.954 970.806L887.992 972.962C885.804 974.795 884.413 977.548 884.412 980.626C884.403 1010.84 886.589 1043.27 888.763 1075.52C889.431 1085.44 890.099 1095.35 890.701 1105.16C893.282 1147.24 894.681 1187.91 890.322 1223.5C885.956 1259.15 875.956 1288.4 856.846 1308.74C838.017 1328.79 808.987 1341.59 763.362 1341.63C716.807 1341.66 686.51 1333.06 666.554 1318.41C646.852 1303.94 635.744 1282.47 629.95 1253.27C624.107 1223.82 623.882 1187.6 625.196 1144.86C625.568 1132.75 626.063 1120.14 626.576 1107.06C627.859 1074.36 629.255 1038.77 629.128 1001.09C629.127 1000.86 629.118 1000.62 629.1 1000.38C629.332 997.271 628.11 994.099 625.532 991.949C543.745 923.744 502.361 841.199 480.916 773.543C470.194 739.715 464.472 709.655 461.186 687.047C459.542 675.743 458.507 666.302 457.754 659.132C457.725 658.858 457.697 658.587 457.669 658.318C457.611 657.762 457.554 657.218 457.498 656.686C457.234 654.147 456.999 651.895 456.784 650.038C456.524 647.792 456.221 645.426 455.787 643.688C455.601 642.944 455.336 642.241 455.004 641.585C454.121 639.465 452.507 637.637 450.299 636.516C369.949 595.741 278.759 510.455 207.382 429.108C171.801 388.557 141.424 349.305 120.047 317.558C109.347 301.667 101.011 287.817 95.4124 276.727C93.3838 272.709 91.7568 269.135 90.5174 266.022C94.9298 269.145 100.351 273.227 106.853 278.264C112.373 282.541 118.538 287.398 125.316 292.738C149.116 311.49 180.483 336.203 218.082 362.696C312.962 429.552 448.812 508.715 609.113 536.038L609.11 537.611L619.11 537.629L619.513 537.63C619.586 537.63 619.659 537.631 619.732 537.63L1390.11 539L1400.11 539.018L1400.14 519.018L1390.14 519L620.427 517.631C460.952 492.348 325.044 413.599 229.602 346.347C192.494 320.2 161.704 295.943 137.92 277.205L137.919 277.205C131.059 271.8 124.781 266.854 119.102 262.454C106.766 252.896 96.512 245.312 89.4313 241.765C87.5862 240.841 85.5109 239.957 83.368 239.452C81.4119 238.991 78.0197 238.509 74.4893 240.054C70.2942 241.889 68.2211 245.498 67.4976 248.674C66.8686 251.436 67.1495 254.117 67.5113 256.109ZM87.1216 252.042C87.1221 252.043 87.1233 252.057 87.1241 252.085C87.1216 252.056 87.1212 252.042 87.1216 252.042ZM915.132 990.332L1196.3 985.401C1196.32 985.581 1196.35 985.762 1196.39 985.943C1202.62 1016.8 1211.1 1047 1219.08 1075.44C1221.13 1082.73 1223.15 1089.9 1225.08 1096.94C1234.67 1131.81 1242.28 1163.23 1243.36 1190.78C1244.43 1218.09 1239.03 1240.48 1223.64 1258.31C1208.06 1276.34 1180.96 1291.19 1135.43 1300.43C1090.05 1309.64 1057.13 1306.62 1032.37 1295.09C1007.71 1283.61 989.686 1263.02 975.412 1234.04C961.06 1204.91 950.848 1168.01 941.553 1124.97C936.494 1101.55 931.831 1076.97 926.924 1051.1L926.921 1051.09L926.92 1051.08L926.92 1051.08L926.918 1051.07C923.22 1031.58 919.382 1011.35 915.132 990.332Z" fill="black"/>
</svg>
