<?xml version="1.0" encoding="utf-8"?>
<!-- Generator: Adobe Illustrator 27.10.0, SVG Export Plug-In . SVG Version: 6.00 Build 0)  -->
<svg version="1.1" id="Capa_1" xmlns="http://www.w3.org/2000/svg" xmlns:xlink="http://www.w3.org/1999/xlink" x="0px" y="0px"
	 viewBox="0 0 1401 1400" style="enable-background:new 0 0 1401 1400;" xml:space="preserve">
<style type="text/css">
	.st0{fill:none;stroke:#3D1F12;stroke-width:40;stroke-linecap:square;}
	.st1{fill-rule:evenodd;clip-rule:evenodd;fill:#9E5E37;}
	.st2{fill-rule:evenodd;clip-rule:evenodd;}
</style>
<path class="st0" d="M973.96,1045.73c-16.14,0-6.45-20.11-18.69-26.16c-7.12-3.51-9.82-25.88-11.69-33.16
	c-1.33-5.17-2.88-10.42-4.15-15.38c-0.76-2.96-3.9-8.62-5.92-11.12c-2.67-3.29-1.81-2.22-5.85-3.5c-3.9-1.24-13.29-6.07-4.23-6.07
	c6.05,0,10.06,1.33,15.31,2.99c4.87,1.55,11.05,4.7,15.85,4.7c2.7,0,6.4,0.22,9.97,0.49 M964.54,958.52
	c5.96,0.45,11.57,1.05,11.57,1.05h-8.39C966.39,959.57,965.4,959.15,964.54,958.52z M964.54,958.52c-1.18-0.86-2.11-2.12-3.35-3.22
	c-0.52-0.46-7.07-6.5-5.77-6.5h7.46 M962.88,948.8c-3.56,0-5.84-0.36-9-2.31c-3.15-1.94,4.36-3.03,6.23-3.5
	c17.27-4.39,37.56,1.2,54.7,1.2c11.5,0,22.66,1.54,34.62,1.54c14.64,0,28.41-1.54,42.92-1.54c12.87,0,28.31,2.33,40.24-1.45
	c6.52-2.07,9.31,1.36,13.07,6.07c4.13,5.16,2.16,11.15,4.47,16.93c2,5.02-1.17,15.11,2.15,18.8c4.46,4.96,5.51,8.23,5.85,15.04
	c0.62,12.41,10.38,22.17,11.08,35.39c0.26,5.02,5.25,9.63,5.53,15.39c0.21,4.06,1.66,12.68,3.85,15.72
	c2.19,3.05,1.69,13.35,1.69,17.35c0,4.79,2.92,10.94,4.08,15.47c1.46,5.68,0.08,14,0.08,19.92c0,6.84,1.38,13.54,1.38,20v20
	c0,1.58-1.56,7.28-2.77,8.12c-2.42,1.69-0.94,5.8-3.46,8.04c-3.41,3.03-3.6,10.89-6.92,13.84c-0.57,0.51-3.36,5.22-3.46,6.16
	c-0.37,3.29-2.79,3.48-4.16,5.38c-12.81,17.79-34.66,26.93-55.39,26.93c-3.63,0-4.34,2.18-7.61,2.99c-2.88,0.71-5.57-0.82-7.93,1.28
	c-2.09,1.86-17.34,1.77-20.15,1.88c-12.19,0.5-24.37,1.54-36.31,1.54c-11.04,0-21.31,1.37-29.78-6.15
	c-7.36-6.55-14.91-13.57-22.15-20.01c-3.1-2.75-6.46-8.95-7.54-13.16c-1.46-5.66-5.81-10.38-8.39-15.38
	c-3.07-5.97-7.02-11.54-8.39-18.38c-0.86-4.29-4.33-13.43-6.85-16.93c-6.91-9.59-9.89-24.25-11.08-36.15
	c-0.82-8.22-5.18-15.65-8-23.08c-2.23-5.88-2.35-12.42-4.77-18.46c-2.65-6.62,1.18-15.14-1.39-21.54c-1.75-4.36-2.46-14-2.46-18.46
	c0-11.17-6.51-25.54-1.38-36.93 M962.88,948.8h54.54 M935.19,985.73c-5-0.62-4.93-18.38-10.31-20.09
	c-6.91-2.19,2.65-21.45-7.69-21.45 M933.8,944.19c0-14.46,21.03-6.15,29.08-6.15 M1135.97,930.34c8.15,0,6.93,6.39,6.93,13.85v58.46
	c0,12.23,3.75,23.8,4.15,35.73c0.33,9.89,5.54,18.87,5.54,29.23c0,11.55,4.15,23.07,4.15,35.05c0,16.26,2.77,32.14,2.77,48.46
	c0,10.71-16.18,23.38-22.85,29.15c-11.34,9.8-21,17.77-36,17.77c-14.48,0-29.65,3.08-44.31,3.08c-4.73,0-14.11-5.74-18.08-8.55
	c-7.49-5.3-12.58-15.19-20-20.34c-0.63-0.43-1.38-1-2.15-1.64 M1016.12,1170.59c-1.76-1.45-3.64-3.29-4.47-4.85
	c-2.01-3.81,1.99-0.12,2.77,1.53C1014.97,1168.42,1015.54,1169.52,1016.12,1170.59z M1016.12,1170.59c1.57,2.93,3.21,5.7,4.61,8.99
	c1.4,3.29,5.47,7.21,5.85,10.77c0.21,1.99,4.01,8.91-1.23,7.01c-5.47-1.98-11.97-6.76-15.39-11.97
	c-6.89-10.47-16.3-18.27-20.46-30.77c-3.11-9.33-7.93-20.01-12.77-28.54c-4.51-7.97-6.82-18.16-10.77-26.5
	c-8.83-18.63-9.84-49.86-7.15-70.77c0.93-7.22,6.99-15.02,8.85-22.4c1.96-7.78,4.4-15.17,6.39-22.91
	c1.13-4.38,7.57-12.06,11.69-13.07c13.73-3.39,27.78-10.86,42.31-10.86c12.99,0,29.43-3.06,42.16,0.09
	c3.77,0.93,7.28,3.68,11.08,4.61c2.14,0.53,3.65,1.73,5,3.11 M1086.28,967.38c1.72,1.77,3.2,3.86,5.46,5.27
	c8.79,5.49,16.58,11.59,24.77,17.72 M1086.28,967.38c7.68,0.9,15.18,2.53,22.31,5.7c6.97,3.1,7.53,9.11,7.92,17.29 M1086.28,967.38
	c-15.07-1.76-30.8-0.7-45.55-2.85c-11.06-1.61-26.3,3.28-36.31,8.55c-9.55,5.03-14.95,16.45-15.23,28.03
	c-0.51,20.98,2.57,43.82-0.31,64.62c-1.8,13.03-3.57,32.17,0,44.96c5.48,19.61,17.96,53.18,38.39,56.67
	c16.96,2.9,32.5,4.53,49.85,4.53c9.9,0,28.93,4.44,37.39-3.08c8.34-7.41,5.75-19,8.31-29.23c2.14-8.59,0.69-18.94,0.69-27.69
	c0-7.98,0.91-16.77-0.69-24.62c-2.36-11.52-2.58-23.38-6.23-34.53c-7.84-23.95-28.06-45.46-49.09-55.47
	c-6.92-3.3-29.86-12.64-37.46-6.07c-6.08,5.25-8.76,11.55-11,19.74c-4.84,17.68-3.54,39.24-3.54,57.53c0,23.5-1.48,48.67,8.31,70.43
	c4.03,8.96,19.94,9.91,27.39,9.91c7.58,0,15.23-1.85,21.46-5.99 M1116.51,990.37c0.72,0.53,1.43,1.06,2.15,1.6
	c7.28,5.39,12.5,17.08,14.54,26.15c2.3,10.19,0.23,13.32-4.92,2.91c-3.97-8.02-11.25-19.74-11.69-29.15
	C1116.56,991.37,1116.54,990.86,1116.51,990.37z M1072.66,1142.82c6.4-4.25,11.32-10.93,13.15-20.51c0.67-3.49,1.21-6.95,1.63-10.4
	 M1072.66,1142.82c-3.04-5.52-5.91-11.25-8.59-17.09 M1072.66,1142.82c2.53,4.61,5.18,9.07,7.92,13.34
	c7.57,11.77,20.62,17.05,20.62-2.39c0-5.02-0.42-9.82-1.21-14.49 M1087.44,1111.91c0.22-1.87,0.41-3.74,0.56-5.6 M1087.44,1111.91
	c-0.48-1.53-0.88-3.03-1.16-4.47c-0.96-4.77,0.17-3.74,1.72-1.13 M1087.44,1111.91c2.71,8.72,8.12,18.71,11.84,26.05
	c0.25,0.5,0.49,0.94,0.71,1.32 M1088,1106.31c1.43-17.84-0.61-35.15-6.03-52.89c-2.74-8.97-15.62-48.37-27.39-30.77
	c-0.69,1.03-1.33,2.08-1.93,3.16 M1088,1106.31c1.68,2.83,3.84,7.51,4.35,8.65c3.58,7.95,6.21,15.91,7.64,24.32 M1052.65,1025.81
	c-11.58,20.72-7.08,49.41-0.07,70.69c3.21,9.74,7.09,19.63,11.49,29.23 M1052.65,1025.81c0.63-5.04,2.13-9.57,5.01-12.3
	c1.8-1.73,17.96-3.6,18.69-0.77c1.93,7.5,4.65,14.85,6.39,22.56c6.7,29.78,17.72,60.99,19.84,91.72c0.32,4.58,2.03,20.26-2.59,12.26
	 M1052.65,1025.81c-1.01,8.12,0.27,17.58,1.78,23.08c5.31,19.39,14.92,36.71,19.08,56.5c0.7,3.36,4.78,17.66,0.92,18.89
	c-3.4,1.08-6.38,1.44-10.36,1.45 M1064.07,1125.73c-0.08,0-0.17,0-0.26,0c-10.68,0-20.8-2.99-26.77-13.84
	c-4.87-8.86-3.54-19.72-3.54-29.66c0-16.59-3.9,64.49,2.77,49.66 M1126.28,1142.66c5.56,2.9,9.04,8.1,13.85,10.77 M1156.71,925.98
	c5.61,30.87,13.24,61.08,20.43,89.53c1.85,7.29,3.66,14.47,5.41,21.51c8.63,34.88,15.48,66.31,16.45,93.87
	c0.96,27.31-3.89,49.72-17.75,67.55c-14.03,18.04-38.43,32.89-79.42,42.13c-40.86,9.21-70.5,6.2-92.79-5.34
	c-22.2-11.48-38.43-32.08-51.28-61.06c-12.92-29.15-22.12-66.06-30.48-109.11c-4.56-23.44-8.76-48.03-13.18-73.92
	c-3.77-22.08-7.7-45.1-12.15-69.15c-1-5.41-5.76-8.9-10.63-7.78c-4.87,1.11-8.01,6.4-7.01,11.81c4.29,23.2,8.22,46.16,12.01,68.36
	c4.5,26.33,8.82,51.59,13.35,74.91c8.43,43.35,17.99,82.27,31.93,113.72c14.02,31.61,32.77,56.36,59.83,70.36
	c26.96,13.95,60.86,16.53,103.97,6.81c42.97-9.68,71.78-25.92,89.46-48.67c17.85-22.95,23.19-51.02,22.12-81.4
	c-1.06-30.14-8.47-63.61-17.08-98.39c-1.8-7.26-3.65-14.59-5.52-21.98c-7.17-28.37-14.57-57.65-20.03-87.71
	c-0.98-5.42-5.73-8.92-10.6-7.83C1158.88,915.29,1155.73,920.57,1156.71,925.98z"/>
<path class="st1" d="M57.12,197.5C57.09,197.33,57.16,197.67,57.12,197.5c-0.5-4.5,0.68-10.19,0.37-8.83
	c0.72-3.18,2.8-6.78,6.99-8.62c3.53-1.54,6.92-1.06,8.88-0.6c2.14,0.51,4.22,1.39,6.06,2.31c7.08,3.55,17.33,11.13,29.67,20.69
	c5.68,4.4,11.96,9.35,18.82,14.75c23.78,18.74,54.58,43,91.68,69.14c95.46,67.26,231.4,146.03,390.91,171.3L1374.12,475
	c5.53,0.07,26.07-3.53,26.01,1.99l-0.01,0.07v443.84c0,4.5,0.31-4.36,0,0v0.06v0.04V921c0,5.52-4.47,10-10,10c-0.08,0-0.15,0-0.23,0
	c-0.08,0-0.15,0-0.22-0.01c-0.21-0.01-0.42-0.03-0.63-0.05l-494.55-0.31c0.39,26.55,2.28,54.55,4.2,83.05l0,0l0,0.02l0,0l0,0.01
	v0.01l0,0.01c0.67,10.02,1.35,20.11,1.97,30.21c2.58,42.12,4.11,84.4-0.49,121.99c-4.6,37.54-15.45,71.71-38.75,96.51
	c-23.58,25.09-58.5,39.15-108.04,39.19c-48.61,0.04-83.84-8.87-108.66-27.1c-25.08-18.41-38-45.18-44.39-77.36
	c-6.34-31.93-6.44-70.23-5.13-112.93c0.38-12.41,0.88-25.21,1.4-38.39l0,0v-0.01v-0.01c1.24-31.64,2.57-65.49,2.53-101.54
	c-83.1-70.68-125.34-155.46-147.28-224.7c-11.13-35.12-17.06-66.28-20.46-89.66c-1.7-11.69-2.77-21.44-3.53-28.7
	c-0.06-0.53-0.21-2.01-0.26-2.51l0.26,2.51c-0.15-1.46-0.77-7.39-0.97-9.12c-82.7-43.33-173.95-129.36-244.54-209.81
	c-36.02-41.06-66.95-80.98-88.89-113.57c-10.96-16.28-19.79-30.88-25.9-42.99c-3.05-6.05-5.51-11.63-7.21-16.59
	C58.9,204.93,57.32,201.51,57.12,197.5z"/>
<path class="st2" d="M67.51,206.11c0.03,0.17,0.07,0.34,0.11,0.51c0.2,4.01,1.29,8.31,2.73,12.53c1.7,4.96,4.15,10.54,7.21,16.59
	c6.11,12.1,14.94,26.71,25.9,42.99c21.94,32.59,52.87,72.51,88.89,113.57c70.59,80.45,161.84,166.48,244.54,209.81l0.03,0.23
	c0.2,1.73,0.42,3.82,0.68,6.32l0.01,0.05c0.08,0.8,0.17,1.63,0.26,2.51c0.76,7.27,1.83,17.01,3.53,28.7
	c3.4,23.38,9.33,54.55,20.46,89.66c21.95,69.24,64.19,154.02,147.28,224.7c0.04,36.05-1.29,69.91-2.53,101.55
	c-0.52,13.19-1.02,25.99-1.4,38.4c-1.31,42.7-1.21,81,5.13,112.93c6.39,32.18,19.31,58.95,44.39,77.36
	c24.82,18.23,60.05,27.14,108.66,27.1c49.54-0.04,84.47-14.1,108.04-39.19c23.3-24.8,34.15-58.97,38.75-96.51
	c4.6-37.59,3.07-79.87,0.49-121.99c-0.62-10.12-1.3-20.22-1.98-30.26l0,0c-0.4-5.88-0.79-11.75-1.17-17.58
	c4.88,25.68,9.57,50.32,14.49,73.1c9.36,43.34,19.98,82.24,35.47,113.68c15.57,31.6,36.4,56.35,66.46,70.34
	c29.95,13.95,67.59,16.53,115.48,6.81c47.73-9.68,79.73-25.92,99.36-48.65c19.82-22.95,25.76-51.01,24.58-81.38
	c-1.18-30.13-9.42-63.59-18.98-98.36c-2-7.25-4.05-14.57-6.12-21.94l-0.01-0.03c-7.69-27.4-15.62-55.65-21.62-84.63L1390.3,932
	l10-0.17l-0.35-20l-10,0.17l-492,8.63l-2.57,0.04c-0.32-0.03-0.64-0.05-0.97-0.05c-0.45,0-0.89,0.03-1.33,0.09l-5.13,0.09l0.04,2.16
	c-2.19,1.83-3.58,4.59-3.58,7.66c-0.01,30.21,2.18,62.64,4.35,94.89c0.67,9.92,1.34,19.83,1.94,29.64
	c2.58,42.08,3.98,82.75-0.38,118.34c-4.37,35.65-14.37,64.9-33.48,85.24c-18.83,20.05-47.86,32.85-93.48,32.89
	c-46.55,0.03-76.85-8.57-96.81-23.22c-19.7-14.47-30.81-35.94-36.6-65.14c-5.84-29.45-6.07-65.67-4.75-108.41
	c0.37-12.11,0.87-24.72,1.38-37.8c1.28-32.7,2.68-68.29,2.55-105.97c0-0.23-0.01-0.47-0.03-0.71c0.23-3.11-0.99-6.28-3.57-8.43
	c-81.79-68.2-123.17-150.75-144.62-218.41c-10.72-33.83-16.44-63.89-19.73-86.5c-1.64-11.3-2.68-20.74-3.43-27.91
	c-0.03-0.27-0.06-0.55-0.08-0.81c-0.06-0.56-0.12-1.1-0.17-1.63c-0.26-2.54-0.5-4.79-0.71-6.65c-0.26-2.25-0.56-4.61-1-6.35
	c-0.19-0.74-0.45-1.45-0.78-2.1c-0.88-2.12-2.5-3.95-4.7-5.07c-80.35-40.77-171.54-126.06-242.92-207.41
	c-35.58-40.55-65.96-79.8-87.34-111.55c-10.7-15.89-19.04-29.74-24.63-40.83c-2.03-4.02-3.66-7.59-4.89-10.7
	c4.41,3.12,9.83,7.2,16.34,12.24c5.52,4.28,11.69,9.13,18.46,14.47c23.8,18.75,55.17,43.46,92.77,69.96
	c94.88,66.86,230.73,146.02,391.03,173.34l0,1.57l10,0.02l0.4,0c0.07,0,0.15,0,0.22,0l770.38,1.37l10,0.02l0.03-20l-10-0.02
	l-769.71-1.37C460.95,442.35,325.04,363.6,229.6,296.35c-37.11-26.15-67.9-50.4-91.68-69.14h0c-6.86-5.4-13.14-10.35-18.82-14.75
	c-12.34-9.56-22.59-17.14-29.67-20.69c-1.85-0.92-3.92-1.81-6.06-2.31c-1.96-0.46-5.35-0.94-8.88,0.6c-4.2,1.84-6.27,5.44-6.99,8.62
	C66.87,201.44,67.15,204.12,67.51,206.11z M87.12,202.04c0,0,0,0.01,0,0.04C87.12,202.06,87.12,202.04,87.12,202.04z M915.13,940.33
	l281.17-4.93c0.02,0.18,0.05,0.36,0.09,0.54c6.23,30.86,14.71,61.06,22.69,89.5c2.05,7.29,4.07,14.46,6,21.5
	c9.59,34.87,17.2,66.29,18.28,93.84c1.07,27.31-4.33,49.7-19.72,67.53c-15.58,18.03-42.68,32.88-88.21,42.12
	c-45.38,9.21-78.3,6.19-103.06-5.34c-24.66-11.48-42.68-32.07-56.96-61.05c-14.35-29.13-24.56-66.03-33.86-109.07
	c-5.06-23.42-9.72-48-14.63-73.87l0-0.01l0-0.01l0,0l0-0.01C923.22,981.58,919.38,961.35,915.13,940.33z"/>
</svg>
