<?xml version="1.0" encoding="utf-8"?>
<!-- Generator: Adobe Illustrator 27.10.0, SVG Export Plug-In . SVG Version: 6.00 Build 0)  -->
<svg version="1.1" id="Capa_1" xmlns="http://www.w3.org/2000/svg" xmlns:xlink="http://www.w3.org/1999/xlink" x="0px" y="0px"
	 viewBox="0 0 1400 1400" style="enable-background:new 0 0 1400 1400;" xml:space="preserve">
<style type="text/css">
	.st0{fill:none;stroke:#3D1F12;stroke-width:40;stroke-linecap:square;}
	.st1{fill-rule:evenodd;clip-rule:evenodd;fill:#9E5E37;}
	.st2{fill-rule:evenodd;clip-rule:evenodd;}
</style>
<path class="st0" d="M354.42,973.81c0-16.14,20.11-6.45,26.16-18.69c3.51-7.12,25.88-9.82,33.16-11.69
	c5.17-1.33,10.42-2.88,15.38-4.15c2.96-0.76,8.62-3.9,11.12-5.92c3.29-2.67,2.22-1.81,3.5-5.85c1.24-3.9,6.07-13.29,6.07-4.23
	c0,6.05-1.33,10.06-2.99,15.31c-1.55,4.87-4.7,11.05-4.7,15.85c0,2.7-0.22,6.4-0.49,9.97 M441.63,964.39
	c-0.45,5.96-1.05,11.57-1.05,11.57v-8.39C440.58,966.24,441,965.25,441.63,964.39z M441.63,964.39c0.86-1.18,2.12-2.11,3.22-3.35
	c0.46-0.52,6.5-7.07,6.5-5.77v7.46 M451.35,962.73c0-3.56,0.36-5.84,2.31-9c1.94-3.15,3.03,4.36,3.5,6.23
	c4.39,17.27-1.2,37.56-1.2,54.7c0,11.5-1.54,22.66-1.54,34.62c0,14.64,1.54,28.41,1.54,42.92c0,12.87-2.33,28.31,1.45,40.24
	c2.07,6.52-1.36,9.31-6.07,13.07c-5.16,4.13-11.15,2.16-16.93,4.47c-5.02,2-15.11-1.17-18.8,2.15c-4.96,4.46-8.23,5.51-15.04,5.85
	c-12.41,0.62-22.17,10.38-35.39,11.08c-5.02,0.26-9.63,5.25-15.39,5.53c-4.06,0.21-12.68,1.66-15.72,3.85
	c-3.05,2.19-13.35,1.69-17.35,1.69c-4.79,0-10.94,2.92-15.47,4.08c-5.68,1.46-14,0.08-19.92,0.08c-6.84,0-13.54,1.38-20,1.38h-20
	c-1.58,0-7.28-1.56-8.12-2.77c-1.69-2.42-5.8-0.94-8.04-3.46c-3.03-3.41-10.89-3.6-13.84-6.92c-0.51-0.57-5.22-3.36-6.16-3.46
	c-3.29-0.37-3.48-2.79-5.38-4.16c-17.79-12.81-26.93-34.66-26.93-55.39c0-3.63-2.18-4.34-2.99-7.61c-0.71-2.88,0.82-5.57-1.28-7.93
	c-1.86-2.09-1.77-17.34-1.88-20.15c-0.5-12.19-1.54-24.37-1.54-36.31c0-11.04-1.37-21.31,6.15-29.78
	c6.55-7.36,13.57-14.91,20.01-22.15c2.75-3.1,8.95-6.46,13.16-7.54c5.66-1.46,10.38-5.81,15.38-8.39
	c5.97-3.07,11.54-7.02,18.38-8.39c4.29-0.86,13.43-4.33,16.93-6.85c9.59-6.91,24.25-9.89,36.15-11.08c8.22-0.82,15.65-5.18,23.08-8
	c5.88-2.23,12.42-2.35,18.46-4.77c6.62-2.65,15.14,1.18,21.54-1.39c4.36-1.75,14-2.46,18.46-2.46c11.17,0,25.54-6.51,36.93-1.38
	 M451.35,962.73v54.54 M414.42,935.04c0.62-5,18.38-4.93,20.09-10.31c2.19-6.91,21.45,2.65,21.45-7.69 M455.96,933.65
	c14.46,0,6.15,21.03,6.15,29.08 M469.81,1135.82c0,8.15-6.39,6.93-13.85,6.93H397.5c-12.23,0-23.8,3.75-35.73,4.15
	c-9.89,0.33-18.87,5.54-29.23,5.54c-11.55,0-23.07,4.15-35.05,4.15c-16.26,0-32.14,2.77-48.46,2.77
	c-10.71,0-23.38-16.18-29.15-22.85c-9.8-11.34-17.77-21-17.77-36c0-14.48-3.08-29.65-3.08-44.31c0-4.73,5.74-14.11,8.55-18.08
	c5.3-7.49,15.19-12.58,20.34-20c0.43-0.63,1-1.38,1.64-2.15 M229.56,1015.97c1.45-1.76,3.29-3.64,4.85-4.47
	c3.81-2.01,0.12,1.99-1.53,2.77C231.73,1014.82,230.63,1015.39,229.56,1015.97z M229.56,1015.97c-2.93,1.57-5.7,3.21-8.99,4.61
	c-3.29,1.4-7.21,5.47-10.77,5.85c-1.99,0.21-8.91,4.01-7.01-1.23c1.98-5.47,6.76-11.97,11.97-15.39
	c10.47-6.89,18.27-16.3,30.77-20.46c9.33-3.11,20.01-7.93,28.54-12.77c7.97-4.51,18.16-6.82,26.5-10.77
	c18.63-8.83,49.86-9.84,70.77-7.15c7.22,0.93,15.02,6.99,22.4,8.85c7.78,1.96,15.17,4.4,22.91,6.39
	c4.38,1.13,12.06,7.57,13.07,11.69c3.39,13.73,10.86,27.78,10.86,42.31c0,12.99,3.06,29.43-0.09,42.16
	c-0.93,3.77-3.68,7.28-4.61,11.08c-0.53,2.14-1.73,3.65-3.11,5 M432.77,1086.13c-1.77,1.72-3.86,3.2-5.27,5.46
	c-5.49,8.79-11.59,16.58-17.72,24.77 M432.77,1086.13c-0.9,7.68-2.53,15.18-5.7,22.31c-3.1,6.97-9.11,7.53-17.29,7.92
	 M432.77,1086.13c1.76-15.07,0.7-30.8,2.85-45.55c1.61-11.06-3.28-26.3-8.55-36.31c-5.03-9.55-16.45-14.95-28.03-15.23
	c-20.98-0.51-43.82,2.57-64.62-0.31c-13.03-1.8-32.17-3.57-44.96,0c-19.61,5.48-53.18,17.96-56.67,38.39
	c-2.9,16.96-4.53,32.5-4.53,49.85c0,9.9-4.44,28.93,3.08,37.39c7.41,8.34,19,5.75,29.23,8.31c8.59,2.14,18.94,0.69,27.69,0.69
	c7.98,0,16.77,0.91,24.62-0.69c11.52-2.36,23.38-2.58,34.53-6.23c23.95-7.84,45.46-28.06,55.47-49.09
	c3.3-6.92,12.64-29.86,6.07-37.46c-5.25-6.08-11.55-8.76-19.74-11c-17.68-4.84-39.24-3.54-57.53-3.54c-23.5,0-48.67-1.48-70.43,8.31
	c-8.96,4.03-9.91,19.94-9.91,27.39c0,7.58,1.85,15.23,5.99,21.46 M409.78,1116.36c-0.53,0.72-1.06,1.43-1.6,2.15
	c-5.39,7.28-17.08,12.5-26.15,14.54c-10.19,2.3-13.32,0.23-2.91-4.92c8.02-3.97,19.74-11.25,29.15-11.69
	C408.78,1116.41,409.29,1116.39,409.78,1116.36z M257.33,1072.51c4.25,6.4,10.93,11.32,20.51,13.15c3.49,0.67,6.95,1.21,10.4,1.63
	 M257.33,1072.51c5.52-3.04,11.25-5.91,17.09-8.59 M257.33,1072.51c-4.61,2.53-9.07,5.18-13.34,7.92
	c-11.77,7.57-17.05,20.62,2.39,20.62c5.02,0,9.82-0.42,14.49-1.21 M288.24,1087.29c1.87,0.22,3.74,0.41,5.6,0.56 M288.24,1087.29
	c1.53-0.48,3.03-0.88,4.47-1.16c4.77-0.96,3.74,0.17,1.13,1.72 M288.24,1087.29c-8.72,2.71-18.71,8.12-26.05,11.84
	c-0.5,0.25-0.94,0.49-1.32,0.71 M293.84,1087.85c17.84,1.43,35.15-0.61,52.89-6.03c8.97-2.74,48.37-15.62,30.77-27.39
	c-1.03-0.69-2.08-1.33-3.16-1.93 M293.84,1087.85c-2.83,1.68-7.51,3.84-8.65,4.35c-7.95,3.58-15.91,6.21-24.32,7.64 M374.34,1052.5
	c-20.72-11.58-49.41-7.08-70.69-0.07c-9.74,3.21-19.63,7.09-29.23,11.49 M374.34,1052.5c5.04,0.63,9.57,2.13,12.3,5.01
	c1.73,1.8,3.6,17.96,0.77,18.69c-7.5,1.93-14.85,4.65-22.56,6.39c-29.78,6.7-60.99,17.72-91.72,19.84
	c-4.58,0.32-20.26,2.03-12.26-2.59 M374.34,1052.5c-8.12-1.01-17.58,0.27-23.08,1.78c-19.39,5.31-36.71,14.92-56.5,19.08
	c-3.36,0.7-17.66,4.78-18.89,0.92c-1.08-3.4-1.44-6.38-1.45-10.36 M274.42,1063.92c0-0.08,0-0.17,0-0.26
	c0-10.68,2.99-20.8,13.84-26.77c8.86-4.87,19.72-3.54,29.66-3.54c16.59,0-64.49-3.9-49.66,2.77 M257.49,1126.13
	c-2.9,5.56-8.1,9.04-10.77,13.85 M474.17,1156.56c-30.87,5.61-61.08,13.24-89.53,20.43c-7.29,1.85-14.47,3.66-21.51,5.41
	c-34.88,8.63-66.31,15.48-93.87,16.45c-27.31,0.96-49.72-3.89-67.55-17.75c-18.04-14.03-32.89-38.43-42.13-79.42
	c-9.21-40.86-6.2-70.5,5.34-92.79c11.48-22.2,32.08-38.43,61.06-51.28c29.15-12.92,66.06-22.12,109.11-30.48
	c23.44-4.56,48.03-8.76,73.92-13.18c22.08-3.77,45.1-7.7,69.15-12.15c5.41-1,8.9-5.76,7.78-10.63c-1.11-4.87-6.4-8.01-11.81-7.01
	c-23.2,4.29-46.16,8.22-68.36,12.01c-26.33,4.5-51.59,8.82-74.91,13.35c-43.35,8.43-82.27,17.99-113.72,31.93
	c-31.61,14.02-56.36,32.77-70.36,59.83c-13.95,26.96-16.53,60.86-6.81,103.97c9.68,42.97,25.92,71.78,48.67,89.46
	c22.95,17.85,51.02,23.19,81.4,22.12c30.14-1.06,63.61-8.47,98.39-17.08c7.26-1.8,14.59-3.65,21.98-5.52
	c28.37-7.17,57.65-14.57,87.71-20.03c5.42-0.98,8.92-5.73,7.83-10.6C484.86,1158.73,479.58,1155.58,474.17,1156.56z"/>
<path class="st1" d="M1202.65,56.97C1202.82,56.94,1202.48,57.01,1202.65,56.97c4.5-0.5,10.19,0.68,8.83,0.37
	c3.18,0.72,6.78,2.8,8.62,6.99c1.54,3.53,1.06,6.92,0.6,8.88c-0.51,2.14-1.39,4.22-2.31,6.06c-3.55,7.08-11.13,17.33-20.69,29.67
	c-4.4,5.68-9.35,11.96-14.75,18.82c-18.74,23.78-43,54.58-69.14,91.68c-67.26,95.46-146.03,231.4-171.3,390.91l-17.36,763.62
	c-0.07,5.53,3.53,26.07-1.99,26.01l-0.07-0.01H479.25c-4.5,0,4.36,0.31,0,0h-0.06h-0.04l0,0c-5.52,0-10-4.47-10-10
	c0-0.08,0-0.15,0-0.23s0-0.15,0.01-0.22c0.01-0.21,0.03-0.42,0.05-0.63l0.31-494.55c-26.55,0.39-54.55,2.28-83.05,4.2l0,0h-0.02l0,0
	h-0.01h-0.01h-0.01c-10.02,0.67-20.11,1.35-30.21,1.97c-42.12,2.58-84.4,4.11-121.99-0.49c-37.54-4.6-71.71-15.45-96.51-38.75
	c-25.09-23.58-39.15-58.5-39.19-108.04c-0.04-48.61,8.87-83.84,27.1-108.66c18.41-25.08,45.18-38,77.36-44.39
	c31.93-6.34,70.23-6.44,112.93-5.13c12.41,0.38,25.21,0.88,38.39,1.4l0,0h0.01h0.01c31.64,1.24,65.49,2.57,101.54,2.53
	c70.68-83.1,155.46-125.34,224.7-147.28c35.12-11.13,66.28-17.06,89.66-20.46c11.69-1.7,21.44-2.77,28.7-3.53
	c0.53-0.06,2.01-0.21,2.51-0.26l-2.51,0.26c1.46-0.15,7.39-0.77,9.12-0.97c43.33-82.7,129.36-173.95,209.81-244.54
	c41.06-36.02,80.98-66.95,113.57-88.89c16.28-10.96,30.88-19.79,42.99-25.9c6.05-3.05,11.63-5.51,16.59-7.21
	C1195.22,58.75,1198.64,57.17,1202.65,56.97z"/>
<path class="st2" d="M1194.04,67.36c-0.17,0.03-0.34,0.07-0.51,0.11c-4.01,0.2-8.31,1.29-12.53,2.73
	c-4.96,1.7-10.54,4.15-16.59,7.21c-12.1,6.11-26.71,14.94-42.99,25.9c-32.59,21.94-72.51,52.87-113.57,88.89
	c-80.45,70.59-166.48,161.84-209.81,244.54l-0.23,0.03c-1.73,0.2-3.82,0.42-6.32,0.68l-0.05,0.01c-0.8,0.08-1.63,0.17-2.51,0.26
	c-7.27,0.76-17.01,1.83-28.7,3.53c-23.38,3.4-54.55,9.33-89.66,20.46c-69.24,21.95-154.02,64.19-224.7,147.28
	c-36.05,0.04-69.91-1.29-101.55-2.53c-13.19-0.52-25.99-1.02-38.4-1.4c-42.7-1.31-81-1.21-112.93,5.13
	c-32.18,6.39-58.95,19.31-77.36,44.39c-18.23,24.82-27.14,60.05-27.1,108.66c0.04,49.54,14.1,84.47,39.19,108.04
	c24.8,23.3,58.97,34.15,96.51,38.75c37.59,4.6,79.87,3.07,121.99,0.49c10.12-0.62,20.22-1.3,30.26-1.98l0,0
	c5.88-0.4,11.75-0.79,17.58-1.17c-25.68,4.88-50.32,9.57-73.1,14.49c-43.34,9.36-82.24,19.98-113.68,35.47
	c-31.6,15.57-56.35,36.4-70.34,66.46c-13.95,29.95-16.53,67.59-6.81,115.48c9.68,47.73,25.92,79.73,48.65,99.36
	c22.95,19.82,51.01,25.76,81.38,24.58c30.13-1.18,63.59-9.42,98.36-18.98c7.25-2,14.57-4.05,21.94-6.12l0.03-0.01
	c27.4-7.69,55.65-15.62,84.63-21.62l3.03,173.67l0.17,10l20-0.35l-0.17-10l-8.63-492l-0.04-2.57c0.03-0.32,0.05-0.64,0.05-0.97
	c0-0.45-0.03-0.89-0.09-1.33l-0.09-5.13l-2.16,0.04c-1.83-2.19-4.59-3.58-7.66-3.58c-30.21-0.01-62.64,2.18-94.89,4.35
	c-9.92,0.67-19.83,1.34-29.64,1.94c-42.08,2.58-82.75,3.98-118.34-0.38c-35.65-4.37-64.9-14.37-85.24-33.48
	c-20.05-18.83-32.85-47.86-32.89-93.48c-0.03-46.55,8.57-76.85,23.22-96.81c14.47-19.7,35.94-30.81,65.14-36.6
	c29.45-5.84,65.67-6.07,108.41-4.75c12.11,0.37,24.72,0.87,37.8,1.38c32.7,1.28,68.29,2.68,105.97,2.55c0.23,0,0.47-0.01,0.71-0.03
	c3.11,0.23,6.28-0.99,8.43-3.57c68.2-81.79,150.75-123.17,218.41-144.62c33.83-10.72,63.89-16.44,86.5-19.73
	c11.3-1.64,20.74-2.68,27.91-3.43c0.27-0.03,0.55-0.06,0.81-0.08c0.56-0.06,1.1-0.12,1.63-0.17c2.54-0.26,4.79-0.5,6.65-0.71
	c2.25-0.26,4.61-0.56,6.35-1c0.74-0.19,1.45-0.45,2.1-0.78c2.12-0.88,3.95-2.5,5.07-4.7c40.77-80.35,126.06-171.54,207.41-242.92
	c40.55-35.58,79.8-65.96,111.55-87.34c15.89-10.7,29.74-19.04,40.83-24.63c4.02-2.03,7.59-3.66,10.7-4.89
	c-3.12,4.41-7.2,9.83-12.24,16.34c-4.28,5.52-9.13,11.69-14.47,18.46c-18.75,23.8-43.46,55.17-69.96,92.77
	c-66.86,94.88-146.02,230.73-173.34,391.03h-1.57l-0.02,10v0.4c0,0.07,0,0.15,0,0.22l-1.37,770.38l-0.02,10l20,0.03l0.02-10
	l1.37-769.71c25.27-159.5,104.02-295.41,171.27-390.85c26.15-37.11,50.4-67.9,69.14-91.68l0,0c5.4-6.86,10.35-13.14,14.75-18.82
	c9.56-12.34,17.14-22.59,20.69-29.67c0.92-1.85,1.81-3.92,2.31-6.06c0.46-1.96,0.94-5.35-0.6-8.88c-1.84-4.2-5.44-6.27-8.62-6.99
	C1198.71,66.72,1196.03,67,1194.04,67.36z M1198.11,86.97c0,0-0.01,0-0.04,0C1198.09,86.97,1198.11,86.97,1198.11,86.97z
	 M459.82,914.98l4.93,281.17c-0.18,0.02-0.36,0.05-0.54,0.09c-30.86,6.23-61.06,14.71-89.5,22.69c-7.29,2.05-14.46,4.07-21.5,6
	c-34.87,9.59-66.29,17.2-93.84,18.28c-27.31,1.07-49.7-4.33-67.53-19.72c-18.03-15.58-32.88-42.68-42.12-88.21
	c-9.21-45.38-6.19-78.3,5.34-103.06c11.48-24.66,32.07-42.68,61.05-56.96c29.13-14.35,66.03-24.56,109.07-33.86
	c23.42-5.06,48-9.72,73.87-14.63h0.01h0.01l0,0h0.01C418.57,923.07,438.8,919.23,459.82,914.98z"/>
</svg>
