<svg width="5000" height="5000" viewBox="0 0 5000 5000" fill="none" xmlns="http://www.w3.org/2000/svg">
<g clip-path="url(#clip0_5_551)">
<rect y="500" width="5000" height="4044" fill="#9CD08F"/>
<rect x="-10" y="-10" width="5020" height="520" fill="#153131" stroke="black" stroke-width="20"/>
<rect x="-10" y="4490" width="5020" height="520" fill="#153131" stroke="black" stroke-width="20"/>
<path d="M1726.5 4040H1641.5V4127.5H1604V4040H1519.5V4004H1604V3916.5H1641.5V4004H1726.5V4040ZM1931.83 4171V3831H2037.83C2070.5 3831 2095.33 3839.67 2112.33 3857C2129.67 3874 2138.33 3896.83 2138.33 3925.5V3952C2138.33 3980.67 2129.67 4003.67 2112.33 4021C2095.33 4038.33 2070.5 4047 2037.83 4047H1975.33V4171H1931.83ZM2037.83 3872H1975.33V4006.5H2037.83C2055.83 4006.5 2069.5 4001.67 2078.83 3992C2088.5 3982.33 2093.33 3969 2093.33 3952V3925.5C2093.33 3908.83 2088.5 3895.83 2078.83 3886.5C2069.5 3876.83 2055.83 3872 2037.83 3872ZM2373.06 4171L2347.56 4092H2218.56L2193.06 4171H2150.56L2263.56 3831H2304.56L2418.06 4171H2373.06ZM2250.06 3994L2231.06 4052.5H2334.56L2315.56 3994L2283.06 3889L2250.06 3994ZM2551.14 4137C2572.14 4137 2588.3 4132.5 2599.64 4123.5C2610.97 4114.17 2616.64 4100.67 2616.64 4083C2616.64 4068.33 2612.64 4056 2604.64 4046C2596.97 4036 2584.3 4028.33 2566.64 4023L2526.14 4011C2500.8 4003.33 2482.14 3991.83 2470.14 3976.5C2458.14 3960.83 2452.14 3941.67 2452.14 3919C2452.14 3901.67 2455.47 3886 2462.14 3872C2469.14 3858 2480.14 3846.83 2495.14 3838.5C2510.47 3830.17 2530.47 3826 2555.14 3826C2570.14 3826 2585.64 3827.83 2601.64 3831.5C2617.64 3834.83 2633.8 3840.33 2650.14 3848L2636.14 3885.5C2620.14 3878.5 2605.64 3873.5 2592.64 3870.5C2579.97 3867.17 2567.8 3865.5 2556.14 3865.5C2537.14 3865.5 2522.3 3869.5 2511.64 3877.5C2501.3 3885.17 2496.14 3898 2496.14 3916C2496.14 3929 2499.64 3940 2506.64 3949C2513.64 3957.67 2526.14 3964.83 2544.14 3970.5L2584.64 3982.5C2635.3 3997.5 2660.64 4029.83 2660.64 4079.5C2660.64 4108.17 2651.97 4131.5 2634.64 4149.5C2617.3 4167.17 2589.47 4176 2551.14 4176C2535.47 4176 2518.8 4174.17 2501.14 4170.5C2483.8 4166.5 2465.8 4160.33 2447.14 4152L2460.64 4115C2478.3 4123 2494.14 4128.67 2508.14 4132C2522.47 4135.33 2536.8 4137 2551.14 4137ZM2924.57 4130.5V4171H2734.57V3831H2919.57V3872H2778.07V3978.5H2904.57V4019.5H2778.07V4130.5H2924.57ZM3231.69 3963.5V4038C3231.69 4080.33 3221.02 4114 3199.69 4139C3178.69 4163.67 3148.36 4176 3108.69 4176C3069.02 4176 3038.52 4163.67 3017.19 4139C2996.19 4114 2985.69 4080.33 2985.69 4038V3963.5C2985.69 3921.5 2996.19 3888.17 3017.19 3863.5C3038.52 3838.5 3069.02 3826 3108.69 3826C3148.36 3826 3178.69 3838.5 3199.69 3863.5C3221.02 3888.17 3231.69 3921.5 3231.69 3963.5ZM3186.69 3963.5C3186.69 3932.5 3180.02 3908.67 3166.69 3892C3153.69 3875 3134.36 3866.5 3108.69 3866.5C3083.36 3866.5 3064.02 3875 3050.69 3892C3037.36 3908.67 3030.69 3932.5 3030.69 3963.5V4038C3030.69 4069.33 3037.36 4093.5 3050.69 4110.5C3064.02 4127.5 3083.36 4136 3108.69 4136C3134.36 4136 3153.69 4127.5 3166.69 4110.5C3180.02 4093.5 3186.69 4069.33 3186.69 4038V3963.5ZM3393.42 4137C3414.42 4137 3430.59 4132.5 3441.92 4123.5C3453.26 4114.17 3458.92 4100.67 3458.92 4083C3458.92 4068.33 3454.92 4056 3446.92 4046C3439.26 4036 3426.59 4028.33 3408.92 4023L3368.42 4011C3343.09 4003.33 3324.42 3991.83 3312.42 3976.5C3300.42 3960.83 3294.42 3941.67 3294.42 3919C3294.42 3901.67 3297.76 3886 3304.42 3872C3311.42 3858 3322.42 3846.83 3337.42 3838.5C3352.76 3830.17 3372.76 3826 3397.42 3826C3412.42 3826 3427.92 3827.83 3443.92 3831.5C3459.92 3834.83 3476.09 3840.33 3492.42 3848L3478.42 3885.5C3462.42 3878.5 3447.92 3873.5 3434.92 3870.5C3422.26 3867.17 3410.09 3865.5 3398.42 3865.5C3379.42 3865.5 3364.59 3869.5 3353.92 3877.5C3343.59 3885.17 3338.42 3898 3338.42 3916C3338.42 3929 3341.92 3940 3348.92 3949C3355.92 3957.67 3368.42 3964.83 3386.42 3970.5L3426.92 3982.5C3477.59 3997.5 3502.92 4029.83 3502.92 4079.5C3502.92 4108.17 3494.26 4131.5 3476.92 4149.5C3459.59 4167.17 3431.76 4176 3393.42 4176C3377.76 4176 3361.09 4174.17 3343.42 4170.5C3326.09 4166.5 3308.09 4160.33 3289.42 4152L3302.92 4115C3320.59 4123 3336.42 4128.67 3350.42 4132C3364.76 4135.33 3379.09 4137 3393.42 4137Z" fill="#040F0F"/>
<path d="M4050.42 2270.8C4087.43 2438.07 4006.72 2634.55 3843.98 2817.5C3681.39 3000.3 3437.73 3168.51 3151.52 3278.46C2865.3 3388.41 2591.22 3419.09 2379.56 3380.07C2167.71 3341.01 2019.52 3232.47 1982.52 3065.19C1945.51 2897.91 2026.23 2701.43 2188.96 2518.48C2351.56 2335.69 2595.21 2167.47 2881.42 2057.52C3168 1947.44 3436.53 1891.76 3645.3 1918.26C3853.77 1944.72 4002.24 2052.97 4050.42 2270.8Z" fill="#733333" stroke="black" stroke-width="11"/>
<path d="M3985.66 2137.82C4021.15 2280.87 3942.93 2458.66 3786.26 2630.81C3629.71 2802.84 3395.42 2968.54 3120.46 3087C2845.51 3205.47 2582.18 3254.16 2378.76 3237.23C2175.17 3220.29 2032.35 3137.74 1996.86 2994.69C1961.37 2851.64 2039.6 2673.86 2196.27 2501.7C2352.81 2329.68 2587.11 2163.97 2862.06 2045.51C3137.02 1927.05 3400.34 1878.35 3603.77 1895.28C3807.35 1912.23 3950.17 1994.78 3985.66 2137.82Z" fill="#D9D9D9" stroke="black" stroke-width="5"/>
<path d="M3923.1 2178.58C3949.99 2300.15 3870.92 2450.8 3719.48 2596.44C3568.22 2741.9 3345.52 2881.54 3087.22 2980.77C2828.93 3079.99 2584.17 3119.92 2397.29 3104.36C2210.18 3088.79 2082.06 3017.72 2055.17 2896.15C2028.28 2774.57 2107.34 2623.92 2258.79 2478.28C2410.05 2332.83 2632.75 2193.18 2891.04 2093.96C3149.47 1994.68 3390.21 1936.59 3575.04 1943.07C3759.87 1949.55 3888.13 2020.51 3923.1 2178.58Z" fill="#9CD08F" stroke="black" stroke-width="5"/>
<path d="M1595.41 1594.59C1362.07 1219.48 362 762 362 762L498.299 958.423C498.299 958.423 1299.47 1358.96 1522.89 1676.87C1815.62 2093.41 1985.51 3034.14 1985.51 3034.14L1960.66 2870.46C1960.66 2870.46 1852.12 2007.27 1595.41 1594.59Z" fill="#733333" stroke="black" stroke-width="5" stroke-linecap="round"/>
<path d="M4023.28 2619.44C4041.95 2619.44 4057.95 2608.95 4068.9 2593.79C4079.86 2578.61 4086.33 2558.15 4086.33 2536C4086.33 2513.86 4079.86 2493.39 4068.9 2478.22C4057.95 2463.06 4041.95 2452.57 4023.28 2452.57C4004.62 2452.57 3988.62 2463.06 3977.67 2478.22C3966.71 2493.39 3960.24 2513.86 3960.24 2536C3960.24 2558.15 3966.71 2578.61 3977.67 2593.79C3988.62 2608.95 4004.62 2619.44 4023.28 2619.44Z" stroke="#7B7875" stroke-width="20"/>
<path d="M4023.28 2619.44C4041.95 2619.44 4057.95 2608.95 4068.9 2593.79C4079.86 2578.61 4086.33 2558.15 4086.33 2536C4086.33 2513.86 4079.86 2493.39 4068.9 2478.22C4057.95 2463.06 4041.95 2452.57 4023.28 2452.57C4004.62 2452.57 3988.62 2463.06 3977.67 2478.22C3966.71 2493.39 3960.24 2513.86 3960.24 2536C3960.24 2558.15 3966.71 2578.61 3977.67 2593.79C3988.62 2608.95 4004.62 2619.44 4023.28 2619.44Z" stroke="black" stroke-width="20"/>
<path d="M4130.63 2429.08L3972.21 2701.73C3972.21 2701.73 3868.44 2686.04 3856.52 2745.04C3849.14 2781.56 3849.59 2849 3878.76 2848.19C3899.33 2847.62 3964.98 2810.71 3964.98 2810.71C3964.98 2810.71 3966.36 2921.03 3990.55 2929.34C4021.44 2939.95 4046.64 2894.23 4056.38 2854.65C4067.52 2809.34 4043.78 2748.71 4043.78 2748.71L4206.14 2456.21C4206.14 2456.21 4274.16 2440.59 4287.53 2396.81C4297.03 2365.73 4299.56 2335.59 4281.54 2312.12C4261.85 2286.44 4200.7 2342.38 4200.7 2342.38C4200.7 2342.38 4185.71 2248.06 4160.22 2243.18C4133.89 2238.14 4116.33 2264.06 4101.23 2292.68C4076.89 2338.82 4130.63 2429.08 4130.63 2429.08Z" fill="#D9CAB3" stroke="black" stroke-width="5" stroke-linecap="round"/>
</g>
<defs>
<clipPath id="clip0_5_551">
<rect width="5000" height="5000" fill="white"/>
</clipPath>
</defs>
</svg>
