<svg width="5000" height="5000" viewBox="0 0 5000 5000" fill="none" xmlns="http://www.w3.org/2000/svg">
<g clip-path="url(#clip0_5_581)">
<rect y="500" width="5000" height="4000" fill="#90323D"/>
<path d="M812 4012V3672H918C950.667 3672 975.5 3680.67 992.5 3698C1009.83 3715 1018.5 3737.83 1018.5 3766.5V3793C1018.5 3821.67 1009.83 3844.67 992.5 3862C975.5 3879.33 950.667 3888 918 3888H855.5V4012H812ZM918 3713H855.5V3847.5H918C936 3847.5 949.667 3842.67 959 3833C968.667 3823.33 973.5 3810 973.5 3793V3766.5C973.5 3749.83 968.667 3736.83 959 3727.5C949.667 3717.83 936 3713 918 3713ZM1137.73 3879V4012H1094.23V3672H1200.73C1232.73 3672 1257.39 3680.5 1274.73 3697.5C1292.39 3714.17 1301.23 3736.5 1301.23 3764.5V3786C1301.23 3806 1296.56 3823.33 1287.23 3838C1278.23 3852.67 1265.23 3863.5 1248.23 3870.5C1262.56 3893.5 1275.89 3916.83 1288.23 3940.5C1300.56 3964.17 1311.89 3988 1322.23 4012H1272.23C1253.23 3966.67 1231.06 3922.33 1205.73 3879H1137.73ZM1200.73 3712H1137.73V3839H1200.73C1217.73 3839 1231.23 3834.33 1241.23 3825C1251.23 3815.33 1256.23 3802.33 1256.23 3786V3764.5C1256.23 3747.83 1251.23 3735 1241.23 3726C1231.23 3716.67 1217.73 3712 1200.73 3712ZM1584.52 3971.5V4012H1394.52V3672H1579.52V3713H1438.02V3819.5H1564.52V3860.5H1438.02V3971.5H1584.52ZM1711.14 3672L1814.64 3924L1918.64 3672H1968.14V4012H1925.64V3866.5L1931.14 3735.5L1833.64 3972H1792.64L1697.14 3734.5L1702.64 3866.5V4012H1660.14V3672H1711.14ZM2118.2 4012H2074.7V3672H2118.2V4012ZM2456.1 3804.5V3879C2456.1 3921.33 2445.43 3955 2424.1 3980C2403.1 4004.67 2372.76 4017 2333.1 4017C2293.43 4017 2262.93 4004.67 2241.6 3980C2220.6 3955 2210.1 3921.33 2210.1 3879V3804.5C2210.1 3762.5 2220.6 3729.17 2241.6 3704.5C2262.93 3679.5 2293.43 3667 2333.1 3667C2372.76 3667 2403.1 3679.5 2424.1 3704.5C2445.43 3729.17 2456.1 3762.5 2456.1 3804.5ZM2411.1 3804.5C2411.1 3773.5 2404.43 3749.67 2391.1 3733C2378.1 3716 2358.76 3707.5 2333.1 3707.5C2307.76 3707.5 2288.43 3716 2275.1 3733C2261.76 3749.67 2255.1 3773.5 2255.1 3804.5V3879C2255.1 3910.33 2261.76 3934.5 2275.1 3951.5C2288.43 3968.5 2307.76 3977 2333.1 3977C2358.76 3977 2378.1 3968.5 2391.1 3951.5C2404.43 3934.5 2411.1 3910.33 2411.1 3879V3804.5ZM2617.83 3978C2638.83 3978 2654.99 3973.5 2666.33 3964.5C2677.66 3955.17 2683.33 3941.67 2683.33 3924C2683.33 3909.33 2679.33 3897 2671.33 3887C2663.66 3877 2650.99 3869.33 2633.33 3864L2592.83 3852C2567.49 3844.33 2548.83 3832.83 2536.83 3817.5C2524.83 3801.83 2518.83 3782.67 2518.83 3760C2518.83 3742.67 2522.16 3727 2528.83 3713C2535.83 3699 2546.83 3687.83 2561.83 3679.5C2577.16 3671.17 2597.16 3667 2621.83 3667C2636.83 3667 2652.33 3668.83 2668.33 3672.5C2684.33 3675.83 2700.49 3681.33 2716.83 3689L2702.83 3726.5C2686.83 3719.5 2672.33 3714.5 2659.33 3711.5C2646.66 3708.17 2634.49 3706.5 2622.83 3706.5C2603.83 3706.5 2588.99 3710.5 2578.33 3718.5C2567.99 3726.17 2562.83 3739 2562.83 3757C2562.83 3770 2566.33 3781 2573.33 3790C2580.33 3798.67 2592.83 3805.83 2610.83 3811.5L2651.33 3823.5C2701.99 3838.5 2727.33 3870.83 2727.33 3920.5C2727.33 3949.17 2718.66 3972.5 2701.33 3990.5C2683.99 4008.17 2656.16 4017 2617.83 4017C2602.16 4017 2585.49 4015.17 2567.83 4011.5C2550.49 4007.5 2532.49 4001.33 2513.83 3993L2527.33 3956C2544.99 3964 2560.83 3969.67 2574.83 3973C2589.16 3976.33 2603.49 3978 2617.83 3978ZM3100.14 3971.5V4012H2910.14V3672H3095.14V3713H2953.64V3819.5H3080.14V3860.5H2953.64V3971.5H3100.14ZM3337.27 4012L3256.27 3873.5L3178.27 4012H3132.77L3233.77 3836.5L3137.77 3672H3187.27L3262.27 3801.5L3335.77 3672H3380.77L3284.77 3838.5L3386.27 4012H3337.27ZM3403.2 3713V3672H3644.7V3713H3545.7V4012H3502.2V3713H3403.2ZM3747.59 3879V4012H3704.09V3672H3810.59C3842.59 3672 3867.26 3680.5 3884.59 3697.5C3902.26 3714.17 3911.09 3736.5 3911.09 3764.5V3786C3911.09 3806 3906.42 3823.33 3897.09 3838C3888.09 3852.67 3875.09 3863.5 3858.09 3870.5C3872.42 3893.5 3885.76 3916.83 3898.09 3940.5C3910.42 3964.17 3921.76 3988 3932.09 4012H3882.09C3863.09 3966.67 3840.92 3922.33 3815.59 3879H3747.59ZM3810.59 3712H3747.59V3839H3810.59C3827.59 3839 3841.09 3834.33 3851.09 3825C3861.09 3815.33 3866.09 3802.33 3866.09 3786V3764.5C3866.09 3747.83 3861.09 3735 3851.09 3726C3841.09 3716.67 3827.59 3712 3810.59 3712ZM4184.38 4012L4158.88 3933H4029.88L4004.38 4012H3961.88L4074.88 3672H4115.88L4229.38 4012H4184.38ZM4061.38 3835L4042.38 3893.5H4145.88L4126.88 3835L4094.38 3730L4061.38 3835Z" fill="#D9CAB3"/>
<path d="M812 4012H792V4032H812V4012ZM812 3672V3652H792V3672H812ZM992.5 3698L978.221 3712L978.357 3712.14L978.496 3712.28L992.5 3698ZM992.5 3862L978.358 3847.86L978.289 3847.93L978.221 3848L992.5 3862ZM855.5 3888V3868H835.5V3888H855.5ZM855.5 4012V4032H875.5V4012H855.5ZM855.5 3713V3693H835.5V3713H855.5ZM855.5 3847.5H835.5V3867.5H855.5V3847.5ZM959 3833L944.858 3818.86L944.734 3818.98L944.612 3819.11L959 3833ZM959 3727.5L944.612 3741.39L944.856 3741.64L945.108 3741.89L959 3727.5ZM832 4012V3672H792V4012H832ZM812 3692H918V3652H812V3692ZM918 3692C947.212 3692 966.141 3699.69 978.221 3712L1006.78 3684C984.859 3661.65 954.121 3652 918 3652V3692ZM978.496 3712.28C991.306 3724.84 998.5 3742.16 998.5 3766.5H1038.5C1038.5 3733.51 1028.36 3705.16 1006.5 3683.72L978.496 3712.28ZM998.5 3766.5V3793H1038.5V3766.5H998.5ZM998.5 3793C998.5 3817.33 991.306 3834.91 978.358 3847.86L1006.64 3876.14C1028.36 3854.42 1038.5 3826 1038.5 3793H998.5ZM978.221 3848C966.141 3860.31 947.212 3868 918 3868V3908C954.121 3908 984.859 3898.35 1006.78 3876L978.221 3848ZM918 3868H855.5V3908H918V3868ZM835.5 3888V4012H875.5V3888H835.5ZM855.5 3992H812V4032H855.5V3992ZM918 3693H855.5V3733H918V3693ZM835.5 3713V3847.5H875.5V3713H835.5ZM855.5 3867.5H918V3827.5H855.5V3867.5ZM918 3867.5C939.515 3867.5 959.138 3861.65 973.388 3846.89L944.612 3819.11C940.195 3823.68 932.485 3827.5 918 3827.5V3867.5ZM973.142 3847.14C987.427 3832.86 993.5 3813.94 993.5 3793H953.5C953.5 3806.06 949.907 3813.81 944.858 3818.86L973.142 3847.14ZM993.5 3793V3766.5H953.5V3793H993.5ZM993.5 3766.5C993.5 3745.8 987.359 3727.08 972.892 3713.11L945.108 3741.89C949.974 3746.59 953.5 3753.87 953.5 3766.5H993.5ZM973.388 3713.61C959.138 3698.85 939.515 3693 918 3693V3733C932.485 3733 940.195 3736.82 944.612 3741.39L973.388 3713.61ZM1137.73 3879V3859H1117.73V3879H1137.73ZM1137.73 4012V4032H1157.73V4012H1137.73ZM1094.23 4012H1074.23V4032H1094.23V4012ZM1094.23 3672V3652H1074.23V3672H1094.23ZM1274.73 3697.5L1260.72 3711.78L1260.86 3711.91L1261 3712.05L1274.73 3697.5ZM1287.23 3838L1270.35 3827.26L1270.27 3827.4L1270.18 3827.54L1287.23 3838ZM1248.23 3870.5L1240.61 3852.01L1218.75 3861.01L1231.25 3881.08L1248.23 3870.5ZM1288.23 3940.5L1270.49 3949.74L1270.49 3949.74L1288.23 3940.5ZM1322.23 4012V4032H1352.61L1340.6 4004.09L1322.23 4012ZM1272.23 4012L1253.78 4019.73L1258.92 4032H1272.23V4012ZM1205.73 3879L1222.99 3868.91L1217.2 3859H1205.73V3879ZM1137.73 3712V3692H1117.73V3712H1137.73ZM1137.73 3839H1117.73V3859H1137.73V3839ZM1241.23 3825L1254.87 3839.62L1255 3839.5L1255.13 3839.38L1241.23 3825ZM1241.23 3726L1227.58 3740.62L1227.71 3740.74L1227.85 3740.87L1241.23 3726ZM1117.73 3879V4012H1157.73V3879H1117.73ZM1137.73 3992H1094.23V4032H1137.73V3992ZM1114.23 4012V3672H1074.23V4012H1114.23ZM1094.23 3692H1200.73V3652H1094.23V3692ZM1200.73 3692C1229.21 3692 1248.2 3699.5 1260.72 3711.78L1288.73 3683.22C1266.59 3661.5 1236.24 3652 1200.73 3652V3692ZM1261 3712.05C1274.04 3724.35 1281.23 3741.09 1281.23 3764.5H1321.23C1321.23 3731.91 1310.75 3703.99 1288.45 3682.95L1261 3712.05ZM1281.23 3764.5V3786H1321.23V3764.5H1281.23ZM1281.23 3786C1281.23 3802.78 1277.35 3816.27 1270.35 3827.26L1304.1 3848.74C1315.77 3830.4 1321.23 3809.22 1321.23 3786H1281.23ZM1270.18 3827.54C1263.55 3838.34 1253.98 3846.5 1240.61 3852.01L1255.84 3888.99C1276.47 3880.5 1292.9 3866.99 1304.27 3848.46L1270.18 3827.54ZM1231.25 3881.08C1245.32 3903.65 1258.4 3926.54 1270.49 3949.74L1305.96 3931.26C1293.39 3907.13 1279.8 3883.35 1265.2 3859.92L1231.25 3881.08ZM1270.49 3949.74C1282.6 3972.98 1293.72 3996.37 1303.86 4019.91L1340.6 4004.09C1330.06 3979.63 1318.52 3955.35 1305.96 3931.26L1270.49 3949.74ZM1322.23 3992H1272.23V4032H1322.23V3992ZM1290.67 4004.27C1271.32 3958.11 1248.76 3912.98 1222.99 3868.91L1188.46 3889.09C1213.36 3931.68 1235.13 3975.23 1253.78 4019.73L1290.67 4004.27ZM1205.73 3859H1137.73V3899H1205.73V3859ZM1200.73 3692H1137.73V3732H1200.73V3692ZM1117.73 3712V3839H1157.73V3712H1117.73ZM1137.73 3859H1200.73V3819H1137.73V3859ZM1200.73 3859C1221.5 3859 1240.32 3853.2 1254.87 3839.62L1227.58 3810.38C1222.13 3815.47 1213.95 3819 1200.73 3819V3859ZM1255.13 3839.38C1269.7 3825.29 1276.23 3806.73 1276.23 3786H1236.23C1236.23 3797.94 1232.75 3805.38 1227.33 3810.62L1255.13 3839.38ZM1276.23 3786V3764.5H1236.23V3786H1276.23ZM1276.23 3764.5C1276.23 3743.62 1269.79 3724.8 1254.61 3711.13L1227.85 3740.87C1232.66 3745.2 1236.23 3752.04 1236.23 3764.5H1276.23ZM1254.87 3711.38C1240.32 3697.8 1221.5 3692 1200.73 3692V3732C1213.95 3732 1222.13 3735.53 1227.58 3740.62L1254.87 3711.38ZM1584.52 3971.5H1604.52V3951.5H1584.52V3971.5ZM1584.52 4012V4032H1604.52V4012H1584.52ZM1394.52 4012H1374.52V4032H1394.52V4012ZM1394.52 3672V3652H1374.52V3672H1394.52ZM1579.52 3672H1599.52V3652H1579.52V3672ZM1579.52 3713V3733H1599.52V3713H1579.52ZM1438.02 3713V3693H1418.02V3713H1438.02ZM1438.02 3819.5H1418.02V3839.5H1438.02V3819.5ZM1564.52 3819.5H1584.52V3799.5H1564.52V3819.5ZM1564.52 3860.5V3880.5H1584.52V3860.5H1564.52ZM1438.02 3860.5V3840.5H1418.02V3860.5H1438.02ZM1438.02 3971.5H1418.02V3991.5H1438.02V3971.5ZM1564.52 3971.5V4012H1604.52V3971.5H1564.52ZM1584.52 3992H1394.52V4032H1584.52V3992ZM1414.52 4012V3672H1374.52V4012H1414.52ZM1394.52 3692H1579.52V3652H1394.52V3692ZM1559.52 3672V3713H1599.52V3672H1559.52ZM1579.52 3693H1438.02V3733H1579.52V3693ZM1418.02 3713V3819.5H1458.02V3713H1418.02ZM1438.02 3839.5H1564.52V3799.5H1438.02V3839.5ZM1544.52 3819.5V3860.5H1584.52V3819.5H1544.52ZM1564.52 3840.5H1438.02V3880.5H1564.52V3840.5ZM1418.02 3860.5V3971.5H1458.02V3860.5H1418.02ZM1438.02 3991.5H1584.52V3951.5H1438.02V3991.5ZM1711.14 3672L1729.64 3664.4L1724.55 3652H1711.14V3672ZM1814.64 3924L1796.14 3931.6L1814.6 3976.53L1833.13 3931.63L1814.64 3924ZM1918.64 3672V3652H1905.26L1900.16 3664.37L1918.64 3672ZM1968.14 3672H1988.14V3652H1968.14V3672ZM1968.14 4012V4032H1988.14V4012H1968.14ZM1925.64 4012H1905.64V4032H1925.64V4012ZM1925.64 3866.5L1905.66 3865.66L1905.64 3866.08V3866.5H1925.64ZM1931.14 3735.5L1951.13 3736.34L1912.65 3727.88L1931.14 3735.5ZM1833.64 3972V3992H1847.03L1852.13 3979.62L1833.64 3972ZM1792.64 3972L1774.09 3979.46L1779.13 3992H1792.64V3972ZM1697.14 3734.5L1715.7 3727.04L1677.16 3735.33L1697.14 3734.5ZM1702.64 3866.5H1722.64V3866.08L1722.63 3865.67L1702.64 3866.5ZM1702.64 4012V4032H1722.64V4012H1702.64ZM1660.14 4012H1640.14V4032H1660.14V4012ZM1660.14 3672V3652H1640.14V3672H1660.14ZM1692.64 3679.6L1796.14 3931.6L1833.14 3916.4L1729.64 3664.4L1692.64 3679.6ZM1833.13 3931.63L1937.13 3679.63L1900.16 3664.37L1796.16 3916.37L1833.13 3931.63ZM1918.64 3692H1968.14V3652H1918.64V3692ZM1948.14 3672V4012H1988.14V3672H1948.14ZM1968.14 3992H1925.64V4032H1968.14V3992ZM1945.64 4012V3866.5H1905.64V4012H1945.64ZM1945.63 3867.34L1951.13 3736.34L1911.16 3734.66L1905.66 3865.66L1945.63 3867.34ZM1912.65 3727.88L1815.15 3964.38L1852.13 3979.62L1949.63 3743.12L1912.65 3727.88ZM1833.64 3952H1792.64V3992H1833.64V3952ZM1811.2 3964.54L1715.7 3727.04L1678.59 3741.96L1774.09 3979.46L1811.2 3964.54ZM1677.16 3735.33L1682.66 3867.33L1722.63 3865.67L1717.13 3733.67L1677.16 3735.33ZM1682.64 3866.5V4012H1722.64V3866.5H1682.64ZM1702.64 3992H1660.14V4032H1702.64V3992ZM1680.14 4012V3672H1640.14V4012H1680.14ZM1660.14 3692H1711.14V3652H1660.14V3692ZM2118.2 4012V4032H2138.2V4012H2118.2ZM2074.7 4012H2054.7V4032H2074.7V4012ZM2074.7 3672V3652H2054.7V3672H2074.7ZM2118.2 3672H2138.2V3652H2118.2V3672ZM2118.2 3992H2074.7V4032H2118.2V3992ZM2094.7 4012V3672H2054.7V4012H2094.7ZM2074.7 3692H2118.2V3652H2074.7V3692ZM2098.2 3672V4012H2138.2V3672H2098.2ZM2424.1 3980L2408.88 3967.02L2408.88 3967.03L2408.87 3967.04L2424.1 3980ZM2241.6 3980L2226.28 3992.86L2226.38 3992.97L2226.47 3993.08L2241.6 3980ZM2241.6 3704.5L2226.38 3691.52L2226.38 3691.53L2226.37 3691.54L2241.6 3704.5ZM2424.1 3704.5L2408.78 3717.36L2408.88 3717.47L2408.97 3717.58L2424.1 3704.5ZM2391.1 3733L2375.21 3745.15L2375.34 3745.32L2375.48 3745.49L2391.1 3733ZM2275.1 3733L2290.72 3745.49L2290.78 3745.42L2290.83 3745.34L2275.1 3733ZM2275.1 3951.5L2290.83 3939.16L2290.83 3939.16L2275.1 3951.5ZM2391.1 3951.5L2375.36 3939.16L2375.28 3939.25L2375.21 3939.35L2391.1 3951.5ZM2436.1 3804.5V3879H2476.1V3804.5H2436.1ZM2436.1 3879C2436.1 3917.98 2426.33 3946.58 2408.88 3967.02L2439.31 3992.98C2464.54 3963.42 2476.1 3924.69 2476.1 3879H2436.1ZM2408.87 3967.04C2392.51 3986.25 2368.34 3997 2333.1 3997V4037C2377.19 4037 2413.68 4023.08 2439.33 3992.96L2408.87 3967.04ZM2333.1 3997C2297.87 3997 2273.45 3986.25 2256.72 3966.92L2226.47 3993.08C2252.42 4023.08 2288.99 4037 2333.1 4037V3997ZM2256.91 3967.14C2239.74 3946.69 2230.1 3918.05 2230.1 3879H2190.1C2190.1 3924.62 2201.45 3963.31 2226.28 3992.86L2256.91 3967.14ZM2230.1 3879V3804.5H2190.1V3879H2230.1ZM2230.1 3804.5C2230.1 3765.82 2239.72 3737.55 2256.83 3717.46L2226.37 3691.54C2201.47 3720.78 2190.1 3759.18 2190.1 3804.5H2230.1ZM2256.81 3717.48C2273.56 3697.86 2297.96 3687 2333.1 3687V3647C2288.91 3647 2252.3 3661.14 2226.38 3691.52L2256.81 3717.48ZM2333.1 3687C2368.25 3687 2392.4 3697.86 2408.78 3717.36L2439.41 3691.64C2413.8 3661.14 2377.28 3647 2333.1 3647V3687ZM2408.97 3717.58C2426.34 3737.67 2436.1 3765.89 2436.1 3804.5H2476.1C2476.1 3759.11 2464.52 3720.66 2439.22 3691.42L2408.97 3717.58ZM2431.1 3804.5C2431.1 3770.95 2423.92 3742.01 2406.72 3720.51L2375.48 3745.49C2384.94 3757.32 2391.1 3776.05 2391.1 3804.5H2431.1ZM2406.98 3720.85C2389.43 3697.89 2363.6 3687.5 2333.1 3687.5V3727.5C2353.93 3727.5 2366.77 3734.11 2375.21 3745.15L2406.98 3720.85ZM2333.1 3687.5C2302.81 3687.5 2277.16 3697.96 2259.36 3720.66L2290.83 3745.34C2299.7 3734.04 2312.72 3727.5 2333.1 3727.5V3687.5ZM2259.48 3720.51C2242.27 3742.01 2235.1 3770.95 2235.1 3804.5H2275.1C2275.1 3776.05 2281.25 3757.32 2290.72 3745.49L2259.48 3720.51ZM2235.1 3804.5V3879H2275.1V3804.5H2235.1ZM2235.1 3879C2235.1 3912.86 2242.26 3942.04 2259.36 3963.84L2290.83 3939.16C2281.26 3926.96 2275.1 3907.81 2275.1 3879H2235.1ZM2259.36 3963.84C2277.16 3986.54 2302.81 3997 2333.1 3997V3957C2312.72 3957 2299.7 3950.46 2290.83 3939.16L2259.36 3963.84ZM2333.1 3997C2363.6 3997 2389.43 3986.61 2406.98 3963.65L2375.21 3939.35C2366.77 3950.39 2353.93 3957 2333.1 3957V3997ZM2406.83 3963.84C2423.93 3942.04 2431.1 3912.86 2431.1 3879H2391.1C2391.1 3907.81 2384.93 3926.96 2375.36 3939.16L2406.83 3963.84ZM2431.1 3879V3804.5H2391.1V3879H2431.1ZM2666.33 3964.5L2678.77 3980.16L2678.91 3980.05L2679.04 3979.94L2666.33 3964.5ZM2671.33 3887L2655.46 3899.17L2655.58 3899.33L2655.71 3899.49L2671.33 3887ZM2633.33 3864L2639.11 3844.85L2639.06 3844.84L2639.01 3844.82L2633.33 3864ZM2592.83 3852L2587.03 3871.14L2587.09 3871.16L2587.15 3871.18L2592.83 3852ZM2536.83 3817.5L2520.95 3829.66L2521.01 3829.74L2521.08 3829.83L2536.83 3817.5ZM2528.83 3713L2510.94 3704.06L2510.85 3704.23L2510.77 3704.4L2528.83 3713ZM2561.83 3679.5L2552.28 3661.93L2552.2 3661.97L2552.12 3662.02L2561.83 3679.5ZM2668.33 3672.5L2663.86 3691.99L2664.05 3692.04L2664.25 3692.08L2668.33 3672.5ZM2716.83 3689L2735.56 3696L2742.01 3678.73L2725.33 3670.9L2716.83 3689ZM2702.83 3726.5L2694.81 3744.82L2714.17 3753.29L2721.56 3733.5L2702.83 3726.5ZM2659.33 3711.5L2654.24 3730.84L2654.53 3730.92L2654.83 3730.99L2659.33 3711.5ZM2578.33 3718.5L2590.25 3734.56L2590.29 3734.53L2590.33 3734.5L2578.33 3718.5ZM2573.33 3790L2557.54 3802.28L2557.65 3802.42L2557.77 3802.57L2573.33 3790ZM2610.83 3811.5L2604.82 3830.58L2604.98 3830.63L2605.15 3830.68L2610.83 3811.5ZM2651.33 3823.5L2645.65 3842.68L2645.65 3842.68L2651.33 3823.5ZM2701.33 3990.5L2715.6 4004.51L2715.67 4004.44L2715.73 4004.37L2701.33 3990.5ZM2567.83 4011.5L2563.33 4030.99L2563.55 4031.04L2563.76 4031.08L2567.83 4011.5ZM2513.83 3993L2495.04 3986.14L2488.65 4003.66L2505.68 4011.26L2513.83 3993ZM2527.33 3956L2535.58 3937.78L2515.93 3928.88L2508.54 3949.14L2527.33 3956ZM2574.83 3973L2570.2 3992.46L2570.25 3992.47L2570.3 3992.48L2574.83 3973ZM2617.83 3998C2641.37 3998 2662.61 3992.99 2678.77 3980.16L2653.89 3948.84C2647.38 3954.01 2636.29 3958 2617.83 3958V3998ZM2679.04 3979.94C2695.93 3966.03 2703.33 3946.3 2703.33 3924H2663.33C2663.33 3937.03 2659.39 3944.31 2653.61 3949.06L2679.04 3979.94ZM2703.33 3924C2703.33 3905.49 2698.19 3888.56 2686.95 3874.51L2655.71 3899.49C2660.47 3905.44 2663.33 3913.18 2663.33 3924H2703.33ZM2687.2 3874.83C2676.05 3860.28 2659.01 3850.86 2639.11 3844.85L2627.55 3883.15C2642.98 3887.81 2651.28 3893.72 2655.46 3899.17L2687.2 3874.83ZM2639.01 3844.82L2598.51 3832.82L2587.15 3871.18L2627.65 3883.18L2639.01 3844.82ZM2598.62 3832.86C2575.84 3825.96 2561.27 3816.28 2552.58 3805.17L2521.08 3829.83C2536.38 3849.38 2559.15 3862.7 2587.03 3871.14L2598.62 3832.86ZM2552.71 3805.34C2543.77 3793.67 2538.83 3778.95 2538.83 3760H2498.83C2498.83 3786.38 2505.89 3810 2520.95 3829.66L2552.71 3805.34ZM2538.83 3760C2538.83 3745.29 2541.64 3732.61 2546.89 3721.6L2510.77 3704.4C2502.68 3721.39 2498.83 3740.04 2498.83 3760H2538.83ZM2546.72 3721.94C2551.74 3711.9 2559.71 3703.56 2571.54 3696.98L2552.12 3662.02C2533.95 3672.11 2519.92 3686.1 2510.94 3704.06L2546.72 3721.94ZM2571.38 3697.07C2582.82 3690.85 2599.2 3687 2621.83 3687V3647C2595.12 3647 2571.5 3651.48 2552.28 3661.93L2571.38 3697.07ZM2621.83 3687C2635.19 3687 2649.19 3688.63 2663.86 3691.99L2672.8 3653.01C2655.47 3649.03 2638.47 3647 2621.83 3647V3687ZM2664.25 3692.08C2678.58 3695.06 2693.26 3700.03 2708.33 3707.1L2725.33 3670.9C2707.73 3662.63 2690.08 3656.6 2672.41 3652.92L2664.25 3692.08ZM2698.09 3682L2684.09 3719.5L2721.56 3733.5L2735.56 3696L2698.09 3682ZM2710.84 3708.18C2694.04 3700.82 2678.34 3695.36 2663.83 3692.01L2654.83 3730.99C2666.32 3733.64 2679.62 3738.18 2694.81 3744.82L2710.84 3708.18ZM2664.42 3692.16C2650.29 3688.44 2636.41 3686.5 2622.83 3686.5V3726.5C2632.58 3726.5 2643.03 3727.89 2654.24 3730.84L2664.42 3692.16ZM2622.83 3686.5C2601.28 3686.5 2581.65 3691.01 2566.33 3702.5L2590.33 3734.5C2596.34 3729.99 2606.37 3726.5 2622.83 3726.5V3686.5ZM2566.41 3702.44C2549.16 3715.24 2542.83 3735.36 2542.83 3757H2582.83C2582.83 3742.64 2586.83 3737.1 2590.25 3734.56L2566.41 3702.44ZM2542.83 3757C2542.83 3773.79 2547.43 3789.28 2557.54 3802.28L2589.12 3777.72C2585.22 3772.72 2582.83 3766.21 2582.83 3757H2542.83ZM2557.77 3802.57C2568.43 3815.76 2585.39 3824.46 2604.82 3830.58L2616.83 3792.42C2600.26 3787.21 2592.23 3781.57 2588.89 3777.43L2557.77 3802.57ZM2605.15 3830.68L2645.65 3842.68L2657.01 3804.32L2616.51 3792.32L2605.15 3830.68ZM2645.65 3842.68C2668.14 3849.34 2683.13 3859.27 2692.58 3871.33C2701.95 3883.29 2707.33 3899.17 2707.33 3920.5H2747.33C2747.33 3892.16 2740.04 3867.04 2724.07 3846.67C2708.19 3826.4 2685.18 3812.66 2657.01 3804.32L2645.65 3842.68ZM2707.33 3920.5C2707.33 3944.81 2700.13 3962.91 2686.92 3976.63L2715.73 4004.37C2737.19 3982.09 2747.33 3953.52 2747.33 3920.5H2707.33ZM2687.05 3976.49C2675.11 3988.67 2653.67 3997 2617.83 3997V4037C2658.65 4037 2692.88 4027.67 2715.6 4004.51L2687.05 3976.49ZM2617.83 3997C2603.71 3997 2588.42 3995.35 2571.89 3991.92L2563.76 4031.08C2582.57 4034.99 2600.61 4037 2617.83 4037V3997ZM2572.33 3992.01C2556.42 3988.34 2539.64 3982.62 2521.98 3974.74L2505.68 4011.26C2525.35 4020.05 2544.57 4026.66 2563.33 4030.99L2572.33 3992.01ZM2532.62 3999.86L2546.12 3962.86L2508.54 3949.14L2495.04 3986.14L2532.62 3999.86ZM2519.08 3974.22C2537.54 3982.58 2554.61 3988.75 2570.2 3992.46L2579.46 3953.54C2567.05 3950.59 2552.45 3945.42 2535.58 3937.78L2519.08 3974.22ZM2570.3 3992.48C2586.08 3996.15 2601.93 3998 2617.83 3998V3958C2605.06 3958 2592.25 3956.52 2579.36 3953.52L2570.3 3992.48ZM3100.14 3971.5H3120.14V3951.5H3100.14V3971.5ZM3100.14 4012V4032H3120.14V4012H3100.14ZM2910.14 4012H2890.14V4032H2910.14V4012ZM2910.14 3672V3652H2890.14V3672H2910.14ZM3095.14 3672H3115.14V3652H3095.14V3672ZM3095.14 3713V3733H3115.14V3713H3095.14ZM2953.64 3713V3693H2933.64V3713H2953.64ZM2953.64 3819.5H2933.64V3839.5H2953.64V3819.5ZM3080.14 3819.5H3100.14V3799.5H3080.14V3819.5ZM3080.14 3860.5V3880.5H3100.14V3860.5H3080.14ZM2953.64 3860.5V3840.5H2933.64V3860.5H2953.64ZM2953.64 3971.5H2933.64V3991.5H2953.64V3971.5ZM3080.14 3971.5V4012H3120.14V3971.5H3080.14ZM3100.14 3992H2910.14V4032H3100.14V3992ZM2930.14 4012V3672H2890.14V4012H2930.14ZM2910.14 3692H3095.14V3652H2910.14V3692ZM3075.14 3672V3713H3115.14V3672H3075.14ZM3095.14 3693H2953.64V3733H3095.14V3693ZM2933.64 3713V3819.5H2973.64V3713H2933.64ZM2953.64 3839.5H3080.14V3799.5H2953.64V3839.5ZM3060.14 3819.5V3860.5H3100.14V3819.5H3060.14ZM3080.14 3840.5H2953.64V3880.5H3080.14V3840.5ZM2933.64 3860.5V3971.5H2973.64V3860.5H2933.64ZM2953.64 3991.5H3100.14V3951.5H2953.64V3991.5ZM3337.27 4012L3320.01 4022.1L3325.8 4032H3337.27V4012ZM3256.27 3873.5L3273.53 3863.4L3255.94 3833.32L3238.84 3863.69L3256.27 3873.5ZM3178.27 4012V4032H3189.96L3195.7 4021.81L3178.27 4012ZM3132.77 4012L3115.44 4002.02L3098.18 4032H3132.77V4012ZM3233.77 3836.5L3251.1 3846.48L3256.89 3836.43L3251.04 3826.42L3233.77 3836.5ZM3137.77 3672V3652H3102.94L3120.5 3682.08L3137.77 3672ZM3187.27 3672L3204.58 3661.98L3198.8 3652H3187.27V3672ZM3262.27 3801.5L3244.96 3811.52L3262.44 3841.71L3279.66 3811.37L3262.27 3801.5ZM3335.77 3672V3652H3324.12L3318.38 3662.13L3335.77 3672ZM3380.77 3672L3398.1 3681.99L3415.39 3652H3380.77V3672ZM3284.77 3838.5L3267.44 3828.51L3261.64 3838.57L3267.51 3848.6L3284.77 3838.5ZM3386.27 4012V4032H3421.14L3403.53 4001.9L3386.27 4012ZM3354.53 4001.9L3273.53 3863.4L3239.01 3883.6L3320.01 4022.1L3354.53 4001.9ZM3238.84 3863.69L3160.84 4002.19L3195.7 4021.81L3273.7 3883.31L3238.84 3863.69ZM3178.27 3992H3132.77V4032H3178.27V3992ZM3150.1 4021.98L3251.1 3846.48L3216.44 3826.52L3115.44 4002.02L3150.1 4021.98ZM3251.04 3826.42L3155.04 3661.92L3120.5 3682.08L3216.5 3846.58L3251.04 3826.42ZM3137.77 3692H3187.27V3652H3137.77V3692ZM3169.96 3682.02L3244.96 3811.52L3279.58 3791.48L3204.58 3661.98L3169.96 3682.02ZM3279.66 3811.37L3353.16 3681.87L3318.38 3662.13L3244.88 3791.63L3279.66 3811.37ZM3335.77 3692H3380.77V3652H3335.77V3692ZM3363.44 3662.01L3267.44 3828.51L3302.1 3848.49L3398.1 3681.99L3363.44 3662.01ZM3267.51 3848.6L3369.01 4022.1L3403.53 4001.9L3302.03 3828.4L3267.51 3848.6ZM3386.27 3992H3337.27V4032H3386.27V3992ZM3403.2 3713H3383.2V3733H3403.2V3713ZM3403.2 3672V3652H3383.2V3672H3403.2ZM3644.7 3672H3664.7V3652H3644.7V3672ZM3644.7 3713V3733H3664.7V3713H3644.7ZM3545.7 3713V3693H3525.7V3713H3545.7ZM3545.7 4012V4032H3565.7V4012H3545.7ZM3502.2 4012H3482.2V4032H3502.2V4012ZM3502.2 3713H3522.2V3693H3502.2V3713ZM3423.2 3713V3672H3383.2V3713H3423.2ZM3403.2 3692H3644.7V3652H3403.2V3692ZM3624.7 3672V3713H3664.7V3672H3624.7ZM3644.7 3693H3545.7V3733H3644.7V3693ZM3525.7 3713V4012H3565.7V3713H3525.7ZM3545.7 3992H3502.2V4032H3545.7V3992ZM3522.2 4012V3713H3482.2V4012H3522.2ZM3502.2 3693H3403.2V3733H3502.2V3693ZM3747.59 3879V3859H3727.59V3879H3747.59ZM3747.59 4012V4032H3767.59V4012H3747.59ZM3704.09 4012H3684.09V4032H3704.09V4012ZM3704.09 3672V3652H3684.09V3672H3704.09ZM3884.59 3697.5L3870.59 3711.78L3870.72 3711.91L3870.87 3712.05L3884.59 3697.5ZM3897.09 3838L3880.22 3827.26L3880.13 3827.4L3880.04 3827.54L3897.09 3838ZM3858.09 3870.5L3850.47 3852.01L3828.61 3861.01L3841.12 3881.08L3858.09 3870.5ZM3898.09 3940.5L3880.35 3949.74L3880.35 3949.74L3898.09 3940.5ZM3932.09 4012V4032H3962.48L3950.46 4004.09L3932.09 4012ZM3882.09 4012L3863.64 4019.73L3868.79 4032H3882.09V4012ZM3815.59 3879L3832.86 3868.91L3827.06 3859H3815.59V3879ZM3747.59 3712V3692H3727.59V3712H3747.59ZM3747.59 3839H3727.59V3859H3747.59V3839ZM3851.09 3825L3864.74 3839.62L3864.86 3839.5L3864.99 3839.38L3851.09 3825ZM3851.09 3726L3837.44 3740.62L3837.58 3740.74L3837.71 3740.87L3851.09 3726ZM3727.59 3879V4012H3767.59V3879H3727.59ZM3747.59 3992H3704.09V4032H3747.59V3992ZM3724.09 4012V3672H3684.09V4012H3724.09ZM3704.09 3692H3810.59V3652H3704.09V3692ZM3810.59 3692C3839.08 3692 3858.06 3699.5 3870.59 3711.78L3898.59 3683.22C3876.45 3661.5 3846.1 3652 3810.59 3652V3692ZM3870.87 3712.05C3883.9 3724.35 3891.09 3741.09 3891.09 3764.5H3931.09C3931.09 3731.91 3920.61 3703.99 3898.31 3682.95L3870.87 3712.05ZM3891.09 3764.5V3786H3931.09V3764.5H3891.09ZM3891.09 3786C3891.09 3802.78 3887.21 3816.27 3880.22 3827.26L3913.96 3848.74C3925.63 3830.4 3931.09 3809.22 3931.09 3786H3891.09ZM3880.04 3827.54C3873.41 3838.34 3863.84 3846.5 3850.47 3852.01L3865.7 3888.99C3886.34 3880.5 3902.77 3866.99 3914.14 3848.46L3880.04 3827.54ZM3841.12 3881.08C3855.18 3903.65 3868.26 3926.54 3880.35 3949.74L3915.83 3931.26C3903.25 3907.13 3889.66 3883.35 3875.06 3859.92L3841.12 3881.08ZM3880.35 3949.74C3892.46 3972.98 3903.59 3996.37 3913.72 4019.91L3950.46 4004.09C3939.93 3979.63 3928.38 3955.35 3915.83 3931.26L3880.35 3949.74ZM3932.09 3992H3882.09V4032H3932.09V3992ZM3900.54 4004.27C3881.19 3958.11 3858.62 3912.98 3832.86 3868.91L3798.32 3889.09C3823.22 3931.68 3844.99 3975.23 3863.64 4019.73L3900.54 4004.27ZM3815.59 3859H3747.59V3899H3815.59V3859ZM3810.59 3692H3747.59V3732H3810.59V3692ZM3727.59 3712V3839H3767.59V3712H3727.59ZM3747.59 3859H3810.59V3819H3747.59V3859ZM3810.59 3859C3831.37 3859 3850.19 3853.2 3864.74 3839.62L3837.44 3810.38C3831.99 3815.47 3823.81 3819 3810.59 3819V3859ZM3864.99 3839.38C3879.57 3825.29 3886.09 3806.73 3886.09 3786H3846.09C3846.09 3797.94 3842.61 3805.38 3837.19 3810.62L3864.99 3839.38ZM3886.09 3786V3764.5H3846.09V3786H3886.09ZM3886.09 3764.5C3886.09 3743.62 3879.66 3724.8 3864.47 3711.13L3837.71 3740.87C3842.52 3745.2 3846.09 3752.04 3846.09 3764.5H3886.09ZM3864.74 3711.38C3850.19 3697.8 3831.37 3692 3810.59 3692V3732C3823.81 3732 3831.99 3735.53 3837.44 3740.62L3864.74 3711.38ZM4184.38 4012L4165.35 4018.14L4169.82 4032H4184.38V4012ZM4158.88 3933L4177.92 3926.86L4173.44 3913H4158.88V3933ZM4029.88 3933V3913H4015.32L4010.85 3926.86L4029.88 3933ZM4004.38 4012V4032H4018.94L4023.42 4018.14L4004.38 4012ZM3961.88 4012L3942.9 4005.69L3934.16 4032H3961.88V4012ZM4074.88 3672V3652H4060.45L4055.9 3665.69L4074.88 3672ZM4115.88 3672L4134.85 3665.67L4130.29 3652H4115.88V3672ZM4229.38 4012V4032H4257.14L4248.35 4005.67L4229.38 4012ZM4061.38 3835L4080.4 3841.18L4080.43 3841.09L4080.46 3841L4061.38 3835ZM4042.38 3893.5L4023.36 3887.32L4014.86 3913.5H4042.38V3893.5ZM4145.88 3893.5V3913.5H4173.41L4164.9 3887.32L4145.88 3893.5ZM4126.88 3835L4107.78 3840.91L4107.82 3841.05L4107.86 3841.18L4126.88 3835ZM4094.38 3730L4113.49 3724.09L4094.53 3662.83L4075.3 3724L4094.38 3730ZM4203.42 4005.86L4177.92 3926.86L4139.85 3939.14L4165.35 4018.14L4203.42 4005.86ZM4158.88 3913H4029.88V3953H4158.88V3913ZM4010.85 3926.86L3985.35 4005.86L4023.42 4018.14L4048.92 3939.14L4010.85 3926.86ZM4004.38 3992H3961.88V4032H4004.38V3992ZM3980.86 4018.31L4093.86 3678.31L4055.9 3665.69L3942.9 4005.69L3980.86 4018.31ZM4074.88 3692H4115.88V3652H4074.88V3692ZM4096.91 3678.33L4210.41 4018.33L4248.35 4005.67L4134.85 3665.67L4096.91 3678.33ZM4229.38 3992H4184.38V4032H4229.38V3992ZM4042.36 3828.82L4023.36 3887.32L4061.4 3899.68L4080.4 3841.18L4042.36 3828.82ZM4042.38 3913.5H4145.88V3873.5H4042.38V3913.5ZM4164.9 3887.32L4145.9 3828.82L4107.86 3841.18L4126.86 3899.68L4164.9 3887.32ZM4145.99 3829.09L4113.49 3724.09L4075.28 3735.91L4107.78 3840.91L4145.99 3829.09ZM4075.3 3724L4042.3 3829L4080.46 3841L4113.46 3736L4075.3 3724Z" fill="black"/>
<rect x="-10" y="-10" width="5020" height="520" fill="#8C7A6B" stroke="black" stroke-width="20"/>
<rect x="-10" y="4490" width="5020" height="520" fill="#8C7A6B" stroke="black" stroke-width="20"/>
<path d="M2915.23 1658.58L1897.23 2436.58C1897.23 2436.58 1426.69 2237.71 1311.23 2436.58C1239.76 2559.68 1173.74 2806.23 1311.23 2843.08C1408.23 2869.08 1753.23 2824.08 1753.23 2824.08C1753.23 2824.08 1648.24 3228.26 1753.23 3291.58C1887.28 3372.43 2051.61 3240.13 2137.23 3109.08C2235.23 2959.08 2185.23 2705.58 2185.23 2705.58L3241.73 1860.58C3241.73 1860.58 3576.31 1896.48 3683.23 1755.08C3759.12 1654.73 3801.44 1548.28 3740.73 1438.08C3674.34 1317.57 3331.23 1438.08 3331.23 1438.08C3331.23 1438.08 3356.26 1073.66 3241.73 1021.08C3123.4 966.755 3014.92 1037.33 2915.23 1121.08C2754.52 1256.11 2915.23 1658.58 2915.23 1658.58Z" fill="#D9CAB3" stroke="black" stroke-width="20" stroke-linecap="round"/>
<path d="M3100.98 2397.05L2644.65 2771.54C2644.65 2771.54 2433.72 2675.81 2381.96 2771.54C2349.93 2830.8 2320.33 2949.47 2381.96 2967.21C2425.45 2979.73 2580.1 2958.07 2580.1 2958.07C2580.1 2958.07 2533.03 3152.62 2580.1 3183.1C2640.19 3222.02 2713.85 3158.33 2752.23 3095.25C2796.16 3023.05 2773.75 2901.03 2773.75 2901.03L3247.34 2494.28C3247.34 2494.28 3397.32 2511.56 3445.25 2443.5C3479.27 2395.19 3498.24 2343.96 3471.03 2290.91C3441.27 2232.9 3287.46 2290.91 3287.46 2290.91C3287.46 2290.91 3298.68 2115.5 3247.34 2090.19C3194.3 2064.03 3145.67 2098.01 3100.98 2138.32C3028.94 2203.31 3100.98 2397.05 3100.98 2397.05Z" fill="#D9CAB3" stroke="black" stroke-width="20" stroke-linecap="round"/>
<path d="M2214.99 1533.14L2058.48 1807.44C2058.48 1807.44 1937.57 1792.46 1929.44 1851.65C1924.41 1888.29 1931.31 1955.86 1964.79 1954.84C1988.42 1954.12 2060.48 1916.67 2060.48 1916.67C2060.48 1916.67 2072.51 2027.19 2101.14 2035.34C2137.69 2045.74 2162.37 1999.76 2169.82 1960.04C2178.36 1914.57 2145.3 1853.99 2145.3 1853.99L2304.46 1559.78C2304.46 1559.78 2381.26 1543.65 2392.5 1499.69C2400.49 1468.49 2400.55 1438.27 2377.6 1414.88C2352.49 1389.3 2287.42 1445.78 2287.42 1445.78C2287.42 1445.78 2261.24 1351.38 2231.44 1346.68C2200.66 1341.81 2182.91 1367.91 2168.24 1396.7C2144.59 1443.1 2214.99 1533.14 2214.99 1533.14Z" fill="#D9CAB3" stroke="black" stroke-width="20" stroke-linecap="round"/>
</g>
<defs>
<clipPath id="clip0_5_581">
<rect width="5000" height="5000" fill="white"/>
</clipPath>
</defs>
</svg>
