<svg width="5000" height="5000" viewBox="0 0 5000 5000" fill="none" xmlns="http://www.w3.org/2000/svg">
<g clip-path="url(#clip0_5_583)">
<rect y="500" width="5000" height="4000" fill="#ADD7F6"/>
<path d="M2270.55 2177.19C2275.6 2087.25 2305.08 1850.78 2270.55 1743.4C2236.01 1636.03 2142.5 2134.5 2142.5 2134.5C2085.5 2249 2092 2302 1977.5 2510.5C1863 2719 2008.77 2267.48 2059 2108.5C2089.15 2013.08 2105.87 1866.21 2165 1743.4C2200.99 1668.65 2284.26 1602.82 2304.5 1562.92C2358 1457.5 2304.5 1370.98 2304.5 1370.98C2304.5 1370.98 2245 1364.42 2191 1283.32C2096.5 1141.4 2105.18 1059.86 2191 947.824C2352.06 737.561 2598.62 859.459 2614.75 1003.82C2636 1193.98 2711 1172.4 2711 1172.4L2636 1358.9L2451.36 1370.98V1562.92C2451.36 1562.92 2532.64 1603.78 2576 1651C2727.5 1816 2782.5 2058 2782.5 2058C2782.5 2058 3009 2550.5 2912.5 2405.5C2824.55 2273.35 2727.5 2077.5 2727.5 2077.5C2727.5 2077.5 2590.86 1703.67 2554.5 1743.4C2518.14 1783.14 2614.75 2167.4 2614.75 2167.4L2711 2804.31C2711 2804.31 2711 3139.5 2775.5 3240C2847.03 3351.45 2962.5 3348 2962.5 3348L2614.75 3387.5C2614.75 3387.5 2636 3315 2636 3240C2636 3063.8 2592 2804.31 2592 2804.31L2442 2382L2270.55 2804.31C2270.55 2804.31 2227.58 2993.96 2112.5 3218C2066.82 3306.92 2304.5 3387.5 2304.5 3387.5L1894 3315C1894 3315 1992.53 3208.83 2017.5 3172.5C2158 2968 2178 2763.5 2178 2763.5C2178 2763.5 2260.61 2354.08 2270.55 2177.19Z" fill="#3B28CC" stroke="#3B28CC" stroke-width="30" stroke-linecap="round"/>
<path d="M2363.55 2177.19C2368.6 2087.25 2398.08 1850.78 2363.55 1743.4C2329.01 1636.03 2235.5 2134.5 2235.5 2134.5C2178.5 2249 2185 2302 2070.5 2510.5C1956 2719 2101.77 2267.48 2152 2108.5C2182.15 2013.08 2198.87 1866.21 2258 1743.4C2293.99 1668.65 2377.26 1602.82 2397.5 1562.92C2451 1457.5 2397.5 1370.98 2397.5 1370.98C2397.5 1370.98 2338 1364.42 2284 1283.32C2189.5 1141.4 2198.18 1059.86 2284 947.824C2445.06 737.561 2691.62 859.459 2707.75 1003.82C2729 1193.98 2804 1172.4 2804 1172.4L2729 1358.9L2544.36 1370.98V1562.92C2544.36 1562.92 2625.64 1603.78 2669 1651C2820.5 1816 2875.5 2058 2875.5 2058C2875.5 2058 3102 2550.5 3005.5 2405.5C2917.55 2273.35 2820.5 2077.5 2820.5 2077.5C2820.5 2077.5 2683.86 1703.67 2647.5 1743.4C2611.14 1783.14 2707.75 2167.4 2707.75 2167.4L2804 2804.31C2804 2804.31 2804 3139.5 2868.5 3240C2940.03 3351.45 3055.5 3348 3055.5 3348L2707.75 3387.5C2707.75 3387.5 2729 3315 2729 3240C2729 3063.8 2685 2804.31 2685 2804.31L2535 2382L2363.55 2804.31C2363.55 2804.31 2320.58 2993.96 2205.5 3218C2159.82 3306.92 2397.5 3387.5 2397.5 3387.5L1987 3315C1987 3315 2085.53 3208.83 2110.5 3172.5C2251 2968 2271 2763.5 2271 2763.5C2271 2763.5 2353.61 2354.08 2363.55 2177.19Z" fill="#2667FF" stroke="#2667FF" stroke-width="30" stroke-linecap="round"/>
<path d="M2461.55 2177.19C2466.6 2087.25 2496.08 1850.78 2461.55 1743.4C2427.01 1636.03 2333.5 2134.5 2333.5 2134.5C2276.5 2249 2283 2302 2168.5 2510.5C2054 2719 2199.77 2267.48 2250 2108.5C2280.15 2013.08 2296.87 1866.21 2356 1743.4C2391.99 1668.65 2475.26 1602.82 2495.5 1562.92C2549 1457.5 2495.5 1370.98 2495.5 1370.98C2495.5 1370.98 2436 1364.42 2382 1283.32C2287.5 1141.4 2296.18 1059.86 2382 947.824C2543.06 737.561 2789.62 859.459 2805.75 1003.82C2827 1193.98 2902 1172.4 2902 1172.4L2827 1358.9L2642.36 1370.98V1562.92C2642.36 1562.92 2723.64 1603.78 2767 1651C2918.5 1816 2973.5 2058 2973.5 2058C2973.5 2058 3200 2550.5 3103.5 2405.5C3015.55 2273.35 2918.5 2077.5 2918.5 2077.5C2918.5 2077.5 2781.86 1703.67 2745.5 1743.4C2709.14 1783.14 2805.75 2167.4 2805.75 2167.4L2902 2804.31C2902 2804.31 2902 3139.5 2966.5 3240C3038.03 3351.45 3153.5 3348 3153.5 3348L2805.75 3387.5C2805.75 3387.5 2827 3315 2827 3240C2827 3063.8 2783 2804.31 2783 2804.31L2633 2382L2461.55 2804.31C2461.55 2804.31 2418.58 2993.96 2303.5 3218C2257.82 3306.92 2495.5 3387.5 2495.5 3387.5L2085 3315C2085 3315 2183.53 3208.83 2208.5 3172.5C2349 2968 2369 2763.5 2369 2763.5C2369 2763.5 2451.61 2354.08 2461.55 2177.19Z" fill="#FCF6B1" stroke="#F5F5F5" stroke-width="30" stroke-linecap="round"/>
<path d="M1582 4053V3713H1688C1720.67 3713 1745.5 3721.67 1762.5 3739C1779.83 3756 1788.5 3778.83 1788.5 3807.5V3834C1788.5 3862.67 1779.83 3885.67 1762.5 3903C1745.5 3920.33 1720.67 3929 1688 3929H1625.5V4053H1582ZM1688 3754H1625.5V3888.5H1688C1706 3888.5 1719.67 3883.67 1729 3874C1738.67 3864.33 1743.5 3851 1743.5 3834V3807.5C1743.5 3790.83 1738.67 3777.83 1729 3768.5C1719.67 3758.83 1706 3754 1688 3754ZM2023.23 4053L1997.73 3974H1868.73L1843.23 4053H1800.73L1913.73 3713H1954.73L2068.23 4053H2023.23ZM1900.23 3876L1881.23 3934.5H1984.73L1965.73 3876L1933.23 3771L1900.23 3876ZM2151.54 3920.5C2151.54 3951.83 2157.71 3976 2170.04 3993C2182.71 4009.67 2202.04 4018 2228.04 4018C2239.37 4018 2250.54 4016.67 2261.54 4014C2272.54 4011.33 2285.71 4006.67 2301.04 4000L2315.54 4037C2299.21 4044.33 2283.71 4049.67 2269.04 4053C2254.37 4056.33 2240.21 4058 2226.54 4058C2187.21 4058 2157.37 4045.67 2137.04 4021C2116.71 3996.33 2106.54 3962.83 2106.54 3920.5V3845.5C2106.54 3803.17 2116.71 3769.67 2137.04 3745C2157.37 3720.33 2187.21 3708 2226.54 3708C2240.21 3708 2254.37 3709.67 2269.04 3713C2284.04 3716.33 2299.21 3721.67 2314.54 3729L2300.54 3766.5C2273.54 3754.5 2249.37 3748.5 2228.04 3748.5C2202.04 3748.5 2182.71 3756.83 2170.04 3773.5C2157.71 3790.17 2151.54 3814.17 2151.54 3845.5V3920.5ZM2430.19 4053H2386.69V3713H2430.19V4053ZM2726.59 4012.5V4053H2536.59V3713H2721.59V3754H2580.09V3860.5H2706.59V3901.5H2580.09V4012.5H2726.59ZM2802.21 4053V3713H2847.71C2878.05 3756.33 2905.88 3800 2931.21 3844C2956.88 3887.67 2980.88 3933.33 3003.21 3981L2998.21 3851V3713H3040.71V4053H2995.21C2971.88 4004.33 2947.71 3957 2922.71 3911C2898.05 3864.67 2871.05 3819.5 2841.71 3775.5L2844.71 3914V4053H2802.21ZM3176.93 3920.5C3176.93 3951.83 3183.1 3976 3195.43 3993C3208.1 4009.67 3227.43 4018 3253.43 4018C3264.76 4018 3275.93 4016.67 3286.93 4014C3297.93 4011.33 3311.1 4006.67 3326.43 4000L3340.93 4037C3324.6 4044.33 3309.1 4049.67 3294.43 4053C3279.76 4056.33 3265.6 4058 3251.93 4058C3212.6 4058 3182.76 4045.67 3162.43 4021C3142.1 3996.33 3131.93 3962.83 3131.93 3920.5V3845.5C3131.93 3803.17 3142.1 3769.67 3162.43 3745C3182.76 3720.33 3212.6 3708 3251.93 3708C3265.6 3708 3279.76 3709.67 3294.43 3713C3309.43 3716.33 3324.6 3721.67 3339.93 3729L3325.93 3766.5C3298.93 3754.5 3274.76 3748.5 3253.43 3748.5C3227.43 3748.5 3208.1 3756.83 3195.43 3773.5C3183.1 3790.17 3176.93 3814.17 3176.93 3845.5V3920.5ZM3455.58 4053H3412.08V3713H3455.58V4053ZM3741.98 4053L3716.48 3974H3587.48L3561.98 4053H3519.48L3632.48 3713H3673.48L3786.98 4053H3741.98ZM3618.98 3876L3599.98 3934.5H3703.48L3684.48 3876L3651.98 3771L3618.98 3876Z" fill="#3B28CC"/>
<rect x="-10" y="-10" width="5020" height="520" fill="#3F8EFC" stroke="black" stroke-width="20"/>
<rect x="-10" y="4490" width="5020" height="520" fill="#3F8EFC" stroke="black" stroke-width="20"/>
</g>
<defs>
<clipPath id="clip0_5_583">
<rect width="5000" height="5000" fill="white"/>
</clipPath>
</defs>
</svg>
