<svg width="5000" height="5000" viewBox="0 0 5000 5000" fill="none" xmlns="http://www.w3.org/2000/svg">
<g clip-path="url(#clip0_5_582)">
<rect y="500" width="5000" height="4000" fill="#F7B32B"/>
<path d="M2069.55 2231.19C2064.26 2076.33 1965.94 1852.85 1965.94 1852.85L1638 1869.9C1457.5 1959.9 1458.2 2112.54 1284 2326.32C1284 2326.32 1433.47 1859.99 1588 1797.4C1762.07 1726.9 1938.2 1675.85 1990 1645.9C2093.61 1586.01 2069.55 1424.98 2069.55 1424.98C2069.55 1424.98 2044 1418.42 1990 1337.32C1895.5 1195.4 1904.18 1113.86 1990 1001.82C2151.06 791.561 2397.62 913.459 2413.75 1057.82C2435 1247.98 2510 1226.4 2510 1226.4L2435 1412.9L2250.37 1424.98V1616.92C2250.37 1616.92 2349.65 1660.11 2413.75 1660.11C2577 1660.11 2738 1726.9 2738 1726.9C2738 1726.9 3012.55 1711.45 3201.78 1660.11C3543.5 1567.4 2738 1869.9 2738 1869.9C2738 1869.9 2389.86 1757.67 2353.5 1797.4C2317.14 1837.14 2413.75 2221.4 2413.75 2221.4L2910 2267.82C2910 2267.82 3093.21 2689.42 3262.5 2727.9C3391.63 2757.26 3537 2658.9 3537 2658.9L3230.17 2951.2C3230.17 2951.2 3237.48 2840.88 3173.5 2793.4C3032 2688.4 2881 2403.82 2881 2403.82H2313L2069.55 2858.31C2069.55 2858.31 1607.8 2922.77 1492.72 3146.81C1447.05 3235.73 1432.45 3395.59 1432.45 3395.59L1337.8 3077.13C1337.8 3077.13 1423.54 3078.93 1460.5 3054.9C1668.84 2919.48 1985 2691.4 1985 2691.4C1985 2691.4 2075.59 2408.25 2069.55 2231.19Z" fill="#2D1E2F" stroke="#2D1E2F" stroke-width="30" stroke-linecap="round"/>
<path d="M2140.55 2231.19C2135.26 2076.33 2036.94 1852.85 2036.94 1852.85L1709 1869.9C1528.5 1959.9 1529.2 2112.54 1355 2326.32C1355 2326.32 1504.47 1859.99 1659 1797.4C1833.07 1726.9 2009.2 1675.85 2061 1645.9C2164.61 1586.01 2140.55 1424.98 2140.55 1424.98C2140.55 1424.98 2115 1418.42 2061 1337.32C1966.5 1195.4 1975.18 1113.86 2061 1001.82C2222.06 791.561 2468.62 913.459 2484.75 1057.82C2506 1247.98 2581 1226.4 2581 1226.4L2506 1412.9L2321.37 1424.98V1616.92C2321.37 1616.92 2420.65 1660.11 2484.75 1660.11C2648 1660.11 2809 1726.9 2809 1726.9C2809 1726.9 3083.55 1711.45 3272.78 1660.11C3614.5 1567.4 2809 1869.9 2809 1869.9C2809 1869.9 2460.86 1757.67 2424.5 1797.4C2388.14 1837.14 2484.75 2221.4 2484.75 2221.4L2981 2267.82C2981 2267.82 3164.21 2689.42 3333.5 2727.9C3462.63 2757.26 3608 2658.9 3608 2658.9L3301.17 2951.2C3301.17 2951.2 3308.48 2840.88 3244.5 2793.4C3103 2688.4 2952 2403.82 2952 2403.82H2384L2140.55 2858.31C2140.55 2858.31 1678.8 2922.77 1563.72 3146.81C1518.05 3235.73 1503.45 3395.59 1503.45 3395.59L1408.8 3077.13C1408.8 3077.13 1494.54 3078.93 1531.5 3054.9C1739.84 2919.48 2056 2691.4 2056 2691.4C2056 2691.4 2146.59 2408.25 2140.55 2231.19Z" fill="#E3170A" stroke="#E3170A" stroke-width="30" stroke-linecap="round"/>
<path d="M2247.55 2231.19C2242.26 2076.33 2143.94 1852.85 2143.94 1852.85L1816 1869.9C1635.5 1959.9 1636.2 2112.54 1462 2326.32C1462 2326.32 1611.47 1859.99 1766 1797.4C1940.07 1726.9 2116.2 1675.85 2168 1645.9C2271.61 1586.01 2247.55 1424.98 2247.55 1424.98C2247.55 1424.98 2222 1418.42 2168 1337.32C2073.5 1195.4 2082.18 1113.86 2168 1001.82C2329.06 791.561 2575.62 913.459 2591.75 1057.82C2613 1247.98 2688 1226.4 2688 1226.4L2613 1412.9L2428.37 1424.98V1616.92C2428.37 1616.92 2529.23 1645.95 2591.75 1660.11C2759 1698 2916 1758.5 2916 1758.5C2916 1758.5 3181.77 1684.34 3371 1633C3712.72 1540.29 2916 1869.9 2916 1869.9C2916 1869.9 2567.86 1757.67 2531.5 1797.4C2495.14 1837.14 2591.75 2221.4 2591.75 2221.4L3088 2267.82C3088 2267.82 3271.21 2689.42 3440.5 2727.9C3569.63 2757.26 3715 2658.9 3715 2658.9L3408.17 2951.2C3408.17 2951.2 3415.48 2840.88 3351.5 2793.4C3210 2688.4 3059 2403.82 3059 2403.82H2491L2247.55 2858.31C2247.55 2858.31 1785.8 2922.77 1670.72 3146.81C1625.05 3235.73 1610.45 3395.59 1610.45 3395.59L1515.8 3077.13C1515.8 3077.13 1601.54 3078.93 1638.5 3054.9C1846.84 2919.48 2163 2691.4 2163 2691.4C2163 2691.4 2253.59 2408.25 2247.55 2231.19Z" fill="#FCF6B1" stroke="#FCF6B1" stroke-width="30" stroke-linecap="round"/>
<path d="M1677 3957.5V3998H1487V3658H1672V3699H1530.5V3805.5H1657V3846.5H1530.5V3957.5H1677ZM1752.63 3998V3658H1798.13C1828.46 3701.33 1856.29 3745 1881.63 3789C1907.29 3832.67 1931.29 3878.33 1953.63 3926L1948.63 3796V3658H1991.13V3998H1945.63C1922.29 3949.33 1898.13 3902 1873.13 3856C1848.46 3809.67 1821.46 3764.5 1792.13 3720.5L1795.13 3859V3998H1752.63ZM2287.84 3957.5V3998H2097.84V3658H2282.84V3699H2141.34V3805.5H2267.84V3846.5H2141.34V3957.5H2287.84ZM2406.96 3865V3998H2363.46V3658H2469.96C2501.96 3658 2526.63 3666.5 2543.96 3683.5C2561.63 3700.17 2570.46 3722.5 2570.46 3750.5V3772C2570.46 3792 2565.8 3809.33 2556.46 3824C2547.46 3838.67 2534.46 3849.5 2517.46 3856.5C2531.8 3879.5 2545.13 3902.83 2557.46 3926.5C2569.8 3950.17 2581.13 3974 2591.46 3998H2541.46C2522.46 3952.67 2500.3 3908.33 2474.96 3865H2406.96ZM2469.96 3698H2406.96V3825H2469.96C2486.96 3825 2500.46 3820.33 2510.46 3811C2520.46 3801.33 2525.46 3788.33 2525.46 3772V3750.5C2525.46 3733.83 2520.46 3721 2510.46 3712C2500.46 3702.67 2486.96 3698 2469.96 3698ZM2878.76 3974.5C2869.09 3980.83 2855.26 3987.17 2837.26 3993.5C2819.59 3999.83 2798.26 4003 2773.26 4003C2746.26 4003 2723.42 3997.33 2704.76 3986C2686.42 3974.33 2672.42 3958.17 2662.76 3937.5C2653.42 3916.5 2648.76 3892.33 2648.76 3865V3790.5C2648.76 3747.83 2659.42 3714.33 2680.76 3690C2702.42 3665.33 2733.76 3653 2774.76 3653C2789.76 3653 2805.42 3654.67 2821.76 3658C2838.42 3661.33 2854.92 3666.83 2871.26 3674.5L2857.26 3712C2827.26 3699.67 2799.92 3693.5 2775.26 3693.5C2747.92 3693.5 2727.42 3701.83 2713.76 3718.5C2700.42 3734.83 2693.76 3758.83 2693.76 3790.5V3865C2693.76 3895 2700.59 3918.83 2714.26 3936.5C2727.92 3954.17 2748.59 3963 2776.26 3963C2786.92 3963 2797.76 3961.83 2808.76 3959.5C2820.09 3957.17 2830.09 3954 2838.76 3950V3858.5H2775.26V3820H2878.76V3974.5ZM3009.02 3998H2965.52V3658H3009.02V3998ZM3006.02 3616H2970.52L3015.52 3533L3054.52 3551L3006.02 3616ZM3295.42 3998L3269.92 3919H3140.92L3115.42 3998H3072.92L3185.92 3658H3226.92L3340.42 3998H3295.42ZM3172.42 3821L3153.42 3879.5H3256.92L3237.92 3821L3205.42 3716L3172.42 3821Z" fill="#E3170A"/>
<path d="M1713 3957.5V3998H1523V3658H1708V3699H1566.5V3805.5H1693V3846.5H1566.5V3957.5H1713ZM1788.63 3998V3658H1834.13C1864.46 3701.33 1892.29 3745 1917.63 3789C1943.29 3832.67 1967.29 3878.33 1989.63 3926L1984.63 3796V3658H2027.13V3998H1981.63C1958.29 3949.33 1934.13 3902 1909.13 3856C1884.46 3809.67 1857.46 3764.5 1828.13 3720.5L1831.13 3859V3998H1788.63ZM2323.84 3957.5V3998H2133.84V3658H2318.84V3699H2177.34V3805.5H2303.84V3846.5H2177.34V3957.5H2323.84ZM2442.96 3865V3998H2399.46V3658H2505.96C2537.96 3658 2562.63 3666.5 2579.96 3683.5C2597.63 3700.17 2606.46 3722.5 2606.46 3750.5V3772C2606.46 3792 2601.8 3809.33 2592.46 3824C2583.46 3838.67 2570.46 3849.5 2553.46 3856.5C2567.8 3879.5 2581.13 3902.83 2593.46 3926.5C2605.8 3950.17 2617.13 3974 2627.46 3998H2577.46C2558.46 3952.67 2536.3 3908.33 2510.96 3865H2442.96ZM2505.96 3698H2442.96V3825H2505.96C2522.96 3825 2536.46 3820.33 2546.46 3811C2556.46 3801.33 2561.46 3788.33 2561.46 3772V3750.5C2561.46 3733.83 2556.46 3721 2546.46 3712C2536.46 3702.67 2522.96 3698 2505.96 3698ZM2914.76 3974.5C2905.09 3980.83 2891.26 3987.17 2873.26 3993.5C2855.59 3999.83 2834.26 4003 2809.26 4003C2782.26 4003 2759.42 3997.33 2740.76 3986C2722.42 3974.33 2708.42 3958.17 2698.76 3937.5C2689.42 3916.5 2684.76 3892.33 2684.76 3865V3790.5C2684.76 3747.83 2695.42 3714.33 2716.76 3690C2738.42 3665.33 2769.76 3653 2810.76 3653C2825.76 3653 2841.42 3654.67 2857.76 3658C2874.42 3661.33 2890.92 3666.83 2907.26 3674.5L2893.26 3712C2863.26 3699.67 2835.92 3693.5 2811.26 3693.5C2783.92 3693.5 2763.42 3701.83 2749.76 3718.5C2736.42 3734.83 2729.76 3758.83 2729.76 3790.5V3865C2729.76 3895 2736.59 3918.83 2750.26 3936.5C2763.92 3954.17 2784.59 3963 2812.26 3963C2822.92 3963 2833.76 3961.83 2844.76 3959.5C2856.09 3957.17 2866.09 3954 2874.76 3950V3858.5H2811.26V3820H2914.76V3974.5ZM3045.02 3998H3001.52V3658H3045.02V3998ZM3042.02 3616H3006.52L3051.52 3533L3090.52 3551L3042.02 3616ZM3331.42 3998L3305.92 3919H3176.92L3151.42 3998H3108.92L3221.92 3658H3262.92L3376.42 3998H3331.42ZM3208.42 3821L3189.42 3879.5H3292.92L3273.92 3821L3241.42 3716L3208.42 3821Z" fill="#2D1E2F"/>
<rect x="-10" y="-10" width="5020" height="520" fill="#E3170A" stroke="black" stroke-width="20"/>
<rect x="-10" y="4490" width="5020" height="520" fill="#E3170A" stroke="black" stroke-width="20"/>
</g>
<defs>
<clipPath id="clip0_5_582">
<rect width="5000" height="5000" fill="white"/>
</clipPath>
</defs>
</svg>
