<svg width="2000" height="2000" viewBox="0 0 2000 2000" fill="none" xmlns="http://www.w3.org/2000/svg">
<path d="M837.323 882.612C827.648 1004.21 726.06 1095.7 610.419 1086.97C494.778 1078.23 408.876 972.576 418.551 850.978C428.226 729.381 529.815 637.888 645.456 646.624C761.096 655.359 846.998 761.015 837.323 882.612Z" fill="#703750"/>
<path d="M1152.61 891.153C1144.27 995.979 1043.76 1073.87 928.122 1065.14C812.482 1056.4 725.498 964.345 733.838 859.519C742.179 754.694 842.686 676.798 958.327 685.533C1073.97 694.269 1160.95 786.328 1152.61 891.153Z" fill="#8A4765"/>
<path d="M1463.07 960.431C1454.72 1065.26 1354.22 1143.15 1238.58 1134.42C1122.94 1125.68 1035.95 1033.62 1044.29 928.798C1052.63 823.972 1153.14 746.076 1268.78 754.811C1384.42 763.547 1471.41 855.606 1463.07 960.431Z" fill="#703750"/>
<path d="M1339.04 1195.47C1330.7 1300.3 1230.19 1378.19 1114.55 1369.46C998.913 1360.72 911.929 1268.66 920.269 1163.84C928.61 1059.01 1029.12 981.115 1144.76 989.851C1260.4 998.586 1347.38 1090.65 1339.04 1195.47Z" fill="#8A4765"/>
<path d="M1004.42 1429.88C996.083 1534.7 895.576 1612.6 779.935 1603.86C664.295 1595.13 577.311 1503.07 585.651 1398.24C593.992 1293.42 694.499 1215.52 810.14 1224.26C925.78 1232.99 1012.76 1325.05 1004.42 1429.88Z" fill="#8A4765"/>
<path d="M1213.81 1445.69C1205.47 1550.52 1104.96 1628.42 989.322 1619.68C873.681 1610.95 786.697 1518.89 795.038 1414.06C803.378 1309.24 903.885 1231.34 1019.53 1240.07C1135.17 1248.81 1222.15 1340.87 1213.81 1445.69Z" fill="#703750"/>
<path d="M1084.95 1741.47C1076.61 1846.3 976.106 1924.19 860.465 1915.46C744.824 1906.72 657.841 1814.66 666.181 1709.84C674.522 1605.01 775.029 1527.12 890.669 1535.85C1006.31 1544.59 1093.29 1636.65 1084.95 1741.47Z" fill="#8A4765"/>
<path d="M1029.8 1111.01C1020.79 1224.22 919.74 1308.91 804.099 1300.18C688.458 1291.44 602.015 1192.59 611.023 1079.37C620.031 966.163 721.079 881.469 836.719 890.204C952.36 898.94 1038.8 997.797 1029.8 1111.01Z" fill="#703750"/>
<path d="M1257.32 310.087C1101.39 457.774 1141.51 390.306 1072.02 483.119C963.921 627.495 948.478 774.285 948.478 678.722C948.478 583.158 724.566 392.841 1072.02 137.054C1419.47 -118.734 1329.28 224.797 1257.32 310.087Z" fill="#002A22"/>
</svg>
