<?xml version="1.0" encoding="utf-8"?>
<!-- Generator: Adobe Illustrator 27.10.0, SVG Export Plug-In . SVG Version: 6.00 Build 0)  -->
<svg version="1.1" id="Capa_1" xmlns="http://www.w3.org/2000/svg" xmlns:xlink="http://www.w3.org/1999/xlink" x="0px" y="0px"
	 viewBox="0 0 1147.3 1147.3" style="enable-background:new 0 0 1147.3 1147.3;" xml:space="preserve">
<style type="text/css">
	.st0{fill:#703750;}
	.st1{fill:#002A22;}
</style>
<path class="st0" d="M686,435.9c-27-2-52.4,5-72.7,18.2c-17-29.9-50.1-51.5-89.7-54.5c-32.1-2.4-62,7.9-83.6,26.4
	c-18.1-26.3-46.7-44.2-80.1-46.8c-60.5-4.6-113.6,43.3-118.7,106.9c-5.1,63.6,39.9,118.9,100.4,123.5c0,0,0,0,0.1,0
	c-1.5,34.1,13.5,65.3,38.2,86.1c-28.7,16-48.7,43.8-51.3,76.8c-3.6,45.6,27.2,86.5,72.5,101.7c-17.1,16-28.3,37.4-30.3,61.5
	c-4.3,54.8,41.2,103,101.7,107.6c60.5,4.5,113.1-36.2,117.5-91.1v0c1.9-24.1-5.8-46.8-20.1-65.2c47-8.3,83.9-44.1,87.5-89.6
	c1.3-15.7-1.6-30.9-7.8-44.7c40-12.4,70-45.3,73.3-86.2c1.1-13.2-0.8-26-5-37.9c38.3-13.1,66.7-45.4,69.9-85.1
	C792.1,488.6,746.6,440.4,686,435.9z"/>
<path class="st1" d="M680.1,203.1c-81.6,77.3-60.6,42-97,90.6C526.5,369.2,518.4,446,518.4,396s-117.2-149.6,64.7-283.5
	C764.9-21.3,717.7,158.5,680.1,203.1z"/>
</svg>
