<svg version="1.1" id="Capa_1" xmlns="http://www.w3.org/2000/svg" x="0" y="0" viewBox="0 0 1147.3 1147.3" style="enable-background:new 0 0 1147.3 1147.3" xml:space="preserve"><style>.st0{fill:#703750}.st1{fill:#8a4765}</style><path class="st0" d="M460.3 502.7c-5.1 63.6-58.2 111.5-118.7 106.9-60.5-4.6-105.5-59.9-100.4-123.5 5.1-63.6 58.2-111.5 118.7-106.9 60.5 4.6 105.4 59.9 100.4 123.5z"/><path class="st1" d="M625.3 507.2c-4.4 54.9-57 95.6-117.5 91.1-60.5-4.6-106-52.7-101.7-107.6 4.4-54.9 57-95.6 117.5-91.1 60.5 4.6 106 52.7 101.7 107.6z"/><path class="st0" d="M787.7 543.5c-4.4 54.9-57 95.6-117.5 91.1-60.5-4.6-106-52.8-101.7-107.6 4.4-54.9 57-95.6 117.5-91.1 60.6 4.5 106.1 52.7 101.7 107.6z"/><path class="st1" d="M722.8 666.5c-4.4 54.9-57 95.6-117.5 91.1-60.5-4.6-106-52.8-101.7-107.6 4.4-54.9 57-95.6 117.5-91.1 60.6 4.5 106.1 52.7 101.7 107.6z"/><path class="st1" d="M547.7 789.1c-4.4 54.9-57 95.6-117.5 91-60.5-4.6-106-52.7-101.7-107.6 4.4-54.9 57-95.6 117.5-91 60.6 4.6 106.1 52.8 101.7 107.6z"/><path class="st0" d="M657.3 797.4c-4.4 54.9-57 95.6-117.5 91.1-60.5-4.6-106-52.7-101.7-107.6 4.4-54.9 57-95.6 117.5-91.1 60.5 4.6 106.1 52.8 101.7 107.6z"/><path class="st1" d="M589.9 952.2c-4.4 54.9-57 95.6-117.5 91.1-60.5-4.6-106-52.8-101.7-107.6 4.4-54.9 57-95.6 117.5-91.1 60.5 4.6 106 52.7 101.7 107.6z"/><path class="st0" d="M561 622.3c-4.7 59.2-57.6 103.6-118.1 99-60.5-4.6-105.8-56.3-101-115.6 4.7-59.2 57.6-103.6 118.1-99 60.5 4.6 105.7 56.3 101 115.6z"/><path d="M680.1 203.1c-81.6 77.3-60.6 42-97 90.6-56.6 75.5-64.7 152.3-64.7 102.3 0-50-117.2-149.6 64.7-283.5 181.8-133.8 134.6 46 97 90.6z" style="fill:#002a22"/></svg>